<?xml version="1.0" encoding="utf-8"?>
<!-- Generator: Adobe Illustrator 22.1.0, SVG Export Plug-In . SVG Version: 6.00 Build 0)  -->
<svg version="1.1" id="abstrakt-design-first-issue-1-13"
	 xmlns="http://www.w3.org/2000/svg" xmlns:xlink="http://www.w3.org/1999/xlink" x="0px" y="0px" viewBox="0 0 1000 1000"
	 style="enable-background:new 0 0 1000 1000;" xml:space="preserve">
<style type="text/css">
	.st0{fill:aliceblue;}
	.st1{fill:#f9fbfd;}
	.st2{fill:#D1D3D4;}
</style>
<circle class="st0" cx="638.3" cy="445.7" r="293.6"/>
<path class="st1" d="M534.7,551.6c-57.4,15-115.9,25.1-175,29.9c-82.8,6.9-166.7,29.1-71.5,97.4c159.1,114.2,313.7,169.9,295.2,42.9
	C568.2,617.2,607.7,532.4,534.7,551.6z"/>
<path class="st2" d="M673.4,888.7c-0.1-3,0.6-3.8,2.9-2.9c8.3,3.3,15.7,7.6,20,16.1c2.6,5.2,4.5,10.8,5.6,16.5
	c0.9,5.1-0.4,10.3-3.5,14.4c-1.4,1.7-3.3,3-5.4,3.8c-2.3,0.9-4.5,2.2-6.5,3.8c-1.1,0.9-2.2,1.9-3.9,1.2c-1.2-0.5-1.8,0.7-2.5,1.5
	c-4.8,6.2-11.9,9.2-18.5,12.8c-3.2-0.2-6.3,1.1-9.4,1c-6.6-0.1-13-1.2-18.7-4.8C628,949,624,944,622,938c-1.5-4.5-2.6-8.9-2.2-13.7
	c0.5-6.8,2.2-13.2,7-18.5c6-6.7,13.6-10.4,21.9-13.3c0.5-0.2,1-0.3,1.5-0.3c5.9,0.7,11.2-1.7,16.6-3.5
	C669.1,887.9,671,889.3,673.4,888.7z M683.3,925c0.6-7.1-1.5-14.2-5.8-19.8c-2.1-2.8-4.5-5.4-8.1-6.2c-3.8-0.8-4.3-0.8-7.3-3.6
	c-0.3-0.3-0.7-0.4-1.1-0.5c-0.9-0.2-1.8-0.3-2.8-0.3c-10.7,0.6-19.9,4.4-27.3,12.3c-2.5,2.6-4.9,5.3-5.9,8.9
	c-2.2,8.1-2.1,16,1.7,23.7c2.4,4.8,6.3,8.6,11.2,10.8c4.5,2.2,9.4,2.7,14.4,2.7c5.2,0,10.1-0.8,14.3-4c0.9-0.8,1.9-1.4,3-1.9
	c4.9-2.2,7.9-6.5,11.1-10.5c1.2-1.6,1.9-3.5,2.1-5.5C683.1,929,683.1,927,683.3,925L683.3,925z M683.7,908.2
	c-0.6,2.1,0.6,3.2,1.2,4.5s0.9,2.4,1.5,4C687.1,913.2,685.4,910.9,683.7,908.2L683.7,908.2z M685.6,936.2c3.4-1.3,3.4-1.4,0.5-4.2
	C685.7,933.4,685.6,934.8,685.6,936.2L685.6,936.2z M687.4,896.9c1.3,2.7,1.3,2.7,3.2,3.1C689.8,898.7,688.7,897.6,687.4,896.9
	L687.4,896.9z M682.2,905.2c-0.4-0.6-0.8-1.3-1.2-1.9c-0.4-0.4-0.8-1.1-1.4-0.2C680,904.2,681,905,682.2,905.2L682.2,905.2z
	 M675.8,898.1c-0.3-0.4-0.7-0.8-1.3-0.7c-0.1,0-0.3,0.5-0.2,0.7c0.2,0.5,0.6,0.9,1.2,0.7C675.6,898.7,675.7,898.3,675.8,898.1
	L675.8,898.1z"/>
<path class="st2" d="M652.5,291.5c1.2-1.9,3.2-2.1,4.6-3.4s3.1-2,4.2-3.9c-1-0.3-2.2,0.1-2.8,0.9c-1.6,2.1-3.9,2.5-6.2,3
	c-2.9,0.6-5.7,1.3-8.5,2c-1.4,0.4-2.8,0.6-4.3,0.6c-1.1,0-2.4-0.1-3.3,1c-2.5,3-6,2.6-9.2,2.5c-1.6-0.1-3.2-0.1-4.7,0.1
	c-2.5,0.5-5.1,0.2-7.5-0.6c-7.2-2.7-14-5.9-18.6-12.3c-6.6-9.1-8.4-25.1-0.6-34.4c1.8-2.1,3.2-4.5,5-6.7c6.3-7.6,14.5-10.9,24-11.8
	c1.3-0.1,2.6-0.3,3.9-0.5c2.6-0.7,5.4-0.5,7.8,0.5c2.9,1.4,6.1,1.9,9.3,1.5c1.6-0.2,3.2-0.1,4.7,0.5c1.1,0.5,2.4,0.6,3.5,0.3
	c2.1-0.9,3.5-0.1,5.2,1c6.9,5,9.8,12.2,10.9,20.3c0.4,3,1.4,5.9,1.4,9.1c0,4.6-2,8.8-3,13.1c-0.5,1.8-1.2,3.5-2,5.2
	c-2.2,5.5-6.5,9-11.3,12C654.3,291.9,653.3,292,652.5,291.5z M651.1,253.2c0-0.4,0-0.8,0-1.2c0.3-8-2.3-14.6-9.7-18.6
	c-0.7-0.4-1.2-1.1-2-1.3c-1.6-0.5-2.8-2.3-4.5-2.1c-5.3,0.4-10.7-0.3-15.9,0.9c-6.1,1.4-11.7,4.6-16.1,9.1
	c-3.2,3.4-5.6,7.7-8.3,11.7c-0.8,1.3-1.2,2.7-1.1,4.2c-0.1,3.4-0.2,6.9,0,10.3c0.3,4.1,1.5,8.1,3.7,11.7c3.7,6.2,9.4,10,16.1,12.4
	s13.4,0.8,20.1,0.1c0.4-0.1,0.8-0.3,1.1-0.5c5.4-3.6,10.1-7.9,13-13.7C651,269,650.7,261,651.1,253.2L651.1,253.2z M652.4,263.2
	c2.3-3.4,2.5-8.8,0.8-11.5C652.9,255.5,653.5,259.1,652.4,263.2L652.4,263.2z M667.2,257c-0.8,1.4-1,2.8,0.1,5
	C668.2,259.8,668,258.4,667.2,257z M650.3,236.9l-0.4,0.4c0.2,0.4,0.5,0.8,0.8,1.2c0.5,0.4,1.1,0.9,1.6,0.1c0.4-0.6-0.3-0.9-0.7-1.1
	C651.2,237.3,650.8,237.1,650.3,236.9z M639.1,289c1,0.5,1.5,0.3,1.9-0.1s1-1,0.4-1.6c-0.4-0.4-0.9,0.1-1.3,0.4
	C639.7,288.1,639.4,288.6,639.1,289z M666.1,273.8c0.1,0,0.2,0,0.3-0.1c0.5-0.4,0.9-1,0.9-1.7c0-0.2-0.1-0.5-0.2-0.7
	c-0.8,0.1-0.7,0.9-1,1.4C665.9,273.1,665.8,273.5,666.1,273.8L666.1,273.8z"/>
<path class="st2" d="M149.2,765.9c1.4,0,1.4-1.1,1.7-1.7c0.5-0.9,1.2-1.6,2.2-1s2,1.8,1.1,3c-2.7,3.5-4.6,7.5-8.9,10
	c-5.3,2.8-10.7,5.3-16.3,7.5c-4.9,2.1-10.3,2.5-15.7,2.5c-5,0.1-10.1-0.2-15.1-0.9c-2.6-0.4-4.6-2.5-7.5-2c-0.6,0.1-1.5-1.7-1.9-2.8
	c-1.9-4.9-4.1-9.8-6.5-14.5c-1.8-3.6-1-6.4,1.7-10.2c5.2-7.2,12.8-10.6,20.6-13.7c3.8-1.6,8-2.2,12.1-1.9c0.9,0,1.9-0.1,2.8-0.3
	c9.7-2.3,18.3,1.1,26.6,5.5c1.8,0.9,2.2,2.6,2.7,4.2C149.6,752.6,149.8,762.4,149.2,765.9z M105.4,770.1c3.8,0.1,7.6-0.1,11.3-0.7
	c7-0.8,13.9-2.3,20.1-6c4.3-2.6,8.1-5.6,8.5-11.3c0.4-2.4-0.8-4.8-2.8-6c-2.3-1.6-5-1.5-7.4-2.5c-4.4-1.7-9.2-2.2-13.8-1.2
	c-1.3,0.3-2.7,0.4-4,0.3c-9.2-0.1-17.1,3.5-24.4,8.7c-2.6,1.9-4.7,4.4-6.2,7.2c-2.1,3.5-1.6,5.4,1.7,7.7c1,0.7,2,1.2,3.1,1.6
	C95.8,769.8,100.6,770.6,105.4,770.1L105.4,770.1z M111.9,774.6l0.1-0.7l-7.9,0.5v0.2H111.9z M118.2,779.4c0-0.2,0-0.4-0.1-0.5
	c-0.5-0.4-1.1-0.8-1.7-0.4c-0.3,0.2-0.4,0.6-0.6,0.9c0.5,0.1,1,0.3,1.5,0.3C117.6,779.7,117.9,779.6,118.2,779.4L118.2,779.4z
	 M146.3,770.6c0.1-0.3,0.2-0.7,0.3-1c0-0.6,0.4-1.3-0.4-1.7c-0.1,0-0.4,0.2-0.6,0.4c-0.4,0.7,0,1.3,0.2,1.9
	C145.8,770.3,145.9,770.4,146.3,770.6L146.3,770.6z"/>
<path class="st2" d="M830.9,252.4c-0.3,1.2-0.1,2.5,0.3,3.6c2.3,8.4,2.6,17.1,3.7,25.6c0.4,3.2,0.2,6.5,0.3,9.8
	c0.3,6.2,0,12.4,0,18.6c0,2-1,2.8-2.7,2.3c-1.3-0.4-2.7-0.2-3.8,0.7c-1.8,1.4-4,1.7-6,1.9c-4.2,0.5-8,1.9-11.9,3.2
	c-2.9,1-5.9,1.7-8.9,2.3c-3.3,0.7-6.6,1.7-9.7,3.2c-0.3,0.2-0.7,0.3-1.1,0.4c-5.7,0.6-10.9,3.2-16.6,3.9c-1.1,0.1-2.1,0.5-3,1.1
	c-2.3,1.4-4.9,0.7-7.3,1c-2.7,0.4-3.9-1.6-3.2-4.4c1.3-5,0.3-10-0.3-15c-0.3-1.8-0.5-3.7-0.4-5.6c0.4-6.2-0.2-12.5-1.6-18.6
	c-1.4-6.6-2.5-13.3-0.6-20.1c0.1-0.4,0-0.9,0.2-1.2c1.4-1.6-2.2-5,2.4-5.8c2.1-0.3,3.7-2.5,6.3-3c9.3-1.8,18.8-2,28.1-3.8
	c8-1.6,16.1-2,24.1-3.2c1.2-0.2,2.7-0.1,3.3-1.1c1.9-3.1,4-1.3,6.1-0.6C831.2,248.4,831.2,250.4,830.9,252.4z M764,322.8l0.8,0.2
	c1.2-1,2.5-2,3.6-3.1c6.3-6.1,12.2-12.7,19.5-17.7c0.8-0.5,1.4-1.2,2-1.9c2.2-2.6,4.8-5,7.5-7.1c2.5-2,4.8-4.2,6.9-6.6
	c3.4-4,3.2-4.5-1.6-6.7c-1.7-0.8-3.5-1.4-5.3-1.8c-4.5-1.1-8.9-2.6-13.2-4.5c-2-0.9-3.5-2.4-5.4-3.3c-4.4-2-8.7-4-13.1-5.9
	c-3.5-1.5-4.5-1-5,2.8c-0.8,6.2-1,12.6,0.7,18.6c2.2,8.1,1.2,16.4,2,24.5C763.9,314.5,764.8,318.6,764,322.8z M766,327.8
	c11.6-3.7,23-6.1,34-9.7c8.7-2.8,17.8-4.1,26.2-8.4c-0.1-1.3-0.6-2.6-1.5-3.5c-1.6-1.6-2.9-3.5-3.7-5.6c-2.3-5.4-6.9-9.4-9.3-14.8
	c-0.5-1-1.3-1.1-2.2-0.1c-1.7,2.1-3.6,4.1-5.6,6c-2.4,2.1-5.1,3.9-7.6,5.8c-1.6,1.2-3.2,2.3-3.5,4.6c-0.1,1.2-1.3,1.6-2.2,2.1
	c-4.2,2.4-7.5,6-11.5,8.6c-0.8,0.5-1.1,1.5-1.6,2.3c-1.4,2.2-3.2,4.2-5.3,5.8C769.5,322.7,767.4,325,766,327.8L766,327.8z
	 M763,259.9c1.2,0.8,2.4,1.4,3.7,2c4.4,1.6,8.6,3.5,12.8,5.7c3,1.5,5.4,3.9,8.6,5c6.6,2,13.4,3.5,19.8,6.2c1.2,0.5,1.8,0.3,2.4-1.1
	c1.9-5.1,4.2-10,6.9-14.7c1.9-3.3,4-6.5,5.2-10.4c-1.6-0.8-3.5-1-5.2-0.4c-6.5,1.7-13.2,2-19.7,2.9C786,256.5,774.7,258.3,763,259.9
	L763,259.9z M825.7,252.9c-1.3,1.7-2.4,3.6-3.3,5.6c-2.1,3.9-5,7.4-6.1,11.9c-0.8,2.8-2,5.5-3.7,7.9c-0.8,1.2-0.9,1.7-0.3,3
	c3.5,7.2,8.3,13.6,12.5,20.4c1.2,1.9,2.6,3.7,4.2,5.4c1.2,1.3,2.5,0.8,2.9-0.9c0.4-1.8,0.7-3.6,0.9-5.5c0.2-6.7-1-13.3-0.8-19.9
	c0-3.5-0.4-6.9-1.1-10.3c-0.4-2.1-0.6-4.2-0.8-6.3C829.8,260,829,256.1,825.7,252.9L825.7,252.9z"/>
<path class="st2" d="M441.6,791.3c-1.9,0.8-3.6,2-5,3.5c-0.4,0.5-1,1.1-1.7,0.4c-0.5-0.5-0.5-1.4,0-2c0.1-0.1,0.1-0.1,0.2-0.2
	c0.4-0.4,0.8-0.7,1.2-1c1.7-1.1,3-2.7,3.7-4.6c0.3-1.5,1.7-2.5,3.2-2.2c0,0,0,0,0.1,0c1.5,0.2,1,1.7,1.1,2.6c0.5,3.4,1,6.9,1.2,10.3
	c0.3,5.6,1.1,11.1,1.6,16.7c0.9,9.7,2.4,19.4,4.1,29c1,5.6,2.2,11.2,3.4,16.8c1.2-0.4,1.3-1.6,1.4-2.4c0.4-5,1.5-10,2-15
	c0.5-5.5,1.9-11,2.4-16.6c0.3-4.2,1.2-8.5,1.1-12.7c-0.1-4.9,1.3-9.5,1.3-14.3c0.1-5,0.5-10,1.1-15c0.4-4.1,0.8-8.2,1.4-12.3
	c0.1-0.5,0.2-1,0.2-1.6c-0.1-2.6-1.6-3.6-4-2.6c-4.3,1.9-8.6,4.1-13.2,4.8c-3.9,0.6-7.3,2.5-11.1,3c-1.3,0.2-3,0.3-3.6,1.5
	c-0.8,1.6-1.4,2.4-3.2,1.4c-0.8-0.4-1.5,0-1.6,1.1c0,1.3-1.3,1.2-2.1,1.3c-0.7,0.2-1.4-0.1-1.7-0.7c-0.3-0.6-0.3-1.5,0.4-1.8
	c4-1.6,2-3.9,1.3-6.6c-1.2-4.5-1.5-9.2-2.1-13.8c-0.8-5.4-2.6-10.6-3.3-16c0-1.4-0.7-2.7-1.9-3.5c-0.8,3-1,6.1-0.5,9.1
	c0.5,3.7-0.6,7.4-0.9,11.1c-1,13.2-4.7,25.9-7.1,38.9c-0.8,4.3-1.5,8.7-2.2,13c-0.2,1-0.1,2,0.3,2.9c1.6,0.2,2.5-0.9,3.6-1.9
	c6-5.3,12.3-10.2,18.1-15.7c0.8-0.7,1.7-1.3,2.7-1.6c-2.9,3.5-5.6,7.2-9.1,10.2c-5.6,4.7-10.9,9.8-15.8,15.2
	c-0.8,0.8-1.2,1.8-2.5,1.1c-1-0.4-1.5-1.5-1.3-2.6c0.6-5.7,1.8-11.3,2.6-16.9c0.9-6.5,3.1-12.7,3.8-19.1c0.2-1.1,0.4-2.1,0.8-3.1
	c0.5-1.1,0.8-2.3,1-3.5c1-8,2-16.1,3-24.1c0.2-0.8,0.2-1.6,0.2-2.4c-1.4-6.5,0.4-12.7,1.7-18.9c0.1-0.7,0.2-1.4,0.9-1.7
	c0.9-0.5,2.1-0.8,2.1,0.6c0,2.6,1.3,4.9,2,7.3c2.4,8.2,3.9,16.6,5.9,24.8c0.3,1.6,0.4,3.2,0.5,4.8c0.1,1.2,0.2,2.4,0.5,3.5
	c1.3,5.1,1.9,5.4,6.9,3.7c6.3-2.1,13-3.2,19-6.1c3.1-1.5,6.4-2.6,9.8-3.1c0.5-0.1,1-0.2,1.6-0.3c1.6-0.2,3.6-0.3,4.3,1.2
	c0.5,1.1-0.1,2.9-1.2,3.9c-1.3,1.2-1.9,2.9-1.7,4.7c0.2,1.2-0.1,2.4-0.9,3.4c-1,1.1-0.8,2.5-0.6,3.8c0.1,0.8,0.7,1.4,0.5,2.3
	c-1.3,6.4-1.4,12.8-2.2,19.3c-0.6,5.1-0.5,10.2-1.4,15.3c-0.7,3.1-0.7,6.3-0.1,9.4c0.1,0.3,0.1,0.7,0,1c-2.4,5-1.7,10.7-3,16
	c-0.2,0.8,0.3,1.1,1,1.3c0.4,0.1,0.6,1.2,0.1,1.3c-2.2,0.5-1.6,2.4-2.1,3.7c-0.2,0.6-0.3,1.6,0,1.9c1,0.8,1-0.9,1.1-0.8
	c0.4,0.7,0.6,1.8,0,2.1c-2,0.8-1.3,2.7-1.8,4.1c-0.1,0.2,0.1,0.6,0,0.8c-2,4-0.5,8.2-0.7,12.4c-0.1,1.4-1.5,2.5-2.6,2.9
	s-2.4-0.9-2.4-2.1c-0.1-3-1.3-5.7-1.6-8.6c-0.6-5.2-1-10.3-3-15.2c-0.7-2.3-1.2-4.7-1.2-7.1c-0.1-2.3-0.5-4.5-1.1-6.7
	c-0.6-1.1-0.6-2.5-0.2-3.7c1.3-2.5,0.1-4.8-0.1-7.2c-0.9-9.9-3.3-19.7-3.6-29.7C442.2,793.2,442,792.2,441.6,791.3z"/>
<path class="st2" d="M265.7,476.8c-5.4-5.5-4-12,0.7-16.5c3.7-3.5,8.3-4.9,13.1-5.4c4.8-0.6,9.6-0.4,14.3,0.6
	c5.8,1.2,10.9,4.5,14.5,9.1c3.7,4.7,7,9.7,10,14.9c4.1,7.4,4.4,15.2,2.2,23.3c-0.4,1.2-0.6,2.5-0.9,3.8c0.4,0.1,0.9,0.2,1.3,0.2
	c4.7,0.2,5.5,0.6,5.9,5c0.3,2.9,1.2,5.7,2.6,8.3c1.5,3.1,3.2,3.8,6.3,1.8c3.8-2.5,7.4-5.3,11.1-7.8c5.4-3.6,10.1-8.3,15.9-11.5
	c3.1-1.7,6.4-3.3,10.4-3.3c0.3-2.2-1.2-3.7-2-5.4c-1.7-3.6-2.5-7.7-5.8-10.3c-2.4-2-5.1-3.8-7.9-5.3c-4.5-2.2-9-4.7-12.7-8.2
	c-0.8-0.7-1.3-1.7-1.3-2.8c0.3-4.4,1.4-8.5,5.3-11.1c3.6-2.4,7.2-5,10.9-7.3c4.4-2.9,9.5-4.9,14.7-5.7c7.3-1.1,13.3,2,13.8,10.6
	c0.3,4.9-1.2,9.5-1.8,14.2c-0.9,6.5,0.1,8,6.5,9.3c3.3,0.7,6.6-0.1,9.9-0.1c5.7,0,11.5-0.5,17.1-0.1c4.7,0.2,9.2,1.6,13.3,4
	c3.4,2.1,4.1,5.7,4.9,9.3c0.4,2,0.2,4,0.7,5.9c1,3.5,1.5,3.7,5.1,4.6c6,1.6,11.6-0.1,17.4-1c11.2-1.7,22.2-4.6,33.4-6
	c1.3-0.2,2.7-0.1,4,0.2c-3.7,0.9-7.3,2-11.1,2.6c-4.6,0.7-9,2.3-13.6,3.1c-6.7,1.1-13.3,2.5-20,3.9c-4,0.8-8,0.2-11.9-0.5
	c-2.7-0.5-4.4-2.8-5.2-5.1c-0.7-1.6-1.1-3.3-1.1-5c0.2-9.2-3.9-11.4-12.3-13.1c-8.2-1.7-16.5-0.8-24.7-0.2c-3.4,0.3-6.9-0.1-10.2-1
	c-3.1-0.8-5.1-3.7-5-6.9c0-4.3,1-8.4,1.8-12.6c0.4-2.2,0.4-4.5,0-6.7c-1.1-5.8-5.3-8.2-11.1-7.1c-9.7,1.8-17.1,7.8-24.9,13.1
	c-2.2,1.6-3.6,4.2-3.6,6.9c-0.1,3.3,2.6,4.9,5,6.5c4.4,2.9,9.5,4.7,13.7,8c2,1.5,3.7,3.4,5,5.6c2.7,5.1,5.1,10.3,7,15.7
	c0.3,0.6,0.5,1.2,0.7,1.9c0.1,0.6,0.2,1.4-0.6,1.7c-0.7,0.2-0.9-0.3-1.2-0.7c-2.3-2.9-3.3-3.3-6.7-2c-3,1.1-5.9,2.6-8.5,4.5
	c-6.9,5.3-13.9,10.4-20.8,15.6c-0.6,0.5-1.3,0.9-2,1.4c-5.1,3.1-9.3,1.4-10.8-4.5c-0.6-2.4-1.7-4.7-1.9-7.3c-0.2-3.1-5-4-7.5-1.4
	c-0.8,0.9-1.8,1.5-3,1.7c-0.7,0.1-1.4-0.2-1.6-0.9c-0.3-0.6,0-1.4,0.6-1.7c5.4-2,5.3-6.9,6.1-11.2c1.5-8-0.6-16.2-5.7-22.5
	c-2.1-2.7-3.7-5.8-5.7-8.7c-2.1-3-4.7-5.5-7.8-7.4c-2.7-1.6-5.8-2.6-9-2.8c-3.3-0.3-6.7,0.1-10-0.1c-4.3-0.3-7.8,1.9-11.2,3.7
	c-2.5,1.3-4.2,4.2-5.5,7c-0.5,1.1,0.3,2,0.5,3.1C264.9,472.8,266.7,474.6,265.7,476.8L265.7,476.8z"/>
<path class="st2" d="M616,845.7c2.3-1.9,5-3.2,7.9-4c9.2-2.2,18.4-4.5,27.6-6.6c1.2-0.3,1.5-0.8,1.5-1.8c0.1-7.5,0-14.9-2.6-22.1
	c-1.1-2.7-1.7-5.6-1.7-8.6c0.1-2.3-0.9-2.4-3-2.8c-9.2-1.4-17.8,1.7-26.6,3.5c-2.2,0.6-4.4,1.4-6.4,2.4c-3.9,1.8-3.1,1.2-2.9,5.4
	c0.2,3.6,1.9,6.7,3.3,9.8c1.7,3.8,2.4,7.9,3.5,11.8c0.4,2,1,3.9,1.6,5.8c0.3,0.7,0.4,1.6,0.1,2.3c-0.2,0.7-0.7,1.2-1.4,1.3
	c-0.7,0.1-1.4-0.2-1.7-0.8c-0.6-0.9-1-1.9-1.1-3c0-3.2-1.5-6.2-1.8-9.4c-0.5-3.8-2.4-7.2-3.7-10.8c-0.6-1.8-1.3-3.5-1.9-5.3
	c-2.2-6.3,0.3-11.4,3.7-16.4c2.9-4.6,6.3-8.9,10.1-12.8c0.4-0.3,0.7-0.8,0.9-1.3c0.4-3.6,3.5-4,5.9-4.9c5.5-2,11.3-2.9,17-4.2
	c4.5-1,9-2.2,13.5-3.5c2-0.5,3.7-1.1,5.6,0.4c2.3,1.9,2.5,1.8,1,4.7c-0.5,1-0.5,2.1-0.1,3.1c1.6,6.2,1.7,12.6,3.5,18.8
	c0.5,2.3,0.6,4.7,0.1,7.1c-0.4,1.9-0.1,4,0.8,5.7c0.5,1,0.4,2.2-0.3,3c-2.5,3-2.7,7-4.5,10.1c-1.7,2.9-2.3,6.8-5.7,8.6
	c-1,0.5-1,1-0.7,1.9c0.7,1.9,0.3,2.9-1.9,3.9s-3.7,2.5-6.3,1.4c-1.1-0.5-2.8,0.4-4.2,0.8c-7.3,2-14.9,3.1-22,6.1
	C620.9,846.2,618.4,845,616,845.7z M651.5,795.5c-0.8,4.1,0,8.3,1,12c2,6.7,3.3,13.6,4,20.6c4.9-4.8,5.8-11,8-16.5
	c-1-3.7,0.2-7.4,0.2-11.1c-0.1-6.2-2-12-2.4-18.1c-0.1-0.9,0-1.8-1.4-2.3c-1.8,4.7-5,8.7-6.5,13.5c-0.3,0.9-0.8,1.7-1.4,2.4
	c-0.6,0.7-1.2,0.3-1.6-0.3c-0.5-1.3-0.3-2.7,0.4-3.8c2-3.5,3.9-7,5.8-10.5c1.5-2.8,3.7-5.4,4-9.1c-12.2,2.2-24,5.8-36.2,7.8
	c0.7,1.6,0.6,3-0.8,3.7c-2.3,1.2-3.2,3.6-4.8,5.2c-3.2,3.1-4.9,7.4-8,10.5c-0.9,1-1.2,2.4-0.8,3.7c1.9-1.3,3.9-1.6,5.8-2.1
	c4.9-1.3,9.7-2.9,14.7-3.7c5-0.6,10-0.9,15-0.9C648.2,796.4,649.9,796.1,651.5,795.5z"/>
<path class="st2" d="M209.3,450.6c4,0.1,4.8-0.5,5.9-3.9c1.7-5.3,3.3-10.7,5-16c1.1-3.4,0.9-6.3-2.5-8.2c-4.2-2.4-7.4-6.1-11.7-8.3
	c-2.6-1.3-4.8-3.4-7.1-5.1c-0.9-0.6-1.3-1.8-0.8-2.9c0.3-0.8,1.2-1.3,2-1c4.3,1.4,8.4-0.9,12.7-0.3c1.6,0.2,3.2,0.2,4.8,0.2
	c0.9,0.2,1.9,0.1,2.7-0.2c2.8-1.5,5.3-1,7.6,1.1c1.8,1.8,4.1,3,6.6,3.6c3.1,0.8,5.2,3.1,7.9,4.6c1.3,0.7,1.4,2.4,0.9,4
	c-1.5,4.8-2.9,9.6-4.4,14.4c-0.2,0.8-0.5,1.5-0.9,2.2c-2.5,3.1-3.1,6.9-4,10.6s-2,7.4-3.1,11c-0.5,1.6-2.3,2-3,0.6
	c-1.4-3-3.5-2.2-5.2-1.2c-3.1,1.8-6.5,0.9-9.6,1.8c-0.9,0.3-2.6-0.7-3.4-1.6c-2.9-3.3-7.1-3.9-10.9-5c-3.5-0.9-6.9-2.1-10.2-3.5
	c-2.6-1.1-5.1-2.1-8-1.7c-1.5,0.2-2.5-0.8-3.2-1.9s-0.1-2,0.7-2.8c1.4-1.6,2.5-3.5,3.3-5.5c3.6-9,9.6-16.6,14-25.1
	c0.5-0.9,1-1.8,2.1-1.3s0.9,1.6,0.5,2.5c-0.9,2.1-2,4.1-3.2,6c-4.9,6.5-7.9,14-11.6,21.2c-1.2,2.3-1,3.1,1.4,3.9
	c5.4,1.9,10.6,4.3,16.3,5.1c2.5,0.4,4.6,2.2,7.1,2.4C208.3,450.3,208.8,450.4,209.3,450.6z M217.1,454.2c3.2-1,6-1.7,8.8-2.6
	c1.7-0.6,3.4-1.4,4.1-3.5c2.7-7.9,5.3-15.9,8.4-23.7c0.7-1.8,0.1-2.4-2-1.9s-3.8,1.3-5.7,1.8c-3.2,0.9-5.7,3.4-6.7,6.5
	c-1.6,4.5-3.2,9-4.4,13.6C218.8,447.5,216.9,450.3,217.1,454.2z M205.6,408.7c0.2,1.4,1.2,2.6,2.6,2.9c2,0.8,3.8,1.9,5.4,3.4
	c1.8,1.6,3.8,3,5.9,4.1c2.1,1.1,4.2,2.7,6.6,2.6c4-0.2,7.9-1.5,11.1-3.9c1.2-0.9,1-1.8-0.1-2.6c-0.7-0.6-1.5-1-2.4-1.5
	c-2.8-1.3-5.6-2.4-8-4.5c-0.9-0.7-2-0.8-3-0.5c-2.6,0.4-5.3,0.3-7.9-0.3C212.4,407.8,208.9,407.8,205.6,408.7z"/>
<path class="st2" d="M839.5,698.3c-3.9-0.5-7.8-1.5-11.5-2.8c-7.2-2.7-14.8-4.5-22.4-5.5c-1.8-0.2-3.7-0.6-5.5-1.2
	c-2.4-0.9-4.9-1.4-7.4-1.4c-1.8,0.3-3.5-0.9-3.9-2.6c-0.5-1.5,0.9-2.3,2.1-3c3-1.9,4.9-4.9,6.8-7.7c4.8-7.4,10-14.4,15.7-21.1
	c4-4.7,7.1-10,12.1-13.8c0.5-0.3,0.8-0.7,0.8-1.3c-0.1-1.1,0.3-1.8,1.5-1.7s2.6-0.1,3.4,1.5c2.3,4.5,6.2,7.4,10,10.6
	c5.2,4.4,10.9,8.2,15.2,13.5c0.8,1,2,1.7,3,2.7c1.8,1.8,1.9,3.7-0.3,5c-2.8,1.8-4.1,4.6-5.5,7.2c-2.3,4.5-5.4,8.2-8.4,12.1
	c-1.5,1.9-3,3.5-1.5,6.4C844.5,697,842.6,698.2,839.5,698.3z M826.6,642.3c-12.2,13.1-22.2,26.9-31.6,41.2c1.7,1.5,3.5,1.8,5.3,2.2
	c10.7,2.2,21.4,4,31.7,7.8c1.1,0.5,2.4,0.3,3.3-0.5C832,676.6,832,659.5,826.6,642.3L826.6,642.3z M831.4,644
	c-0.3,0.8-0.3,1.7,0,2.5c1.5,6.2,3.3,12.4,3.6,18.7c0.3,7.8,2.7,15.1,3.9,22.7c0.1,0.6-0.1,1.7,1.3,1.9c4.3-4.8,8.1-10.1,11.3-15.7
	c4.5-8.3,4.6-8.5-2.1-15.2c-0.5-0.5-0.9-0.9-1.4-1.4C842.6,652.9,836.6,649.2,831.4,644L831.4,644z"/>
<path class="st2" d="M600.8,134.2c-5.4,0.3-9.6,1.9-13.7,3.6c-9.5,3.9-18.9,7.9-27.1,14.3c-3.3,2.6-7.2,4.5-10.7,6.9
	c-5.3,3.7-10.8,7.3-15.5,11.8c-0.1,0.1-0.2,0.2-0.3,0.3c-0.9,0.7-1.8,2.3-2.9,1.1s0.8-1.9,1.5-2.6c4-4,8.3-7.5,13-10.6
	c3.5-2.4,6.9-4.9,10.8-6.7c3.7-1.7,6.4-4.8,10-6.6c2.1-1.1,4.1-2.5,6.3-3.5c4.3-2,8.7-4,13.1-5.9c5.7-2.4,11.6-3.7,17.5-5.4
	c0.5-0.1,1-0.2,1.6-0.3c0.7-0.1,1.4,0.3,1.6,1c0.4,0.7-0.2,1.2-0.6,1.7c-6.7,7-13.9,13.6-19.1,21.8c-1.3,1.9-2.4,3.9-3.5,5.9
	c-1.4,2.9-0.4,4.3,2.9,4c1.5-0.2,2.9-0.5,4.3-1c7.2-2.5,14.3-5.2,21.5-7.5c13.3-4.3,26.4-9.4,39.9-12.9c4.2-1,8.4-1.5,12.7-1.7
	c1.9,0,3.7,0.5,5.4,1.2c2.1,0.7,2.6,2.6,1.4,5c-1.6,3-3.6,5.6-6,7.9c-1.8,1.8-3.5,3.7-5,5.7c-2.7,3.8-1.9,6.5,2.6,7.7
	c3.4,1,7,1.6,10.5,2c4.4,0.4,8.6,2,12.1,4.7c5.4,4.1,11.5,7.3,17.2,10.9c2.7,1.7,5.6,3.1,7.8,5.4c0.8,0.8,1.8,1.2,2.9,1.2
	c6.3,0.5,12.1,2.9,17.8,5.5c8.6,3.9,17.4,7.2,26.1,10.8c1.6,0.6,3,1.4,4.4,2.3c-2.4,0.1-4.8-0.3-6.9-1.3c-6.6-2.8-13.3-5.3-20-8.1
	c-6.1-2.6-12.1-6.1-19-6.8c-3.6-0.3-7-1.9-9.6-4.3c-2.7-2.5-6.2-4.2-9.5-5.9c-4.2-2.3-8.2-4.9-12-7.9c-4.5-3.4-9.5-4.5-14.9-5
	c-4.1-0.3-8.2-0.9-11.3-4.2c-2.4-2.6-2.6-4.4-0.9-7.6c0.9-1.5,2-2.8,3.3-4c2.8-2.8,5.4-5.9,7.7-9.2c1.6-2.2,1.2-2.9-1.4-3.5
	c-5-1.1-9.9-0.4-14.6,1.1c-6.1,1.9-12.3,3.4-18.3,5.6c-2.6,0.9-5.2,2.1-7.8,2.9c-5.3,1.6-10.7,3.1-15.8,5.2
	c-5.8,2.5-11.8,3.9-17.6,6.4c-2.5,1-5.1,1.5-7.8,1.6c-4,0.3-6-2.4-4.6-6.1c0.9-2.1,1.9-4.1,3.2-6c2.9-4.8,6.4-9.2,10.4-13.2
	C596.1,139.7,598.1,137.1,600.8,134.2z"/>
<path class="st2" d="M307.5,828.3c-0.9,4.5-1,8.8-4.2,12.2c-1.6,1.6-1.7,4.6-3.8,5.5s-4.4,0.4-6.7,1c-1.5,0.3-2.9,0.9-4.2,1.7
	c-3.3,2-6.8,3.6-10.5,4.7c-2.8,0.8-6,0-8.6-0.9c-9.8-3.5-16.5-12.5-17.1-22.9c-0.1-4.2,1.4-8.2,4.1-11.3c4.4-5.3,10.1-8.6,16-11.5
	c2.8-1.4,6-0.6,9-0.8c3.2-0.1,6.4,0.6,9.2,2.1c2,1,4.2,0.5,6.3,1c1.8,0.4,3.4,0.6,3.8,2.8c0.1,0.4,0.4,0.7,0.7,0.9
	C307.1,816.7,306,823.1,307.5,828.3z M294.2,827.8c0.1-1.7,0.1-3.3,0-5c-0.2-1.6-0.8-3.1-0.9-4.7c-0.1-2.1,0.1-4.2-2.4-5.4
	c-1.9-0.9-2.8-3.5-5-3.8c-3.8-0.7-7.9-1-11.5,0.4c-5.1,1.9-9.8,4.9-13.6,8.8c-4,4.2-6.4,9-4.6,14.9c1,3.5,2.7,6.7,5,9.5
	c2.7,3.5,6.5,6,10.8,7c6.7,1.4,12-2.3,17.3-5.8c0.5-0.3,0.7-1.1,1.1-1.6C293.1,837.6,295,833,294.2,827.8L294.2,827.8z"/>
<path class="st2" d="M745.7,416c-3.2,1.3-6.5,2.1-9.9,2.6c-5.8,0.5-9.3,4.6-12.7,8.5c-3.7,4.2-2.6,12.8,1.4,17.1
	c4.7,5.2,10.6,8.9,16.6,12.3c6.4,3.6,12.5,7.8,14.7,15.6c0.3,0.9,0.7,1.7,1.2,2.5c2.8,5.7,2,12.6-2.2,17.5c-1.7,2-3.2,4.2-4.7,6.4
	c-0.7,0.8-1.5,1.5-2.3,2.1c-5.9,4.6-12.5,8.2-19.7,10.4c-5.5,1.7-10.5,4.6-14.8,8.5c-1.9,1.8-4.9,3.2-3.8,6.8
	c-2.8,2.6-1.1,5.2,0.3,7.5c1.4,2.4,3.4,4.5,5.8,5.9c6.6,4,13.4,7.6,20.2,11.3c7.1,3.9,11.8,10.3,12.3,18.2
	c0.5,8.8-1.6,14.1-10.2,17.9c-4.6,1.8-9.2,3.4-14,4.7c-8.2,2.6-13.5,8.2-17.5,15.4c-1.1,2.2-1.6,4.6-1.5,7c-0.1,2.4,1,4.8,2.9,6.3
	c2.4,2,4.9,3.9,7.2,6c-4.5-1.7-8.8-3.6-11.3-8.1c-2-3.5-1-7.1,0.2-10.4c3-7.8,8.5-13.3,16-17c3.5-1.7,7.3-2.6,11-3.7
	c2.7-0.9,5.3-1.9,7.8-3.1c4.8-2.2,6.6-6.5,6.9-11.3c0.7-9.9-3.8-17-12.5-21.2c-4.4-2.1-8.6-4.6-13.1-6.6c-2.9-1.3-5.6-3-8-5.1
	c-3.5-3-5.6-7.3-5.8-11.9c0.1-2.6,1.1-5,2.7-6.9c4.6-5.7,10.7-9,17.4-11.7c6.3-2.6,12.7-4.8,18-9.4c4-3.4,7.4-7.4,10-11.9
	c2-3.4,1.7-7.4,0.7-10.9c-2-6.5-5.3-11.9-11.5-15.8c-6.7-4.2-13.9-8-19.8-13.5c-4.1-3.8-6.7-11.6-5.1-17.4s5.7-8.4,9.9-11.4
	c2.3-1.9,5.2-2.9,8.1-2.8c2.3,0,4.5-0.4,6.7-1C744.2,414.8,745.2,415.2,745.7,416z"/>
<path class="st2" d="M604.4,654.9c1.4,2.5,2,4.1,1.5,6.2c-1.7,7-2.4,14.2-3.6,21.2c-0.7,3.3-1.1,6.6-1.4,10c2.9-1.4,5.6-3.2,8-5.4
	c3.2-2.8,6.4-5.6,9.8-8.2c1.5-1.2,2.4-3,2.2-4.9c0.1-4.8-0.2-9.6-0.5-14.4c-0.2-3.9,0.1-7.9,0.1-11.9c0-0.7,0.1-1.3,0.1-2
	c0-1.5-0.8-1.9-2.1-1.2c-1.9,0.9-3.8,2-5.5,3.3c-3.5,2.8-7.8,3.9-11.9,5.2c-0.8,0.2-1.6,0-2.2-0.5c-5.7-3-11.8-4.9-18.1-5.8
	c-6.8-1-13-3.8-19.6-5.1c-1.2-0.2-2.1-1.3-2.1-2.6c-0.2-1.2,0.4-2.4,1.5-2.9c2.6-1.4,5.2-2.8,7.8-3.9c5.2-2.2,11.1-2.6,15.9-6
	c1-0.7,2.3-0.2,3.5,0.2c4.6,1.9,9.4,2.9,14,4.5c4.2,1.4,8.2,3.7,12.5,5.1c2.8,1,5.6,2.2,8.4,3.3c2,0.8,2.1,2.2,0.2,3.4
	c-0.8,0.5-1.6,0.6-0.7,1.6c0.8,1.1,1.2,2.4,1,3.8c0,4.5,0.2,9,0.2,13.6c0.1,4.4,0.5,8.7,1.3,13c0.5,3.2,0.5,3.5-2.5,4.8
	c-2.3,1-3.8,2.9-5.7,4.3c-3.6,2.9-7,6-10.8,8.7c-1.8,1.1-3.3,2.7-4.3,4.6c-0.2,0.5-0.5,0.9-0.9,1.3c-0.7,0.6-1.7,0.9-2.6,0.5
	c-0.8-0.3-1-1.2-1.2-2c-0.2-0.8,0-1.6,0.3-2.3c1-2.1,0.9-4.4,1.3-6.5c1.4-7.7,2-15.5,3.7-23.2C602.6,661.8,603.4,658.8,604.4,654.9z
	 M560.6,638.5c1.9,1,3.9,0.8,5.7,1.4c3.2,1.1,6.6,2,10,2.8c5.3,1.3,10.7,1.7,15.8,3.9c2.9,1.3,6.3,1.4,9.1,2.6
	c2.2,1,3.6,0.7,4.9-0.6c2.1-2.1,4.9-3,7.3-4.8c1-0.8,2.3-1.3,3-2.5c-0.4-1-1.2-1.8-2.2-2.2c-4.5-2-9-3.9-13.6-5.5
	c-3.1-1.1-6.4-1.8-9.5-2.9c-4.2-1.4-8.3-0.8-12.3,0.6C572.6,633.3,566.5,635.7,560.6,638.5L560.6,638.5z"/>
<path class="st2" d="M118,565.5c2.7,3.1,4.8,5.8,7.2,8.3c5.5,6,10.7,12.3,15.5,18.8c0.7,0.6,1.1,1.5,1.2,2.5c-0.1,1.2,0.2,2,1.5,2.3
	s0.9,1.8,0.8,2.8c0,0.8-0.7,1.3-1.4,1.3c-0.1,0-0.2,0-0.3,0c-5-0.7-9.2,2.4-13.8,3.3c-7.4,1.5-14.3,5-21.9,5.9
	c-1.6,0.2-3.1,0.8-4.4,1.8c-0.4,0.3-1.2,0.3-1,1c0.3,1,0.5,1.9-1,1.8s-0.7-1.4-0.9-2.2c-0.9-3.5-0.3-6.6,1.2-10.1
	c2.6-6.2,4.2-12.9,5.7-19.5s4.3-13.1,5.8-19.9c0.1-0.9,1-1.6,1.9-1.4c0.1,0,0.1,0,0.2,0c4.8,0.7,9.8-0.1,14.3-1.2
	c4.8-1.1,9.6-0.3,14.2-1.7c0.7-0.2,1.3-0.2,2-0.2c2.4,0,3.1,0.8,2,2.8c-1.3,2.5-1,4.8-0.5,7.4c0.7,3.5,1.1,7.1,1.1,10.7
	c0,5,2.1,9.6,3.2,14.4c0.3,1.3,1,2.5,0.6,3.9c-0.5,1.6-1.6,2.1-2.9,1c-0.9-0.7-1.4-1.7-1.4-2.8c0.2-4.6-1.8-8.8-2.3-13.3
	c-0.2-2.1-0.9-4.1-0.5-6.2c0.1-0.8,0.1-1.6-0.1-2.4c-0.7-3.2-1.5-6.5-1.2-9.8c0.1-1.4-0.5-2.2-2.1-2.1
	C132.9,563.2,125.4,564.2,118,565.5z M115.2,567.3c-1.2,1.2-2,2.8-2.3,4.5c-3.2,10.8-6.2,21.7-9.3,32.5c-0.4,1.4-0.8,2.8,0,4.1
	c12.6-2.4,24.5-6.6,36.3-10.2C133.1,586.3,124,577,115.2,567.3L115.2,567.3z"/>
<path class="st2" d="M483.3,252.6c4.3-3.2,7.2-7.2,10.4-10.9c1.7-2,1.6-3.3-0.6-5.1c-6.2-5.1-10.8-11.6-16.7-17
	c2.6-0.9,3.3-0.6,5.4,1.3c3.8,3.6,6.8,7.8,10.8,11.3c1.6,1.4,3.7,2.1,5.1,3.7s1.7,4.4-0.1,5.9c-3.5,2.7-6.2,6.2-9.1,9.4
	c-1.7,1.9-4.4,3.1-4.9,6.1c-0.2,1.2-1.7,1-2.3,0.3c-1.5-1.9-2.3-1-3.2,0.4c-1,1.7-2.5,1.7-4.2,1.4s-3.4-0.6-5.1-1.1
	c-4.4-1.2-9-1.2-13.4,0c-1.4,0.5-3-0.1-3.8-1.3c-0.8-1.2-0.5-2.5,0.4-3.7c4.3-6.3,7.6-13.1,12.2-19.2c2.1-2.8,3.4-6.3,5.2-9.4
	c1-1.9,2.9-3.2,5-3.4c1.6-0.3,2.5,0.1,2.9,1.8c2,8,4.3,15.9,4.9,24.1C482.5,249.1,482.9,250.9,483.3,252.6z M474.4,224
	c-1.4,1.1-2.6,2.6-3.3,4.2c-2.1,4-4.5,7.8-7.2,11.5c-2.6,3.3-4.6,7.2-6.8,10.8c-0.6,1-1.1,2.3-0.5,3.4s2,0.8,2.9,0.5
	c2.6-0.8,5.1,0,7.4,0.7c3.4,1.1,7.1,1.1,10.5-0.1c2.3-0.9,3-1.6,2.5-4c-0.3-1.3-0.5-2.6-0.6-3.9C478.3,239.3,476.6,231.6,474.4,224z
	"/>
<path class="st2" d="M642.7,60.4c2.5-4.6,4.5-8.5,6.7-12.3c1.4-2.4,1.9-2.5,4.5-1.1c1,0.6,2.2,0.9,3.4,0.8c3.2-0.2,6.4-0.3,9.6-0.2
	c3.6-0.1,5.4,1,5.8,4.5c0.4,2.8,1.7,5.3,2.1,8.1c0.3,2.3,1.9,4.2,4,5c1.4,0.6,2,1.3,1.6,2.6c-0.4,0.9-0.4,1.8,0,2.7
	c0.5,1,0.2,2.2-0.7,2.8c-0.9,0.7-1.7-0.1-2.4-0.7c-0.3-0.2-0.5-0.7-1.3,0c-0.5,3-3.5,5.1-4.2,8.5c-0.4,1.5-2,2.5-3.5,2.1
	c-3-0.6-5.8,0.5-8.6,1c-2.2,0.3-4.4,1-6.6,0.5c-0.2,0.4-0.4,0.6-0.4,0.8c0.1,1.1,1.3,2.5-0.3,3.2s-1.8-1.1-2.3-2.1
	c-3.3-6.1-5.7-12.6-7.2-19.3c-0.1-0.5-0.2-1-0.3-1.6c0-0.8-0.3-1.8,0.9-1.8c0.7,0,1.3,0.5,1.4,1.2c0.2,0.6,0.4,1.3,0.5,1.9
	c0.9,5,3.2,9.6,4.8,14.3c0.7,2,1.5,2.3,3.5,1.7c3.4-1.1,6.9-1.8,10.4-2.6c1.7-0.4,2.2-1.5,2.2-3.3c-0.3-5.1-1.5-10-2.3-14.9
	c-0.2-1.5-1.4-1.7-2.8-1.7c-4.7-0.1-9.2,1.2-13.7,2.6c-0.9,0.3-1.8,1-2.3-0.3c-0.4-1.1,0.4-1.7,1.3-2c4.3-1.5,8.5-3.1,13.2-2.7
	c1.5,0.2,3.1,0.8,4.2-0.3c1.8-1.6,3.3-3.5,4.3-5.7c0.4-1-0.1-1.6-1-1.7c-1.6-0.2-3.2-0.3-4.8-0.3c-1.7,0-3.5,0.5-5.2,0.2
	c-5-0.9-7.2,2.3-9.2,5.8C646.5,58.9,646.6,59,642.7,60.4z M669.7,78.1c1.7-3.3,3.8-6.4,6.2-9.1c0.5-0.5,0.5-1.3,0.1-1.8
	c-2.1-3.1-3.7-6.5-4.8-10c-0.2-0.7-0.6-1.6-1.6-1.5c-0.8,0.1-1.5,0.6-1.9,1.3c-1.1,2.3-1.4,4.9-0.8,7.3c0.8,3,1.1,6,1.2,9.1
	C668.1,75.1,668.7,76.8,669.7,78.1z"/>
<path class="st2" d="M603.9,498c4.9-2.4,7.6-6.5,10.7-9.9c1.7-2,3.6-4,5.5-5.7c3.8-3.1,7.5-6.4,11.2-9.5c0.8-0.7,1.7-1.3,2.6-1.8
	c0.5-0.3,1,0,1.2,0.6s0,1-0.3,1.1c-3.4,1-5.2,4.1-7.5,6.3c-3.9,3.9-8.8,6.8-11.9,11.7c-1.7,2.7-4.5,4.7-7.1,7.3
	c8.6,5.1,15.3,12.2,24.6,15.4c0.6,0.2,1.2,0.5,1.8,0.7c1.6,0.5,2.6,0.1,2.6-1.8c0-2.9,0.4-5.8-0.3-8.7c-0.6-2.5-0.6-5.1-0.1-7.5
	c0.6-3,0.5-6.1,1-9.1c0.6-3.2-0.3-6.4-0.8-9.5c-0.3-1.9,0.4-4-0.8-5.8c-0.1-0.2,0.2-0.8,0.4-1c0.3-0.3,0.7-0.3,1,0
	c0.1,0.1,0.2,0.2,0.2,0.4c0.4,1.6,1.6,2,2.9,2.3c0.6,0.2,1.2,0.6,1.6,1.1c3.9,5.4,10,8.3,14.1,13.4c0.5,0.8,1.3,1.4,2.2,1.6
	c1.5,0.1,1.8,1.5,2.2,2.6c0.6,1.8-0.3,2.9-1.8,2.1c-2.2-1.1-3,0.2-4.2,1.5c-4.8,5.2-9.2,10.7-13.6,16.2c-1.1,1.4-0.8,3-1.3,4.5
	c-0.4,1.3-0.5,2.4-2.2,1.8c-0.4-0.1-2.8-1.3-3.8-1.7c-2.3-1-4.7-1.7-7-2.9c-3.3-1.7-6.5-3.7-9.5-5.9
	C613.4,504.3,609.2,500.7,603.9,498z M640.7,476.3c-0.7,1-0.9,2.2-0.6,3.4c1.6,5,0.5,10.1-0.2,15.1s0.5,9.3,0.2,14.8
	c3.7-3.1,5.7-6.5,8.2-9.3c2.1-2.4,4.5-4.5,6.3-7.3c0.8-1.3,0.9-2.1-0.2-3.5C650.5,484.6,644.8,481.6,640.7,476.3L640.7,476.3z"/>
<path class="st2" d="M535.7,392.3c0.2-1.7,0.6-3.5,1.1-5.2c2.6-6.8,3-14,3.7-21.2c0-0.9,0.5-1.8,1.2-2.3c1.5-1,2.8-2,4.2-3
	c0.9-0.6,2.1-1.1,2.5-1.9c2-4.1,5.8-3.1,9-3.3c2.2-0.1,4.5,0.1,6.7,0.6c4.7,1,5.3,1.2,5.5,6.1c0.1,6.4,0.4,12.8,0.8,19.2
	c0.1,2.2-0.2,2-2.7,2c-2,0-4,1-5.2,2.6c-1.4,2.1-3.3,3.5-5,5.2c-3.7,3.8-8.1,5.3-13.3,3.3C541.6,393.3,538.8,393.1,535.7,392.3z
	 M542.3,374.3c0.1,1.7-0.4,3.6-0.5,5.4c-0.1,3.1-2,5.8-2.2,8.9c-0.1,1.5,0,2.6,2,2.6c1.8,0.1,3.7,0.4,5.5,0.9c4,0.8,6.3-1,7-5
	c0.8-4.3,0.5-8.7,2.2-12.8c0.6-1.4,0-2.3-1.5-3.1c-3.6-1.9-7.5-2.6-11.2-3.9c-1.5-0.5-2.4,0.2-2,1.9S541.9,372.5,542.3,374.3
	L542.3,374.3z M558,387c2.9-2.2,4.9-5.5,8.4-7c0.7-0.3,0.8-1,0.8-1.7c-0.1-4.9-0.2-9.9-0.2-15c-2,0.6-3.9,1.7-5.3,3.3
	c-1.8,1.9-3.5,4-3.4,6.9c0,3.7-0.3,7.4-0.7,11.1C557.4,385.3,557.1,386.1,558,387z M545.8,364.6c3.4,1.7,6.8,2.4,10,3.4
	c0.8,0.3,2,0.6,2.6-0.3c2.1-2.8,5-4.8,7.8-6.9c0.6-0.3,0.9-1,0.8-1.7c-0.2-0.8-1-0.8-1.6-0.8c-1.6,0-3.2,0.1-4.8,0
	C554.7,357.8,549.8,359.5,545.8,364.6L545.8,364.6z"/>
<path class="st2" d="M426.7,374.4c7.3,9.2,6.5,21,10.8,32c2.7-6.1,6.2-11.2,7.8-17.2c0.3-0.9,0-1.8-0.7-2.4c-1.7-1.9-3.7-3.5-6-4.6
	c-3.2-1.5-5.7-3.8-8.3-6.2c-0.4-0.5-0.8-1.1-1-1.7c-0.1-0.4-0.1-0.7,0.1-1.1c0.4-0.5,1-0.3,1.5-0.2c0.3,0.1,0.5,0.2,0.6,0.5
	c3.4,4.3,8.7,6.1,12.8,9.4c0.5,0.4,1.2,1,1.7,1c3.1-0.2,2.8,1.9,2.4,3.7c-0.4,2.2-1.1,4.3-2.1,6.3c-2.4,4.5-4.8,8.9-7,13.4
	c-1.8,3.8-4.6,5.2-9,4.8c-6.1-0.5-12.2-1-18.2-2.1c-1.5-0.2-2.9-0.1-4.3,0.5c-1,0.5-2.2,0.1-2.8-0.8c-0.9-1.2-0.5-2.2,0.3-3.3
	c6.3-8.3,10.8-17.7,16.1-26.6c0.8-1.2,1.2-2.7,2.5-3.6c0.5-0.4,1.2-0.4,1.7,0.1c0.4,0.4,0.4,1.1,0,1.5c-3.3,5.7-6.4,11.6-9.9,17.2
	c-2,3.2-4,6.5-6,9.7c-1,1.5-0.7,2.4,0.7,2.5c7.2,0.6,14.2,2.4,21.5,1.5c2.8-0.3,3-0.3,2.1-3.1c-2.6-8.7-3.2-17.8-6.4-26.3
	C427.1,377.7,426.8,376,426.7,374.4z"/>
<path class="st2" d="M548.6,684.6c0-7.2,1.8-13.3,2.8-19.5c0.9-5.5,1.8-11,3-16.5c0.2-0.8,0.3-1.6,0.4-2.4s0.4-1.7,1.5-1.4
	c0.8,0.2,1.3,0.9,1.2,1.7c0,0,0,0.1,0,0.1c-0.3,2.4-0.7,4.7-1.3,7c-0.4,1.4-0.7,2.8-0.9,4.2c-0.9,5.9-2,11.8-3,17.6
	c-0.6,3-0.9,6-0.6,9c0.2,1.9,0.8,2.7,2.7,3.2c5.4,1.3,10.8,2.7,16.5,2.9c3.1,0.2,6.2,1.2,9.3,1.8c3.9,0.8,7.6,2.4,11.7,1.7
	c1.4-0.2,2.1,1,2.6,2.1c0.4,0.7,0.1,1.6-0.6,2c-0.4,0.2-0.9,0.2-1.3,0c-6.1-1.8-12.4-3.2-18.7-4.1c-3.4-0.7-6.8-1.1-10.2-1.3
	c-3.3-0.1-6.6-1.1-9.4-2.8c-1.2-0.8-1.5-0.8-2.4,0.6c-0.9,1.5-2.2,1.2-2.7-0.6C548.6,688.2,548.4,686.4,548.6,684.6z"/>
<path class="st2" d="M278.6,691.8c-0.1-0.4-0.2-0.5-0.1-0.6c0.4-1,1.3-1.7,2.4-1.7c0.1,0,0.4,0.5,0.3,0.7
	C280.9,691.6,279.7,691.5,278.6,691.8z"/>
<path class="st2" d="M457.1,877.4c0,0.9-0.4,1.2-1,1.2s-1.3-0.2-1.1-1.1c0.1-0.6-0.2-1.5,0.7-1.5S456.8,877,457.1,877.4z"/>
<path class="st2" d="M265.7,476.8c1.6-1.3,2.7,0.7,4.1,0.5c-2,2.6-2.8,0.1-4.1-0.6L265.7,476.8z"/>
<path class="st2" d="M657.3,908.7c8.5-0.4,15.1,6.4,16.2,12.7c0.5,3-0.2,5.8-1,8.6c-0.4,1.6-1.5,3.2,0,4.9c0.8,0.8-0.2,1.5-0.9,1.8
	c-5.5,1.8-10.7,4.5-16.5,5.7c-4.1,0.8-7.6-0.5-11-2.3c-1.1-0.7-2.2-1.6-3.1-2.5c-7-6.2-7-8.5-4.9-17.7c0.8-3.4,3.7-5.4,6.4-6.8
	c3.6-1.9,7.5-3.3,11.6-4.1C655.2,908.7,656.2,908.7,657.3,908.7z M670.4,925.5c0-2.4-0.5-4.8-1.4-7.1c-2.5-5.8-8.6-7.9-14-5.1
	c-2.4,1.3-2.6,3.6-3.3,5.6c-1.4,3.7,0,7.3,3.5,9.6c0.7,0.4,1.4,0.9,1.9,1.5c1.4,2.3,4,2.5,6,3.6c1,0.5,2.2,0.3,3-0.5
	C668.4,931.2,670,928.5,670.4,925.5L670.4,925.5z"/>
<path class="st2" d="M626.2,242.6c6.7,0.2,13,5.5,12.9,11.2c0.1,5-1.4,9.8-4.3,13.9c-0.6,0.7-1.2,1.4-1.7,2.2
	c-4.2,9-17.5,7.3-21.2,0c-1.4-2.6-2.4-5.3-3-8.2c-0.3-1.7-0.1-3.5,0.6-5.1c0.9-2,2.6-3.7,1.6-6.2c-0.1-0.3,0.7-1,1.1-1.6
	C615.1,245.6,622,242.4,626.2,242.6z M637.7,253.7c0-2.1-1.3-4-4.8-5c-1.7-0.6-3.5-0.4-5,0.6c-2.9,1.9-6.2,9.5-5.3,13
	c0.3,1.7,1,3.3,2.1,4.7c2.3,2.5,4.7,2.6,7.3,0.4C635.8,264,637.2,259.5,637.7,253.7L637.7,253.7z M628.7,244.9
	c2.5,2.1,2.9,2.2,3.2,1.4C631.2,245.3,629.9,244.8,628.7,244.9L628.7,244.9z"/>
<path class="st2" d="M113.2,761.9c-0.8-0.4-1.8-0.4-2.6,0c-2.9,0.7-5.6-0.3-8.1-1.4c-2.3-1-2.5-3.2-0.4-4.6c6.2-4.3,12.8-7,20.6-5.7
	c2.5,0.5,4.9,1.3,7.1,2.4c2.9,1.4,2.8,4.2,0.1,5.9c-2,1.3-4.3,2.1-6.6,2.3C119.8,760.9,116.4,761.5,113.2,761.9z M110.4,758.4
	c5.4,0.5,10.7,0.1,15.7-2.3C120.6,754.8,115.5,756.4,110.4,758.4z"/>
<path class="st2" d="M275.5,842.5c-7.5-0.1-11.3-5.8-11.5-11.8c-0.1-3.1,2.2-6.2,4.4-8.7c1.6-1.8,3.8-2.2,6.2-2.2
	c8.1,0.2,12.6,4.2,12.5,11.2c0,6.3-5.1,11.4-11.4,11.5C275.7,842.5,275.6,842.5,275.5,842.5z M283.8,830.8c0.3-2.3-0.5-4.7-2.2-6.3
	c-1.7-1.7-3.4-1.2-4.3,1c-0.8,1.9-0.5,4-0.5,5.9c0.2,2.2,2.1,3.9,4.3,3.8c2.2,0,2.3-1.9,2.7-3.3
	C283.8,831.5,283.8,831.1,283.8,830.8z"/>
</svg>
