<svg version="1.1" id="abstrakt-design-first-issue-1-04" xmlns="http://www.w3.org/2000/svg" x="0" y="0" viewBox="0 0 1000 1000" xml:space="preserve"><style>.st1{fill:#d1d3d4}.st2{fill:#1b1d21}.st3{fill:#ff4a59}</style><path d="M428.7 733.2l29.5 47.8 29.6-21.6v62.7h76.8v-62.8l8.5 24.1 31.5-55.1s-1.4-72.1-11.7-67.5-27.5 32.6-27.5 32.6l-20.9 36.4-26.6-50.3-89.2 53.7z" fill="#5d3edc"/><path class="st1" d="M534.4 380c-122.7-6.3-226.8 41.7-233 116s45.7 141.4 210.5 153.1c11.2.8 22.3 1.1 33.1.9-1.9-7.1-5.3-14-12.8-14.5-8.6-.6-17.3 2.4-25.9 2.9-13 .8-25.9-2.7-36.8-9.8-12.1-7.8-18.8-20-29.1-29.5-8.8-8-22-17.3-22.6-30.3-.1-2.3 1.7-4.1 3.7-4.8 15.6-5.7 28.6-15.9 42.2-25.2 11.2-7.7 20.3-17.6 30.3-26.7 8.4-7.6 17.5-15.7 28.5-19.3 9.7-3.2 20.2-3.6 30.3-2.5 23.3 2.5 46.9 11.5 65.3 26 13.2 10.4 21.1 24.8 26.6 40.5 2.2 6.2 4.6 14.5 1.4 20.8s-9.8 6.7-15.9 5.5c-9.5 17-20.5 31.6-38.6 40.4-5 2.3-10.3 4.3-15.6 5.7-5.1 1.5-8.9 4-9.6 9.5-.3 3.5-.3 7 0 10.5 97.6-7.2 173.2-53 178.5-116 6.2-74.4-40.1-144.5-210.5-153.2z"/><ellipse transform="rotate(-6.898 592.406 321.175)" class="st1" cx="592.2" cy="321.1" rx="73.1" ry="37.8"/><path class="st3" d="M830.9 178.2c2.3-.4 4.4.6 6.5.1 1.7-.4 3.4.6 5-.3.1-.1.3-.1.5 0 1.7 1.1 3.7 1.3 5.3 2.2 1.8 1.1 3.9 1.7 6.1 1.8 3.3.1 6.4.9 9.3 2.5.7.4 1.3 0 1.9.4 1.2.8 2.2 1.7 3 2.8 1.2 1.2 2.6 2.3 4.1 3.1 1.6.9 3 2.2 4 3.7 2.5 3.5 5.6 6.4 8.2 9.8.8 1 1.2 2.4 2.5 2.9.1 2.3 1.9 3.7 2.9 5.6 1 1.9 1.9 3.9 2.6 6 1.2 3.7 2.8 7.4 2.9 11.4-.1.6.2 1.1.6 1.5.2.1.5.3.5.5 0 2.9 2.1 5.1 2.5 7.9.4 3.2.9 6.4.4 9.7-.4 2.9-.4 5.9.2 8.8.3 1.9.3 3.9.1 5.8-.7 6-1.9 12-3.7 17.8-1.5 5.1-4.6 9.3-6.3 14.2-.4.9-1 1.8-1.8 2.4-2.2 2.3-3.5 5.1-5.2 7.8-.6.9-1.3 1.8-2.1 2.5-2.7 2.4-4.9 5.4-7.4 8-2.4 2.4-4.7 5-7.9 6.4-.9 1.8-3.6 1.7-4.1 4-.2 1.1-1.7 1.5-2.6 1.8-2.4.6-4.1 2.2-6.2 3.3-1.7 1-3.4 2.2-5 3.4-1.1.8-1.9 1.9-2.2 3.2-.5 2.1-1.3 4.2-2.2 6.1-1.1 1.9-1 4.4-.6 6.4.5 2.6.4 5.2.9 7.8.7 3.7 1.5 7.4 2.4 11.1 1 3.4-.3 7.1-3.2 9.1-1 .7-2.1 1.1-3.3 1.1-2.8.3-5.6 0-8.3.8-1 .3-2.1-.2-3.2-.4s-1.3-1.4-1.6-2.1c-.8-1.4-1.2-2.9-1.2-4.5 0-2-.9-3.8-1.5-5.6-.7-2.2-1-4.6-2-6.7-1.5-3-1.8-6.4-3.2-9.5-.6-1.4-1-3-1.1-4.5 0-1.5-.3-3.1-.6-4.6-.5-1.8-.6-3.7-.3-5.6.1-.7.3-1.4.7-1.9 1-1.3 1.3-3 .8-4.6-.6-1.9 0-3.3 2.1-4.4 2.4-1.3 4.5-3 7.1-4 1.3-.5 2.5-1.3 3.6-2.2 2.4-2 4.9-3.8 7.6-5.4 5.5-2.9 9.5-7.5 14.4-11.1 3.8-2.8 6.6-6.6 9.5-10.2s4.5-8.1 6.4-12.5c1.4-3.2 2-6.7 3.3-9.9 1.4-3.8 2.4-7.7 2.9-11.7.6-3.6 0-7.2-.2-10.8-.3-4.4-1.2-8.8-2.7-12.9-1-2.8-1.7-5.8-3.9-8.1-1.2-1.5-2.2-3.2-3-4.9-.3-.7-.8-1.4-1.3-1.9-2.1-1.7-3.9-3.8-6.3-5.2-1.9-1.1-4.1-1.6-5.8-3.2-.6-.5-1.5-.1-2-.4-1.2-.6-2.3-1.4-3.8-1-.3.1-.6-.1-.7-.5v-.1c0-.5-.2-.9-.6-.4-1 1.2-2 .7-2.8 0-.6-.5-1-.6-1.5-.1-.8.7-1.7.4-2.6.3-1.6-.1-3.2-.7-4.7.6-.4.3-1 .3-1.5.5-4.3 1.6-8.1 4.1-11.4 7.3-1.4 1.1-2.7 2.4-3.9 3.7-2.1 2.7-3.5 5.9-5.5 8.7-2 2.8-3.1 6.1-3.2 9.6-.4 2.8-.5 5.7-.5 8.6.3 3.3.3 6.7.8 10 .4 2.6 1 5.2 1.7 7.8.2.8 1.5 1 1 2.1-.3.9.1 1.9.9 2.4.5.4-.6 1.1-.1 1.7.5.8.9 1.6 1.3 2.4 1 1.5.8 2.4-.4 3.8-1.8 2.1-3.5 4.2-6.3 5-3.5.9-7 1.8-10.6 1.1-3.4-.7-6.7-1.9-8.6-5.3-.4-1.1-1.2-2-2.3-2.5-.3-.1-.5-.4-.6-.6-.3-1.9-2.1-3-2.8-4.8-.4-.7-.7-1.5-.9-2.4-.1-.4-.1-1-.4-1.1-1.7-.7-1-2.4-1.5-3.4-1-1.9-1-3.6-1.1-5.6 0-2.3-.4-4.6-1.3-6.8-.1-.5-.1-.9 0-1.4.1-5.5 1.1-11 1.4-16.5.1-2 .6-3.9.9-5.9.3-2.2.8-4.3 1.3-6.4.9-4.1 2.3-8.1 4.1-11.8 1.1-2.1 2.8-3.9 3.5-6.3.1-.3.4-.5.6-.7 2.1-1.8 4-3.7 5.8-5.8 1.5-1.6 2.5-3.6 4-5.2 1.7-1.9 3.7-3.6 5.8-5 1.5-.9 2.7-2.3 4.3-3.2s3.8-1.4 5.1-3c.1-.1.3-.2.4-.2 2.7-.1 4.9-1.7 7.6-2 1.5-.2 2.9-.6 4.2-1.2 1.8-.9 4-1.2 6.1-1z"/><path class="st2" d="M548.9 386c2 .4 4 .5 6 .6 1.3-.1 1.1 1.1 1.7 1.4s1-1.1 2-.4c2 1.2 3.6 1.3 6.3 1 .7-.2 1.5 0 2 .5.5.9 1.5 1.2 2.4.7l.1-.1c.7-.4.1 1.1 1 .9.4-.1.9-.6 1.5-.1 1.6 1.3 3.6 1.2 5.5 1.8.5.2 1.1.2 1.6-.1.4-.2.6-.2 1 .1 2.5 1.8 5.6 2.2 8.5 2.8.4.1.8.2 1.2.4.7.5 1.6.6 2.5.4.7-.3 1.6 0 2 .6 1 1 2.5 1 3.8 1.4 1.7.5 3.3 1.5 5.2 1 1.1 1.6 3.5-.4 4.4 1.7 1.4-.9 2.2.6 3.3.8.8.2 1.6-.8 2.3.2.2.3 1.5-.5 1 .8 0 .2.4.2.6.1 1.4-.6 2.8.1 4.2.2.4 0 1 .1 1 .8s.3.7.7.3c.6-.5 1.5-.5 2 .1.3 1.1 1.6.3 1.9 1.2.2.4.7.3 1 0s.3-.5.7-.6c1-.1.1 1.2.9 1.2.5 0 .6-1.3 1.3-.2 1 1.4 1.1 1.3 2.7.5.1-.1 1.2-.8.8.5-.1.3 0 .7.3.8.2.1.5.1.7-.1.6-.5 1.5-.4 2 .2.9.9 2.1 1.3 3.4 1.2.3 0 .8 0 .9.1.7 1.4 2 .9 3 1.1 2 .5 3.9 1.2 5.8 2 .4.2.8.4 1.3.5 1.5 0 2.9 0 3.6 1.7.2.6 1.2.7 1.9.7 2 .2 3.5 1.4 5.1 2.2 2.5 1.4 5.1 2.5 7.6 3.9 2.1 1.2 4.2 2.4 6.2 3.6 2.3 1.3 4.6 2.8 7.1 4 3.1 1.5 5.8 3.6 8.7 5.3 2.3 1.4 4.7 3 6.9 4.6 1.2.9 2.2 2.2 3.8 2.4.4.1.7.3 1 .6 2.1 2.1 4.4 4 6.9 5.6 1.2.8 2.3 1.8 3.3 2.8 3.8 3.7 7.6 7.4 11.3 11.3 4 4.3 7.5 9.1 10.2 14.3 3.2 6 6 12.2 8.4 18.5 1.6 4.5 2.9 9 3.9 13.7 1.3 5.3.4 10.5.3 15.8 0 3.9-.5 7.8-1.4 11.6-.5 2.2-1.5 4.4-2.2 6.5-.6 1.8-1.7 3.4-2.1 5.3-.2 1.2-.7 2.3-1.5 3.1-.8.7-.3 1.7-.8 2.5-1.3 2.2-3.3 4.1-3.8 6.8-.2 1-1.3 1.3-1.7 2.2-1 2.1-2.4 3.9-3.6 5.9-1.7 2.8-3.9 5.2-5.4 8.2-.1.2-.2.4-.4.6-4.2 3.3-7.2 7.7-11.2 11.2-.6.7-1.4 1.3-2.2 1.8-1.2.7-2.3 1.6-3.1 2.8-.6.8-1.5 1.3-2.5 1.5-1.5.1-2.7 1.1-3.2 2.5-.5 1.1-1.7 1-2.6 1.3-.7.2-1.4.5-2 .9-1.7 1.1-3.5 2-5.4 2.6-2.8 1.2-6 1.6-8.4 3.6-.3.3-.6.4-1 .5-2.5.3-4.8 1.2-6.8 2.7-.4.3-.8.5-1.3.5-2.3-.2-4.4.8-6.5 1.4-1.4.3-2.9.4-4.3.4-1.8 0-3.4.9-5.2 1.3-1.5.3-2.9.4-4.4.4-2.1 0-4.1.1-6.2.2-.5 0-1.1-.1-1.6-.2-2.7-.6-5.6-.5-8.3.3-1.7.5-3.2-.2-4.8-.5-1-.3-2.1-.4-3.2-.3-1.5.2-2.9-.2-4.2-1-.8-.5-1.2-.5-1.7.3-1.7 2.4-3.9 4.3-6.3 5.8-1.6.9-3 2-4.4 3.2-.7.7-1.8 1.6-3.1.8-.3-.2-.5-.1-.8.2-1.3 1.8-3.2 3.2-5.3 3.8-2.6.9-5.1 2-7.6 3.2-1.2.7-2.6 1-4 1-1.2-.1-2.7-.6-3.2 1.3-.4.6-1.1.9-1.8.8-1.5-.4-3.1-.1-4.4.9-1.2.7-2.7.5-3.7-.4-.8-.6-2-.4-2.6.4-.1.1-.2.3-.3.5-.3.8-.8 1.1-1.6.8-1.2-.4-1.4.4-1.4 1.2 0 .9.1 1.7.3 2.5.8 4.6 1.3 9.2 1.9 13.9.2.8.4 1.5.7 2.2.8 2.2.2 4-1.8 4.8-1 .4-2.2-.1-2.6-1.1-.1-.2-.1-.3-.1-.5-.1-.4-.1-.8-.1-1.2.6-3.5-.5-7-.7-10.5-.2-4.1-.8-8.2-.7-12.4 0-1.7.7-2.4 2.4-2.4 6.3 0 12.3-1.8 18.3-3.3.9-.3 1.8-.6 2.6-1 3.8-1.6 7.6-3.2 11.4-4.7 3.6-1.5 7-3.6 10-6 1.3-1.1 2.7-2.1 4.1-3.1 1-.7 1.7-1.6 2.2-2.7 1.8-2.7 3.2-5.7 4.3-8.8 1.4-4.9 2.1-9.9 2.1-15 .2-1.1.2-2.2.2-3.2-.2-1.5.8-2.2 1.8-3s1.9-.8 2.7.2c1.6 2 3.7 2.5 6.2 2.8 3.2.4 6.4-.3 9.1-2 1.6-.9 2.7-2.3 3.3-4 1.3-3.2 1.6-6.7 1.1-10.1-.3-1.7-.2-3.6-.8-5.3-1.2-3.3-2.7-6.2-6.1-7.8-2-1-4.1-.9-6.2-.9-2.2-.2-4.4.2-6.4 1.2-2.4 1.3-4.3 2.9-5 5.6-.2.9-.6 1.7-1.8 1.4-1-.3-1.5-1.2-1.3-2.2 0-.1 0-.2.1-.2 1.4-3.3 3-6.2 6.6-8.1 4-2.1 8.1-2 12.2-1.4 5.4.8 8.3 4.6 10.5 9.1 1.8 3.7 1.9 7.6 1.7 11.6-.1 1.8-.3 3.6-.5 5.4-.1.9-.3 1.7-.7 2.5-2.7 5.2-8.1 8.4-13.9 8.2-2.7 0-5.8.4-8.3-1.6-.6-.5-1 .1-1 .7-.3 2.4-.5 4.8-.5 7.2 0 1.9-.4 3.9-1.2 5.7-.5 1.6-.9 3.3-1.2 5-.5 2.2-1.6 4.1-3.1 5.7.9.8 2.1 1.1 3.2.8.5-.1 1.1 0 1.6.1 1.8.4 3.5.6 5.3.7 2.2.1 4.5.1 6.8 0 3.2-.1 6.4 0 9.6-.1 3.8-.2 7.6-.6 11.4-1.3 2.8-.5 5.5-1.2 8.3-1.6 3.5-.6 7-1.7 10.2-3.3 3.7-1.6 7.5-3.2 11-5.1 6.5-3.4 13.2-6.8 18.7-11.9 3.2-2.8 6.1-6.1 8.6-9.6.8-1.2 1.8-2.1 2.7-3.2 2.6-3.5 5-7.2 7.1-11 2.3-4 4.7-8.1 6.8-12.2 2.2-4.3 4-8.8 5.5-13.4.6-2.3 1-4.6 1.1-6.9.3-4.5 1-9 1-13.6 0-4.7-.7-9.4-1.9-13.9-1.5-6.1-4.2-11.8-6.8-17.4-2.4-5.5-5.3-10.8-8.7-15.8-1.3-1.8-2.8-3.5-4.4-5.1-2.5-2.8-5.2-5.4-8-7.9-.7-.6-1.2-1.6-1.9-2.4-2.2-2.3-5-4-7.4-6.1-3.5-3-7.2-5.7-11.1-8.2-5.2-3.4-10.4-6.9-15.8-9.9-6.5-3.6-13.1-7.1-19.6-10.7-2.7-1.5-5.5-2.6-8.4-3.4-2.4-.6-4.5-2-6.9-2.7-4.7-1.3-9.3-3.2-14-4.5-2.6-.7-5.3-1.5-7.9-2.2-2.4-.7-4.9-1.2-7.4-1.8s-4.8-1.1-7.2-1.5c-1.2-.1-2.3-.5-3.3-1.1-.6-.5-1.4-.8-2.1-.9-4.2-.7-8.2-2.3-12.3-3.4-2.5-.6-4.8-1.8-7.2-2.4-1.1-.5-2.4-.7-3.6-.7-1.5.3-3.1-.1-4.3-1.1-2.2.5-3.8-1.6-6.1-1.2-1.7.3-3.4-.1-4.7-1.2-.8-.6-1.9-.7-2.9-.3-.7.2-1.2.3-1.5-.4-.1-.2-.5-.3-.8-.3-2.3-.1-4.5-.4-6.7-.8-.5-.1-1.1-.1-1.6.1-.7.4-1.6.4-2.2-.2-.2-.2-.7-.3-.9-.2-2.4 1.8-4.8-1-7.1.1-1.5-1-3.3-.9-4.9-1.2-4.2-.9-8.5-.7-12.8-1.4-2-.3-4-.8-6-.2-.8.2-1.7.1-2.4-.4-1.1-1-2.5.4-3.5-.3-1.2-.8-2.2-.6-3.5-.1-.9.4-2.1.3-2.9-.3-.2-.2-.4-.3-.6-.4-1.3-.4-2.7.5-3.8.1-1.2-.6-2.5-.7-3.7-.4-1.5.4-3.1.4-4.7 0-2.2-.3-4.3-.4-6.5-.4-1.1 0-2.2-.4-3.4-.5-1.8-.2-3.4.5-5.2.4-.7 0-1.3-.5-2-.4-1.7.1-3.4-.6-5.2.3-1.1.6-2.7.2-3.9 0s-2.3.2-3.5 0c-.6-.1-1.4.6-2.2-.1-.3-.2-.6-.2-.9-.1-1.8.5-3.6.2-5.4.5-.8.1-1.5.3-2.2.6-.3.2-.5.5-1 .2-.9-.5-1.8-.8-2.2.7-.1.3-.5.3-.8.3-.7.1-1.4.1-2.1 0-1.5-.1-2.9-.6-4.2.4-.4.2-.8.2-1.1.1-4.2-.9-8 .7-12 1.3-.8.1-1 .8-1.4 1-1.1.5-2.4 1-3.7.3-.6-.3-1.3-.2-1.7.3-.6 1-1.9.3-2 .6-.6 1.4-1.4.4-2.1.4-.4 0-1-.3-1 .5 0 .2 0 .4-.2.4-.8-.1-1.7-.7-2.4.2s-1.4.7-2.3.3c-.4-.2-.9.1-1.4.5-.9.9-2.2 1.3-3.4.9-.2-.1-.5 0-.7-.1-1.2-.5-1.3 1.8-3 1-.9-.5-2.2.4-3 1.4-.2.2-.5.4-.8.4-4.4.4-4.3.5-7.6 2.5-1.9 1.1-3.9 1.9-6 2.6-.9.3-1.8.2-2.4 1.2-.2.4-.6.4-1 .2-.2-.1-.5-.3-.6-.1-1.7 2.2-5 2-6.6 4.4-.2.3-.6.5-1 .5-.6.1-1.2.4-1.6.9-1.2 1.7-3.2 2.2-4.8 3.3-2.3 1.7-5 2.8-6.9 5.1-.8 1-2.7 1.1-3.4 2.1-.7 1.1-1.6 2.1-2.7 2.8-1.5.8-2.8 2-3.7 3.4-.9 1.5-2.7 2-3.8 3.4-1.6 2-3.5 3.8-5.2 5.6-.9.9-2.1 1.4-2.6 2.6s-1.6 1.8-2.4 2.7c-.9 1.1-2.1 2.2-3.1 3.4-2.5 2.7-4.5 5.8-7 8.4-1.8 1.9-3 4.2-4.6 6.1-1.3 1.5-2.1 3.5-3.2 5.1-4.5 6.6-5.9 14.3-7.8 21.8-.6 2.5-.9 5.1-1.1 7.6-.7 7.3-1 14.6-1.1 22 0 4.9.5 9.8 1.4 14.6.8 4.4 1.6 8.7 2.5 13.1.5 2.4 1.5 4.7 2.2 7.1 1.3 4.3 2 8.8 3.7 13.1.9 2.6 2.2 5 3.7 7.3 1.2 1.7 1.9 3.7 2.9 5.5 2.4 4.3 5.5 8.3 9 11.8 2.4 2.2 5 4.1 7.5 6.2 1.4 1.2 3 2.2 4.6 3.1 1.1.5 2.2 1.2 3.2 2 1.1.8 2.4 1.4 3.7 1.8 1 .3 1.8.8 2.6 1.5 1.9 1.9 4.3 2.8 6.6 4 2.9 1.4 5.9 2.6 9 3.6 1.6.6 3.3.9 5 1.4 2 .5 4 .7 5.9 1.2 2.5.5 5 .9 7.6 1 3.6.2 7.2.6 10.7.9 1.3 0 2.6-.1 3.9-.2 3.1-.2 6.2 0 9.4-.3 4.2-.3 8.3-.4 12.5-.8 3.5-.3 7.1-.6 10.7-.8 1.1-.1 2.3.3 3.5.3h.5c1.2.1 2.2-.7 3.5-.4s1.2 2 2.7 2c-2.9 2-6.4 3.1-9.9 3.2-.8 0-1.7-.1-2.5-.2-3.6-.3-7.3-.1-10.9.5-1.6.2-3.1.3-4.7.2-6-.2-12 .8-18 .3-4.4-.4-8.8-.4-13.2-.8-4.1-.4-8.1-1-12.2-1.4-1.5-.3-3-.7-4.4-1.3-3.9-1-7.7-2.6-11.3-4.5-1.1-.7-2.2-1.4-3.2-2.2-3.7-3.1-8-5.2-12-7.7-6.2-3.7-11.8-8.2-16.6-13.5-1.9-2.3-3.6-4.7-5-7.3-1.9-3.1-3.7-6.3-5.3-9.6-2.1-4.5-3.8-9.3-4.8-14.2-.9-3.7-2.2-7.3-3.2-11s-1.5-7.8-2.2-11.7c-.4-2.2-.6-4.5-1.1-6.7-.3-1.8-.5-3.6-.5-5.4 0-8.5 0-17 .8-25.6.6-6.9 2.3-13.5 4-20.1 1.2-4.6 3.6-8.8 6.1-12.9 2.5-4.1 5.3-8.1 8.5-11.8 3.9-4.6 7.8-9.2 12-13.5 2.9-3 5.6-6 8.5-9 4.7-4.9 9.9-9.3 15.5-13.2 5.3-3.6 10.5-7.3 16-10.6 3.7-2.3 7.8-4 11.7-5.9 2-1 4.1-.9 6-1.6.7-.3 1.5-.1 1.8-1 .2-.5.6-.2 1-.2 1.3 0 2.7 0 3.6-1.3.2-.3.7-.4 1-.1.3.2.8.2 1.1-.1 1.2-1.2 2.8-1 4.3-1.1.3 0 .8-.1.9-.3.6-1.8 2.2-1.2 3.4-1.4 3.4-.6 6.9-.5 10.2-1.7 1.4-.4 2.7-.6 4.1-.8.9-.2 2.3-.2 2.4-.6.4-1.7 1.1-.3 1.6-.3.9 0 1.7-.2 2.5-.5.8-.2 1.7-.3 2.5-.4 4.6-.8 9.3-1 14-1.6 4.3-.6 8.5-.9 12.8-1.2 5-.3 10-.3 15-.1l15.9.5c2.9.1 5.9.2 8.8.4.8.1 1.6 0 2.3-.2.6-.3 1.4-.2 1.9.3 1.1.7 2.6.8 3.8.1.7-.4 1.1 0 1.6-.2 1.1-.4 1.3 1.1 2.1 1 .9-.1 1.5-.6 2.3-.5.2 0 .4 0 .5.1.2.3-.5.7-.1.7 1.7 0 3.5 1 5 .4 1-.4 2.1-.4 3.1-.2 0 .8-.8.1-1 .6 0 .2.1.2.3.2 1.6-.1 3.3.4 4.9-.1 1 1.1 2.5.3 3.6.8 1.5.7 3.2-.2 4.6.8.1.1.6 0 .6-.1.4-1.1 1.1-.7 1.6-.3 1.1 1 2.4.8 3.7 1 2.2.2 4.3.4 6.5.5.6.1 1.4-.2 1.9-.8zM305.5 491.3c.2-.6.2-1.3 0-2-.2.7-.2 1.4 0 2zm11.1 242.5c1.5 1.3 2.5 2.3 3.8 2.9 2.5 1.2 4.8 2.9 6.7 5 2.6 2.7 5.6 4.8 8.4 7.1s5.6 5.2 8.5 7.7c1.3 1.2 2.7 2.3 4.1 3.4 4.3 2.9 7.9 6.6 11.7 10 4.8 4.4 9.9 8.3 15 12.3 3.7 2.9 7.5 5.6 11.3 8.3 3.2 2.3 6.5 4.6 9.8 6.8.7.6 1.5.9 2.3 1 .6-.1 1.1.2 1.5.6.9 1.6 2.4 1.4 3.7 1.2 2.3-.4 4.5-1.2 6.4-2.5 3.5-2.4 6.1-5.6 9-8.6 1.9-2 4-4 6-5.9 3.1-2.9 6.8-5.3 9.1-9 .3-.5.8-1 1.4-1.2 1.5-.8 2.9-1.9 4-3.2 4.2-4.4 8.7-8.4 13.5-12.1 1.1-.8 2.1-1.8 3.2-2.7.5-.4 1.1-.7 1.7-.1.5.4.6 1.2.2 1.7-.2.4-.5.8-.8 1.1-1.6 1.4-3.1 3.1-5 4.2-.4.2-.8.5-1.1.8-4 4.3-8.5 8-12.7 12l-2.3 2.3c-2.4 2.7-5.2 4.8-7.8 7.3-2.4 2.3-4.7 4.8-6.8 7.4-2.4 3.1-5.1 6.1-8 8.8-1.5 1.3-3.1 2.3-4.9 3-.9.4-1.8 1-2.7 1.3-2.1.6-4.2 1.6-6.5.6-.6-.3-1.3-.5-2-.6-.6-.2-1.3-.4-1.4-1.1-.3-1.5-1.5-2.4-2.5-3.3-3.3-2.9-6.7-5.6-10.2-8.2-2.7-2-5.3-4.1-8-6.1s-4.8-4.3-7.4-6.1c-3.9-2.7-7.1-6.3-11.1-8.9-1.5-1.1-2.8-2.4-4-3.8-1.7-1.8-3.7-3.3-5.8-4.6-1.6-1.1-3.1-2.4-4.5-3.7-2.3-2.1-4.5-4.3-6.9-6.3-3.1-2.6-6-5.6-9.2-8.1-3-2.4-5.9-5-9.3-6.8-1.5-.7-2.9-1.6-4.2-2.7-.4-.3-1-.4-1.6-.3-1.7.1-3.4.2-5.1.5-4.6.6-9.3.5-13.8 1.8-2.5.7-5.1 1.3-7.7 2-2.3.5-4.6 1-6.9 1.2-4.2.6-8.2 1.8-12.3 2.8-3.9.9-7.8 1.5-11.6 2.5-5.3 1.4-10.8 1.6-16.1 2.8-.8.2-1.5.4-2.2.6s-1.3.5-1.8-.4c-.1-.2-.4-.3-.7-.1-.1 0-.1.1-.1.1-.7 1.1-1.4.5-2.4.4-1.3-.1-2.5.3-3.6 1-.9.6-2 .9-3.1.8-2.1-.2-4.2 0-6.3.5-3.5 1-7.1 1-10.6 1.6-2.4.5-4.8.6-7.2.2h-.5c-2.9.6-5.4-1.2-8.1-1.5-.5 0-.8-.5-1.2-.8-1.2-1-2.3-2.2-4-2.2-.3 0-.6-.2-.8-.5-.8-1.8-2.7-2.2-3.9-3.6-.9-.9-2.1-1.5-3.3-1.9-.8-.3-1.5-.8-1.9-1.6-1.4-2.5-3.2-4.7-5.2-6.8-1.9-1.8-3.6-3.9-5.4-5.8l-6.3-6.6c-.7-.7-1.3-1.5-1.8-2.5-.6-1.5-1.3-3-3.1-3.7-.3-.1-.5-.5-.8-.9-3.8-5.3-7.9-10.5-11.5-15.9-.9-1.3-2.4-2.3-3.1-3.8-1.5-3-3.5-5.6-4.8-8.7-1.1-2.5-2.3-4.9-3.3-7.5-1.7-4.6-2.9-9.3-2.6-14.3 0-.2-.1-.5 0-.7 1.4-1.9 1.1-4.4 2-6.5.4-1 1.3-1.8 2.3-2 1.9-.7 4-.5 5.8.6 3.4 2.1 6.7 4.1 9.4 7.2 1.3 1.5 3 2.8 4.3 4.2 2.7 2.8 5.2 5.8 7.4 9 .6.9 1.3 1.7 2.1 2.5 1.7 1.5 3.1 3.3 4.4 5.2.9 1.6 2 3 3.3 4.2 2 1.9 3.3 4.3 5.1 6.3 2.5 3 4.7 6.1 6.7 9.5 1.7 2.8 3.3 5.7 5 8.5.5.7.7 1.6.5 2.4-.1.6-.7 1.1-1.3 1.2-.6.1-1.1-.2-1.4-.7-2-3.4-4.7-6.4-6.4-10-1.3-2.5-2.9-4.7-4.8-6.7-3.9-4.4-7.1-9.3-10.8-13.8-4.5-5.5-8.8-11.2-13.7-16.3-2.8-3-5.9-5.7-9.2-8.2-.5-.4-1-.7-1.6-.8-2.8-.9-4.2.2-4.8 2.8-1 3.8-.9 7.8.3 11.6.1.2 0 .6.1.7 1.5.8.8 2.2 1 3.3 0 .2-.1.4 0 .5 1.5 1.7 1.4 4.2 3 5.8.6.6.2 1.7 1 2.3.7.6 1.1 1.3 1.1 2.2.1 1.1.9 2.1 1.9 2.5 1 .3 1 1.3 1.6 1.9 2.3 2.3 3.7 5.2 5.9 7.7 1.7 1.9 3.2 3.9 4.6 6 1.3 1.8 2.3 3.8 3.2 5.8.5 1.3 1.1 2.6 2.6 3.1.5.2.8.7 1.1 1.2 1.8 2.9 4 5.5 6.5 7.8 1.7 1.5 3.2 3.2 4.3 5.1.8 1.4 1.9 2.5 3.3 3.3 2.1 1.3 3.5 3.2 5.3 4.7 1.7 1.3 2.7 3.5 5 4 .9 1.7 3 2.1 4.2 3.6.5.6 1.1 1.1 1.9 1.3 1.5.3 3 .5 4.2 1.7.1 0 .1.1.2.1 2.6-1 5 .8 7.6.4 1.9-.3 4 .2 6-.1 5.6-.8 11.3-1.3 16.9-2.2s11.3-2.2 17-3.3c.2-.1.4-.1.7-.2 4.9.3 9.5-1.7 14.3-2.2 2.2-.4 4.4-.9 6.6-1.5 4.6-1.1 9.2-2.2 14-2.9 3.3-.5 6.5-1.2 9.6-2.1 2.5-.8 5.1-.9 7.5-1.7 3.1-1 6.4-.3 9.5-.9 2.9-.6 6-.2 8.8-1 1.4-.4 2.7.5 4.1.3.7-.1.9.7.5 1.2 0 .8-.6 1.2-1.2 1.5zm472.6-147.4c-1.2-.1-1.6-.8-1.1-1.8 1-2.5 2.3-5 3.8-7.3.4-.6.7-1.9 2.1-1.3.3-.4.5-.9.6-1.4-.1-2.2 1.3-3.7 2.2-5.5.3-.5.8-.8 1.4-.8.6-.1 1-.2.7-1-.2-.5.1-.9.7-.9.7-.1 1.3-.6 1.5-1.3.5-2.2 2.3-4 4.5-4.4.4-.1.7-.4.8-.8.3-.8 1-1.4 1.9-1.5.5-.1 1-.5 1.3-1 1-1.7 2.9-2.7 4.8-2.5 1.1-.1 2.1-.5 3.1-1 1.7-.7 2.9-.1 4.2 1.1 2.7 2.5 3.3 5.7 3.3 9.1 0 3.1-.3 6.2-.8 9.3-.1.7-.1 1.4-.1 2.1 0 5-.8 9.9-2.3 14.7-.9 2.5-1.5 5.1-2.5 7.7-1.8 4.7-3.2 9.5-4.7 14.3-.9 3-2.1 6-2.6 9.1-.3 1.4-.8 2.8-1.5 4.1-.4 1-.7 2.1-.9 3.2-.3 1.3-.8 2.6-1.3 3.9-.7 2.5-2.4 4.5-2.8 7.1-.4 1.8-1 3.4-2 5-1.7 2.9-2.7 6.1-4.1 9-1.3 2.6-2.6 5.2-4 7.7s-3.8 4.5-5 7.3c-.2.3-.4.5-.7.6-2.9 1.7-5.4 4-8.9 4.4-.8 1.2-2.4.6-3.5 1.4s-2.4.2-3.6.5c-2 .5-3.9 1.1-5.8 1.8-2.2.9-4.4 1.8-6.8 1.8-2.1 0-4.1.9-6.3.6-.3 0-.6 0-.9.2-2.3 1.5-4.9 1.5-7.5 1.6-.4 0-.8 0-1.1.2-1 .8-2.4 1-3.5.5-.7-.2-1.2.2-1.8.3-3 .7-5.9 1.5-8.8 2.2-.9.2-1.9.2-2.8 0-4.7-.3-9.5.2-14 1.5-2.1.5-4.2 1.5-6.5.9-1.1-.2-2.2-.1-3.2.3-2.8.7-5.8.1-8.6 1-.7.2-1.4.2-2.1 0-3.4-.4-6.7.5-10 .6-3.2 0-6.3.3-9.4.6-2.3.1-4.5.4-6.8.9-1.3.3-2.7.2-4 .4-.9.1-1.7-.3-2.3-1-.4-.4-.8-.9-.5-1.5.2-.5.8-.8 1.4-.7 3 .6 5.9.1 8.8-.2 4.3-.5 8.7-.6 13-1.2 2.5-.3 5-.5 7.5-.4 3-.2 6-.5 9-.9 2.3-.3 4.7-.3 7-.4 3.6-.2 7-1.3 10.6-1.7 2.7-.4 5.4-.7 8.1-.8 5.8 0 11.5-.8 17.1-2.4 2.3-.6 4.6-1 6.9-1.3 1.2-.1 2.3-.3 3.4-.7 3.3-1.1 6.7-1.5 10-2.2 3.7-.9 7.5-1.5 11-3 2-.8 4.2-1.1 6.1-2.1 2.4-1.3 4.5-3.2 6-5.4.5-.8 1.1-1.5 1.8-2.2.9-.9 1.6-1.9 2.1-3.1 1.1-2.4 2.7-4.5 4-6.8 1.6-3.2 3.1-6.5 4.3-9.8 1.4-3.2 2.7-6.5 4.1-9.7.7-1.1 1.1-2.4 1.1-3.8 0-.2 0-.5.1-.7 2.8-3.3 3.4-7.6 5-11.4 1.8-4.1 3.1-8.3 3.8-12.7.2-1.7 1.6-3.2 2.1-4.9.7-2.5 1.7-5 2.4-7.5.4-1.1.8-2.2 1.1-3.3.8-5.2 1.3-10.5 1.5-15.8.1-.9.3-1.8.8-2.6.7-1.5 1-3.1.7-4.7-.2-.9-.2-1.9 0-2.8.2-.8.1-1.5-.2-2.3-.5-1.8-1.2-3.8-3-4.1-2.5-.4-5.1-.3-6.9 2.1-.1.2-.3.5-.5.5-2.5 0-3.8 2.1-5.5 3.3-1.2 1-2.2 2.1-3.1 3.4-1.9 2.3-3.6 4.7-5 7.3-.9 1.6-2.2 3.1-3.2 4.8-.6 1-1.3 1.8-1.3 3.1-.1.6-.4 1.2-.8 1.6-1.1 1.3-2 2.8-2.5 4.4-.4 1.5-1.1 3-2 4.3-.5.7-.8 1.6-.7 2.4.1 1.2-.3 2.3-.9 3.3-.7 1.3-1.5 2.5-2.4 3.7-1 1.3-1.3 2.8-2.1 4.2-2.1 3.7-3.9 7.6-5.8 11.4-.8 1.8-1.3 3.7-2.2 5.4-1.8 3.5-2.5 7.4-4.3 10.8-.8 1.5-.9 3.3-2.4 4.4-.6.5-1.1 1.2-2 .5-.7-.5-1-1.5-.5-2.2.7-1.8 1.7-3.5 2.3-5.3 1.3-3.5 3.2-6.7 4.7-10.1 1.9-4.4 3.9-8.8 6.2-13 .5-1 .7-2.2 1.8-2.9.2-.1.2-.5.3-.6.8-.9.5-2.2 1-3.3s1.6-1.2 2-2.3c.3-.6.5-1.2.6-1.9-.1-1.5.1-2.8 1.6-3.5.3-.1.4-.4.3-.7v-.1c-.7-1.8.8-3 1.2-4.5 0-.2.3-.5.5-.3 1.1.8 1.2-.7 1.8-.8.1-.2.1-.4.2-.6 0-.4.8-.5.4-1.1-.1-.1-.2-.1-.4-.1-.7.2-.6.8-.5 1.3.3.2.5.5.7.7z"/><path class="st2" d="M601.2 760.7c.8-2.5 1.2-5.1 1.5-7.8.3-3.1 1.5-6 2.2-9.1.8-3.4 1.8-6.8 2.6-10.2 1.4-6.8 3.2-13.5 5.4-20.1 2.1-6 3.8-12.2 5.7-18.3 2.2-6.9 4.6-13.8 7-20.6 1-2.8 2.1-5.5 3.1-8.3.7-1.8 1.1-3.8 3.1-4.8.5-.3.8-1 1.1-1.5 1.7-2.8 4.5-4.8 7.7-5.5 6.4-1.4 12.9-2.3 19.4-2.7 5.8-.5 11.6-1.4 17.4-2.4 3.8-.7 7.7-1 11.6-1.3 3-.2 6.1-.6 9.1-.9s5.9-.7 8.8-1.2c2.2-.4 4.5-.3 6.8-.7 3.6-.6 7.2-1.3 10.9-1.6 5-.5 9.9-1.8 15-2.3 5.6-.6 11.2-1.2 16.8-1.7.5 0 1.1 0 1.4-.2 2.2-1.8 4.1-.2 6.1.3.3.1.5.4.5.7 0 .4-.3.5-.6.6-1.5.3-2.9 1-4.6 1-2.8 0-5.6.2-8.4.4-4.3.4-8.5 1-12.8 1.3-1.8.2-3.5.7-5.3.9-6.9 1.1-13.9 2-20.8 2.9-5.4.7-10.8 1.7-16.2 2.5-1.8.3-3.7.5-5.6.6-4.5.3-8.8 1-13.2 1.7-4.7.8-9.4 1.3-14.1 2.3-2.8.5-5.6.8-8.4.8-3.1.2-6.1 1.1-9.2 1.7-1.6.2-3.2.7-4.7 1.4-1.5.8-2.9 1.8-4 3.1-2 2.5-4.4 4.8-5.7 7.8-.2.6-.4 1.3-.4 2-.6 2.6-1.5 5.2-2.9 7.5-.6 1.2-1.1 2.5-1.5 3.8-.7 2.5-1.8 4.9-2.2 7.5-.2.5-.4 1.1-.7 1.5-.6 1.2-1 2.6-1.2 4 0 1.6-.5 3.2-1.4 4.6-.5.7-.1 2-.8 2.7-1.6 1.7-1.7 4-2.4 6-.1.2-.2.4-.2.7.3 2.9-.9 5.6-1.7 8.3-1.4 4.7-2.4 9.5-3.4 14.3-.8 3.7-2.3 7.1-3.2 10.8-.1.6-.5 1.2.2 1.6.2.1.3.8-.1.7-1.6-.3-1.5 1.1-1.5 1.8-.2 2.8-.8 5.5-1.8 8.1-.8 2.2-1.8 4.4-2.9 6.5-1.7.6-1 1.9-1 3 0 .3.1.6 0 .9 0 .7-.5 1.4-1.2 1.5-.7 0-1.4-.5-1.5-1.2-.2-.6-.2-1.2-.2-1.9.4-3.3-.5-6.5-.7-9.8-.2-3.8-1-7.4-1-11.2-.1-1.7-.3-3.4-.6-5.1-.9-5.6-1.1-11.2-1.7-16.8-.4-4-.9-8.1-.9-12.1-.1-5.8 0-11.7-.2-17.5-.2-4.1-.5-8.2-.7-12.4-.1-1.8 0-3.6-.1-5.4 0-2.9-.5-5.7-1.4-8.4-.6-2-2.5-3.3-4.6-3.1-1.1 0-1.2-.6-1.5-1.1s.2-1.2.7-1.6c2.2-1.3 5.1-.9 6.9.9 1.9 2.2 3.1 5 3.3 7.9.3 5.1.4 10.1.3 15.2 0 2.1.4 4.2.4 6.2.1 6.2 0 12.5 0 18.7 0 3 .4 5.9.4 8.9 0 5.5.4 10.9 1 16.4.6 5.5.9 11 1.8 16.5.6 3.5.7 6.9 1 10.3zM438.9 582.4c-.1 1-1.2 2 .2 2.9.5.3-.4 1.3 0 2 .2.4.2.9.4 1.3.1.1.9-.8.8.3-.1.4-.4.9-.4 1.3.1.5.2.9.4 1.3s.3.9.4 1.3c.1.5.4 1 .6 1.5.2.4.2.9.3 1.4s.4.8.6 1.3c1.2 3.6 3.3 6.7 5.2 9.9 2.3 3.7 4.9 7.1 7.9 10.3 4.9 5.6 10.2 10.8 17 14 5.3 2.7 10.9 4.5 16.8 5.6 2.5.4 4.9.8 7.4 1 4.5.5 8.9-.2 13.3-.5s8.7-1.2 13-1.6c3.5-.3 6.8-1.5 10.3-2.1 2.1-.3 4.1-.9 6.1-1.4 1.2-.2 2.2-.8 3-1.7.3-.4.7-.7 1.2-.5.7.2.6.9.6 1.4 0 1.8-.7 2.5-2.7 2.8-3.8.5-7.5 1.5-11.2 2.4-.6.1-1.1.5-1.5 1-.9 1.1-1.4 1.1-3 .5-.3-.1-.6-.1-.9-.1-2.7.7-5.6.1-8.2 1.7-1.2.6-2.5.9-3.8 1-6.5.8-13 1.6-19.6.9-2.5-.3-4.9-.8-7.4-1.4-5.4-1.3-10.6-3.1-15.5-5.6-3.8-1.9-7.5-4.2-10.8-6.9-1-.8-1.6-1.9-2.5-2.8-5.1-4.5-9-10.1-13-15.6-.4-.6-.7-1.2-.9-1.9-1.2-3.2-2.6-6.4-3.9-9.5-1.5-3.7-2.3-7.6-2.3-11.6-3.4 3.8-7.8 3.5-12 3.7-1.5.1-2.4-1.4-3.4-2.3-.7-.6-1.4-1.2-2.2-1.7-1.5-.9-2.7-2.1-3.5-3.6-2.4-4.1-2.7-8.2-1.6-12.8.7-2.4 1.5-4.7 2.5-7 .3-.9.9-1.7 1.7-2.2 2.2-1.4 4.4-3.2 6.9-3.9 2-.5 4-.5 6 0 1.9.2 3.8.6 5.7 1.1.9.3 1.9.1 2.7-.6.7-.5 1.5-.9 2.1-1.5 3.8-3.2 7.9-6.2 10.5-10.6.5-.8 1.2-1.4 1.9-2.1 2-2.2 3.9-4.6 5.6-7 1.9-2.6 3.6-5.3 5.5-7.8 2.8-3.9 4.7-8.3 6.6-12.6 1.7-3.9 3.5-7.8 5.2-11.8.6-1.6 2.4-2.2 3-3.9.2-.5.6-.2.9.1.2.4.2.9 0 1.4-.6 1.4-1.2 2.9-1.9 4.2-1.4 2.7-2.9 5.3-3.2 8.4-.2.7-.5 1.3-.8 1.9-1.4 3.2-2.6 6.3-4.1 9.4-1 2.1-2.7 3.8-3.9 5.8-2.6 4.5-6 8.5-9.3 12.5-2 2.3-3.8 4.7-5.4 7.3-1.3 2.1-3 4-5 5.5-2.3 1.8-4.7 3.5-7 5.3-.8.8-2.1.9-3 .4-1.5-.9-3.4-1.3-5.1-1-.8.2-1.2-.6-2-.5-2.8.3-5.6.6-8 2.6-2 1.7-3.3 3.9-3.9 6.4-.2.4-.3.9-.2 1.4.5 2.4.3 5 1.1 7.4l.3.9c2.5 3.5 5.7 5.8 10.1 6 .3 0 .6-.1.9-.2 2-1.2 4.6-1 6.6-2.2.1-.3 1-.4 1.8-.3z"/><path class="st3" d="M826 408.5c.2-5.8 2-10.3 6-13.8 1.6-1.3 3.3-2.4 5.1-3.5 1.1-.7 1.9-1.9 3.4-2.2 2.2-.4 4.3-.7 6.4.1.6.2 1.2.3 1.8.4 4.5.6 7.9 2.6 9.4 7.2.5 1.4 1.4 2.7 1.7 4.2.6 3.7 1.6 7.5.3 11.1-1.2 3.4-2.3 7-5.8 9.2-2.6 1.5-5.5 2.5-8.4 2.9-2.1.5-4.3.4-6.5-.1-4.3-1.2-8.2-3.2-10.8-6.8-1.6-2.5-3.2-5.7-2.6-8.7z"/><path class="st2" d="M644 336.2c-.4-1.1.8-1.3.5-2.1-1.3.7-1.9 1.1-1.6 1.9.4.9-.1 1.3-.6 1.8-3.7 4.2-8.1 7.9-12.8 10.9-4.2 2.6-8.6 4.7-13.2 6.3-5.8 2.2-11.7 4.3-17.5 6.5-2.7.8-5.4 1.4-8.2 1.8-7.4 1.4-15 1.3-22.4.8-4.5-.3-9.2-.3-13.6-1.5-1.5-.3-3.1-.4-4.6-.4-3.5-.5-7-1.3-10.5-2.3-4.8-1.3-9.3-3.3-13.5-5.8-3.1-2-5.8-4.4-8.2-7.2-.9-1-1.8-2-2.7-3.1-2.1-3-2.5-6.2-2.6-9.7 0-1.6.5-3.2 1.3-4.6 1.5-3 3.9-5.3 5.7-8 .2-.4.6-.8 1-1 3.7-2 7.4-3.9 11.1-5.9.6-.3 1.3-.6 2-.8 6.3-2.4 12.8-4.4 19.4-5.9 3.2-.8 6.5-1.3 9.9-1.6 3.3-.2 6.7-.1 10-.3 3.1-.2 6.2-.2 9.3-.6 1.9-.2 3.9-.1 5.8-.2 5-.2 10-.7 15-.5h.9c3.4-.7 6.8-.2 10.2.2 3.9.6 7.9.1 11.8 1 4.1-.8 7.8.9 11.7 1.6 4.1.8 7.7 3 10.2 6.4.2.2.4.5.4.8.8 3.4 1.5 6.9.4 10.4-.6 1.8-1.1 3.7-1.4 5.6-.3 2-1.7 3.7-3.2 5.5zm2.2-15.6c0-2.9-.2-3.4-1.1-4.9-1.8-3.1-4.9-4.5-8-5.6-4-1.4-8.3-1.9-12.5-2.8-.4-.1-.8-.1-1.1 0-1.1.7-2.1.2-3.1-.1-.8-.2-1.5-.2-2.3-.1-2.5.3-5.1.2-7.5-.3-2.9-.5-5.9-1.1-8.8-.2-2 .6-3.9 1.2-5.9.2-.2-.1-.5-.1-.7 0-1.7.6-3.5-.6-5.2.4-2.1-.7-4.2-.1-6.4 0-2.9 0-5.8.3-8.8.4-.6 0-1.2.2-1.8.4-1.6.7-3.4.7-5 .2-1.1-.3-2.3-.4-3.5-.2-.7.1-1.3.2-1.9.4-2.1.6-4.4-.1-6.3 1.3-.3.2-.7.3-1.1.2-1.9-.2-3.9.1-5.6 1.1-1.3.6-2.8 1-4.3 1.1-1.5.1-2.7.8-4.1 1-1.1.1-2.1.6-3 1.2-1.9 1.6-4.1 2.5-6.6 2.7-2.8.5-5.5 1.8-7.6 3.8-1.7 1.5-3.3 3.3-4.7 5.2-3.1 4-5.3 8.1-2.8 13.5 2.1 4.3 5.1 7.9 9 10.7 3.1 2.4 6.9 3.8 10.5 5.4 4.6 2 9.6 2.9 14.5 3.8 4 .9 8 1.2 12.1 1 .4 0 .8 0 1.2.1 3.6.3 7.2 1.2 10.9.5h.7c2.9 0 5.9.4 8.8-.1 2.7-.4 5.5-.4 8.1-1.1 5.7-1.5 11.4-3.3 16.9-5.5 4.4-1.7 8.8-3.6 13-5.7 2.1-1 4.2-2.3 6.1-3.7 1.5-1 2.8-2.3 4.3-3.1 3.7-2.1 6.5-5.1 9.3-8.1 1.7-1.5 2.7-3.7 2.8-6 0-.4 0-.8.2-1.1 1.3-2 1.1-4.2 1.3-6zm-30.3 32.9c-1.8-.8-2.2.7-3.3 1.3 1.2 0 2.3-.5 3.3-1.3zm-11.6 4.3c-.8.1-1.8-.6-2.3.5 1 .8 1.5 0 2.3-.5zm16.3-6c-.6-.3-1.2-.4-1.6.3-.1.1-.1.3.1.4.6.2 1-.1 1.4-.5 0-.1 0-.2.1-.2zM598 360c.1-.1.1-.3-.1-.3-.5-.2-.8.1-1.2.4s0 .4.2.4c.4.1.9-.1 1.1-.5zM396.5 789.2c-1.5-.3-3.6-.2-5.2-1.9-1.1-1.2-2.7-1.6-4-2.7-5-3.9-9.7-8-14.3-12.4-2.3-2.2-4.7-4.2-7.1-6.1l-1.8-2.1c-1.8-1.7-3.9-3.1-5.6-4.9-2.4-2.4-5.3-4.2-7.5-6.8-2-2.1-4.2-3.9-6.6-5.5-2.1-1.5-3.9-3.4-5.1-5.7-.4-.7-1-1.5-.4-2.3.4-.6 1.7-.3 2.7.6 1.2 1.2 2.1 2.7 3.5 3.8.2.2.4.5.7.6 3.6 1.8 6.2 4.9 9.1 7.5s6.2 5.4 9.2 8.2c2.2 2.1 4.3 4.3 6.4 6.6.8 1.1 1.9 1.8 3.2 2.3 2.3.5 3.5 2.2 4.9 3.7s2.5 2.9 4.5 3.6c1 .5 1.8 1.2 2.5 2.1 1.3 1.4 3 2.5 4.9 3 .5.1.9.3 1.2.6 1.5 1.8 3.7 1.8 5.6 2.5.8.2 1.6.2 2.3-.1 2-.6 3.9-1.7 5.4-3.2 2.3-2.4 4.7-4.7 6.9-7.3 2.3-2.8 5.2-5.2 7.5-8 2.1-2.4 4.4-4.6 7-6.5 1.9-1.3 3.5-2.9 4.8-4.7.4-.6 1-.7 1.5-1.1 1.1-.8 2.6-1 3-2.7.1-.4.6-.6 1.1-.8 1.1-.3 2.3-.8 2.2-2.3 0-.1 0-.2.1-.2 2-1.2 2.7-3.9 5.1-4.5.5-.2 1-.5 1.3-.9 1.2-1.3 2.7-2.3 4.2-3.1 1.8-1 3.9-2.4 4.4-4.8 0-.2.1-.5.3-.6 1.9-1.8 3.1-4.2 5.3-5.8 1.3-1.1 2.7-2 4.3-2.6 1-.3 1-1.6 1.8-2.1.1-.1 0-.5.3-.6 2.9-.7 3.9-3.6 6.1-5.2.9-.8 2-1.5 3.1-2 1.1-.4 1.9-1.1 2.5-2.1 2-3.5 5.9-4.7 8.7-7.3.9-.8 2-1.5 2.3-2.9.1-.7.8-1.1 1.5-1.4 1.1-.5 2-1.2 3.1-1.7 1.1-.4 1.9-1.4 2.2-2.5.6-1.5 1.9-2.5 3.4-2.9.7-.2 1.4-.3 2-.5 1.4-.3 2.5-1.4 2.9-2.8.5-1.8 1.9-2.3 3.5-2.3.8 0 1.1-.1 1.3-.9.5-1.5 1.8-2.5 2.5-3.8s1.8-2.3 2-3.9c.2-1 1-1.7 2-1.7 1-.2 2.1.3 2.6 1.2 1.4 2.1.8 3.6-1.6 4-.6 0-1.2.3-1.6.7-1.9 2.4-4 4.5-6.3 6.5-.3.2-.6.5-.9.8-1.1 1.5-2.6 2.8-4.3 3.5-1 .5-2 1.2-2.7 2.1-1.2 1.4-2.7 2.6-4.3 3.6-.8.5-1.5 1.1-2.1 1.8-1.3 1.5-2.9 2.8-4.7 3.9-1.5.9-2.8 2-3.9 3.2-1.5 1.7-3.1 3.3-4.9 4.7-4 3.2-7.9 6.6-11.7 10-1.1 1-2.5 1.6-3.7 2.5-2.6 2-5 4.4-6.9 7.1-.9 1.1-1.9 2-3 2.9-3.7 2.9-7.2 6-10.4 9.3-2.3 2.5-4.9 4.6-7.2 7-1.7 1.9-3.7 3.5-5.7 5.1-1.4 1.2-2.7 2.5-4 3.9-3.1 2.9-5.8 6.1-8.6 9.2-4 4.5-8.4 8.6-12.6 12.8-1.9 1.7-4 3.2-6.3 4.5-.9.8-2.2.9-3.9.8zm105.3-203.8c1.7.1 3.4-.2 5.1-.7 2.2-.5 4.4-.4 6.6-.9 4.4-1 8.7-2.4 12.9-4 2-.7 3.7-2.1 5.7-2.8.7-.2.8-.9 1.2-1.4 1.4-2.4 3.6-2.7 5.5-.6 1.2 1.2 2.6 2.2 4.2 3 .7.5 1.6.3 2.1-.3 1.2-1 1.7-2.4 2.5-3.7s.1-2.3-1.1-2.8c-.5-.2-1.1-.3-1.6-.4-.9-.3-1.1-.8-.5-1.6.8-1.4 2.6-1.9 4-1.2.1 0 .2.1.2.2 1.4 1 2.5 2.4 3.3 3.9.7 1.2 0 2.7-.6 3.8-1 1.9-2.5 3.6-4.2 5-1.7 1.4-4.1 1.6-5.9.4-1.2-.8-2.6-1.2-4-1.1-.3 0-.7 0-.9-.1-1.3-1.3-2.5-.3-3.5.4-1.2.7-2.4 1.3-3.7 1.8-4.3 2.2-9 3-13.5 4.2-3.9 1.1-7.8 1.5-11.7 2.2-2.8.6-5.7.1-8.1-1.4-1.4-.6-2.2-2.2-1.8-3.7.1-1.3.6-2.4 1.4-3.4 2.2-2.3 4.6-4.4 7.2-6.3 2.2-1.3 4.7-2.1 7.2-2.4 2-.3 3.7-1.5 5.7-2 1.1-.3 1.2-1.3 1-2.3-.7-3.2-1.2-6.5-2.1-9.6-1.1-3.8-1.8-7.7-2.9-11.5-.7-2.5-1.3-5.1-2.1-7.6-.5-1.2-1.6-2-2.9-2.1-2.4-.3-4.8-.2-7.1.3-4.6 1.2-9.3 2-14 2.6-2.6.3-5.3.8-7.8 1.4-3.5.8-7.2.5-10.8.5-.8 0-2.2-.1-2.2-1.3 0-1.3 1.4-1.2 2.4-1.3 5.7-.3 11.3-1.1 16.9-2.4 2.5-.6 5.1-.4 7.6-1 2.2-.5 4.3-1.2 6.5-1.8 1.8-.6 3.6-1 5.4-1.3 1.6-.1 3.1-.4 4.5-1.2 2.1-1.2 3.8-.2 4.4 2.4 1 4.4 1.9 8.8 3 13.2.7 3.6 1.6 7.1 2.8 10.6.6 1.8 1.1 3.6 1.4 5.4.4 2.3 1.2 4.5 2.4 6.5.7 1.2.8 2.3 0 3.2s-1.6 2.3-3.7 2.2c-2.9-.3-5.9-.1-8.8.7-3.2 1-6.3 2.3-8.7 4.7-.9.9-1.7 2.1-2.1 3.3-.2.7.1 1.5.9 1.8.2.1.3.1.5.1.4 0 .8-.1 1.2-.1 0 .4.3.4.6.5zm317.7 60.8c4-.6 7.8-2.5 10.7-5.2 3.3-3.1 6.1-6.7 8.4-10.6 2.3-3.5 4-7.4 6-11.1 2.2-3.9 4.1-7.9 5.7-12 .5-1.5 1-3 1.6-4.4 1-2 2.1-4 3.1-6 2.2-4 4-8.1 5.6-12.3 1.1-3.1 2.5-6.1 3.9-9 2-4.2 3.6-8.6 5.5-12.9 1.7-3.9 3.1-7.8 4.3-11.9.7-2.4 1.5-4.7 2-7.2s1.7-4.5 2.4-6.8c1.9-6.4 3.5-12.9 4.9-19.4.7-3.5 1.9-6.9 2-10.4.2-3.2.1-6.4-.4-9.6-.3-1.5-.9-3-1.8-4.2-1.1-1.7-2-2-4-1.4-2 .7-3.8 1.8-5.3 3.4-5.2 5.2-10.1 10.6-13.8 17-1.3 2.3-3.2 4.2-4.1 6.7-.3.9-1.2 1-2.2.4-.8-.4-1.2-.9-.5-1.9 1-1.5 2.2-2.8 3.2-4.3 1.4-2.5 2.9-4.8 4.7-7 3.5-4.3 6.8-8.9 10.6-12.9 1.8-2 3.9-3.8 6.3-5.2 2.1-1.2 4.7-.6 6 1.5.7 1.1 1.1 2.4 2.2 3.2.5.5.8 1.2.8 1.9.8 3.4 1.2 6.9 1.1 10.4-.3 3.8-1 7.5-1.9 11.2-.4 2.1-.4 4.2-1.3 6.2-.1.2-.1.5 0 .6 1.2 1 .2 2.1 0 3.1-.5 4.4-3 8.1-3.9 12.3-.2 1.7-.6 3.4-1.2 5-1.7 4.3-2.6 8.9-4.2 13.3s-3.8 8.3-5.1 12.7c-.7 2.2-1.3 4.5-2.7 6.2s-.8 3.8-2.4 5c-.1.1-.1.3-.2.4-1.3 4.9-3.6 9.4-5.9 13.9-1.1 2.1-2.3 4.2-3.4 6.2-1.2 2.2-2.2 4.5-2.9 6.9-.6 2.5-2.1 4.7-3.2 7s-2.3 4.6-3.4 6.9c-1.3 3-3 6-4.8 8.7-1.8 2.5-3.5 5.1-5.3 7.7-.3.4-.6.7-1 1-3 2.2-5.9 4.5-8.9 6.7-2.1 1.6-4.6 1.6-7.2.2zM525.6 492.6c4 .6 7.8-.5 11.5-.8 2.4-.2 4.8-.2 7.3-.3 4.3-.1 8.5-.4 12.8-1 2.8-.4 5.7-.6 8.6-.9.5 0 .9 0 1.4-.1 3.7-1.1 7.5-1.1 11.2-2.2 2.5-.7 5-1 7.5-1.7 4-1.1 7.9-2.5 11.6-4.2 5.5-2.5 11-5.2 16.4-7.9 6.2-3.1 12.2-6.7 18.3-9.9 1.8-.9 3.7-1.8 5.7-2.5-1 1.8-2.9 2.4-4.5 3.3-1.2.7-2.2 2-3.9 2.1-1.2 2-3.5 2.6-5.2 4.1-2.8 2.5-6.1 4-9.3 5.7-5.8 3.1-11.8 6.1-17.9 8.8-7.1 3.1-14.6 5.4-22.3 6.7-5.3.9-10.6 1.6-16 1.9-1.6.1-3.1.3-4.6.7-1.1.2-2.2.3-3.3.3-1.7 0-3.5.4-5.1.3-4.9-.3-9.7 1-14.7.6-2.2-.2-4.5-.4-6.7-.8-1-.2-2 .1-2.7.8-2.9 3-6.2 5.6-9.1 8.6-1.7 1.8-3.7 3.3-5.5 4.9-3 2.6-6.1 5.1-9.4 7.4-1.7 1.2-3.4 2.3-5.1 3.6-.2.1-.5.3-.5.4-.6 2.1-2.6 2.8-4.2 3.8-5.2 3.1-10.8 5.6-16.5 7.5-.4.2-.7.3-1.1.4-1 0-1.8-.6-2.2-1.5-.2-1 .7-1 1.2-1.4 2.1-1.4 4.7-1.4 7-2.4 4.7-2.2 9.3-4.7 13.8-7.4 3.6-2.1 6.9-4.5 10.4-6.7 1.5-1.2 3-2.5 4.3-3.9l3.3-3c7.1-6.6 14.4-13.2 20.8-20.6 3.4-3.9 6.9-7.7 10.3-11.5 1.2-1.5 2.4-3.1 3.4-4.7l4.8-6.9c.6-.9.9-2 1.5-2.9.3-.5.7-.9 1.3-.7s.6.9.4 1.4c-.7 2.2-1.9 4.2-3.6 5.8-1.4 1.2-2.6 2.8-3.4 4.5-.6 1.3-2.1 2.2-1.7 3.9 0 .2-.3.5-.4.3-.9-1-.9.1-1.2.5-1 1-1.6 2.4-2.6 3.4-1.6 1.7-3 3.5-4.5 5.3-2.1 2.5-4.6 4.7-6.8 7.1-.4.5-.7 1.1-.8 1.8z"/><path class="st2" d="M801.8 660.1c-.3-.5-.2-.8 0-1 1.7-1.1 3-2.7 4.7-3.9 1.4-1.1 2.6-2.4 3.7-3.8 2.4-2.6 3.9-5.8 5.7-8.8 3.9-6.4 7.3-13 10.5-19.8 1.5-3.3 2.8-6.7 4.3-10 1.3-2.8 2.9-5.5 4.1-8.4 1.6-4 3.2-7.9 4.5-12 .9-2.7 1.2-5.6 2.1-8.3.8-2.4 2-4.6 2.8-7 1.8-5.9 4.2-11.5 5.9-17.5 1.3-4.7 2.8-9.4 2.9-14.4.2-2.1.5-4.2 1-6.2.5-3 .8-6 .9-9.1 0-.5-.1-.9-.2-1.4-.5-1.9-1.3-2.4-3.3-2.1-2.4.4-4.6 1.7-6.1 3.6-1.5 1.6-3.2 3.1-5 4.4-2.5 1.9-4.7 4.1-6.5 6.7-1 1.5-2.2 2.8-3.5 4.1-.9.8-1.5 1.9-1.8 3.1-.1.4-.2.8-.7.8s-.7-.3-1-.6c-.3-.4-.4-.9-.2-1.3.2-.6.4-1.2.7-1.8 1.6-3 3.4-5.8 5.5-8.4 1.5-2.1 3.8-3.7 5.8-5.4.5-.4 1-.8 1.3-1.3 1.9-2.7 4.6-4.4 7.2-6.2.3-.2.8-.3 1-.6 1.7-2.1 3.8-1.7 6-1.4s2.7 2.2 3.4 3.8c.4 1.1.5 2.2.5 3.3.3 4.6-1.1 9-1.8 13.5-.2 1 .3 1.8.2 2.7-1.1 6.6-2.7 13.1-4.7 19.5-1.1 3-2 6.1-2.7 9.2-.1 1-.4 2-1 2.8-1.8 2.5-2.1 5.5-3.2 8.2-.7 1.4-1.3 2.8-1.6 4.3-.4 3-2.2 5.6-2.7 8.6-.2 1.5-1.3 2.8-1.9 4.3-1.9 4.8-4.1 9.4-6 14.2-1.4 3.3-3 6.5-4.8 9.5-.8 1.5-.9 3.2-1.8 4.7-1.1 1.7-2.1 3.5-2.8 5.4-.8 2.2-2.7 3.8-3.3 6.1-.1.3-.5.6-.7.9-.7.8-1.2 2-2.1 2.4-1.2.7-.6 1.9-1.3 2.6-.5.5-.6 1.4-1.4 1.8-.3.1-.4.5-.6.7-.9.6-.2 2-1.3 2.5-1 .3-1.9.7-2.8 1.2-1.5 1.1-2.8 2.2-4.1 3.5-1.2 1.1-2.4 1.8-3.8 2.3zM576 667.7c.3-.5.3-1.3 1.1-1.4.4 0 .8-.1.9-.5s-.5-.3-.6-.5c0-.1.1-.4.1-.4 2.5-.2 2.2-2.4 3-3.9.7-1.3 1.5-2.5 2.3-3.8.8-1.1.7-2.7 1.7-3.7.1-.1.1-.3.1-.5 0-1.1 1.8-.7 1.6-2.1-.2-1.1.9-1.9 1.4-2.9s1.2-1.7 1.6-2.6 1.3-1.5 1.7-2.5c.7-1 2-1.5 3.2-1.2.9.5 1.2 1.6.7 2.5-.2.4-.6.7-1 .8-.8.4-1.5 1.1-1.9 1.9-2.2 3.7-4.3 7.6-6.9 11.1-4.1 5.7-7.2 12-10.5 18.2-1.4 2.5-3 5-4.5 7.4-1.9 3-3.5 6.3-4.8 9.6-1.7 4.8-3.3 9.6-5.8 14-2.2 3.9-3.9 8.1-6 12.1-1.7 2.9-3 6-4.1 9.2-.5 1.6-1.1 3.1-1.8 4.5-1.5-.5-2.7-1.8-3.2-3.3-1.5-3.6-2.3-7.5-3.4-11.2-.4-.8-.8-1.7-1.2-2.5-1.4-3.4-3.1-6.6-4.6-10-1.4-3.1-2.9-6.1-4.5-9-2.9-5.1-5.3-10.4-8.8-15.2-1.9-2.6-3.4-5.4-5.1-8.1-.4-.7-1-1.4-1.6-2-1.6-1.4-2.3-3.3-3.6-4.8-.7-.9-1-2-.8-3.1.2-1 .9-1.2 1.7-.5 2.7 2.3 4.6 5.3 6.8 7.9 2.7 3.1 4.3 6.8 6.8 10 2.7 3.3 4.1 7.3 6.2 11 4.1 7.3 7.4 15 10.9 22.5 1.4 3.3 2.4 6.8 3 10.3 1 .2 1-.8 1.2-1.1 2-3.8 4.3-7.4 6-11.3.4-.9.9-1.8 1.5-2.6 1.5-1.8 2.5-3.9 3-6.2 0-.2.1-.3.2-.4 2-2.2 1.9-5.2 3.4-7.6l.3-.3c.5-.1.6.6 1.2.8.5-1.7 1.1-3.4 1.9-5-1.2.3-1.3 1.1-1.7 1.6s.2 1.6-.7 2.1c0-1.8.5-3.5 1.4-5.1.3-.5 1-.8 1.1-1.5 0-.4.3-.6.7-.4s-.2.7.1 1.2c.8-1.2 1.5-2.4 2.3-3.6.5-.7.2-.9-.6-.8-.1 0-.4-.2-.3-.3.2-.7.5-1.4.9-2.1.3-.6.7-1.5 1.7-.5.2-.1.4-.2.5-.3.3-.3.1-.5-.2-.7s-.7-.6-.5-.9c.8-1.3.6-3.2 2.6-3.8 1-.3 1.7-1.3 1.6-2.3.1-2.3 1.3-4.4 2.5-6.4 1.2.3-.2 1.3.4 1.8.4-.7 1-1.3.9-2.3l-1.5.7zm26.1-141.8l1 .1c-.6 1.8-2.3 1.8-3.8 2-.7 0-1.4.2-1.9.7-.5.6-1.3.9-2.1.7-.2-.1-.5-.1-.7.1-1 1.2-2.4 1.9-3.9 1.9-1.4.1-2.6 1.7-4 2.3-5.9 2.4-11.7 5-18 6.2-.9.2-1.9.5-2.7 0s-1.3 1.1-2 .2c.4-.2.6-.6.2-.8-.6-.3-1.2-.2-1.8.1.5.5 1.3.1 1.7.8-.7 0-1 1.1-1.9.4-.3-.2-.8 0-1 .5s-.8.2-1.2.1c-.5-1.4 1-.8 1.4-1.3-.2-.4-.7-.2-1-.5-1.5-1.2-1.4-2.7.4-3.5 1.6-.8 3.3-1.3 5.1-1.6 2.9-.3 5.8-1.2 8.5-2.4 6.9-3.2 13.5-7.2 20.2-10.9 5.2-3 10.5-5.8 15.5-9.2 6.8-4.6 14.1-8.4 21.1-12.6 5.7-3.4 11.5-6.5 17.3-9.7 1-.5 2.3-.1 2.8 1 .1.2.1.3.2.5.1.9-.7 1.1-1.4 1.4-1 .4-2.1.3-3.1.7l-2.4 1.2c-4.5 2.3-8.7 5-13.1 7.5.1-.2.1-.4.2-.6.2-.3.4-.5.1-.8-.5-.4-.6.2-.8.4-.1.2-.2.4-.2.6-1.2.1-1.2.1-1.8 1.6-.1.2-.4.3-.4.4-.2 1.4-1.7-1.9-1.7.5 0 1.1-1.7.9-2.2 1.7-.3-1 1.3-.8 1-1.7-.6-.4-1 .2-1.5.3-.4 0-.7.4-.7.8v.2c.2.5.7.4 1.2.4-.3.2-.5.4-.7.6-.9 1-2.5-.1-3.4 1.5-.6 1.2-2.3 1.7-3.7 2.3s-2.2 1.7-3.5 2.3c-1.2.6-2.4 1.4-3.6 2.2-1.6 1.2-3.8 1.5-4.8 3.5-2.3.3-4 2-5.9 3-5.4 2.8-10.5 6.2-15.7 9.3-1.7 1-3.5 1.6-5.3 3.5 2-.4 4-1 5.9-2 2.3-1.2 4.6-2.3 7-3.2 3.2-1.3 6.4-2.4 9.5-3.7 3.9-1.7 7.9-3 11.9-4.2 2.9-.9 5.8-1.9 8.7-2.8 1.6-.5 3.1-1 4.7-1.3 1.5-.3 3-.8 4.5-1.4.7-.4 1.5-.6 2.3-.5.9.1 1.6.6 1.9 1.5.2.7-.7.9-1.2 1.2-.9.6-1.8 1.2-3 .5-.2-.1-.6 0-.9.1-1.8.6-3.6 1-5.5 1.3-1.3.2-2.4 1.1-3.8 1.3-1.5.2-2.8 1.5-4.5 1.4-1.6-.1-2.8 1.3-4.3 1.4-.9.1-1.5.7-2.4.9-.6.1-.9.5-1.3-.3-.1-.2-.7-.2-.8.1-.4 1.9-1.8 1.2-2.9 1.2-.6.1-1.3-.3-1.8.6-.7-.2-1.5.1-1.9.8.8.1 1.5-.2 1.9-.8zm17.4-6c-.8.1-1.6.3-2.3.7.9.3 1.8 0 2.3-.7zm-397 156.7c-.5.1-1.1.3-1.6.5-.9.5-1.9.1-2.8.3-1.4.3-1.3-1.1-1.9-1.6-1.3-1.2-2.8-2.2-3.8-3.7s-2.5-3-2.9-5c-.1-.6-.4-1.2-.8-1.7-2.2-2.2-2.9-5.3-4.6-7.8-1.4-1.8-1.8-4.1-1.2-6.2.1-.2.1-.5.1-.7-1-1.5-.7-3.2-1-4.8-.3-1.6-.3-3.3-.2-4.9.3-3.1 1.6-6 3.6-8.4 1.4-1.7 3.4-2.8 5.6-3.2.5 0 .9-.1 1.4-.2 2.9-1.5 5.3 0 7.6 1.3 1.5.9 3 1.9 4.4 3 1.1.9 2.1 1.8 3.1 2.8 4.2 4.3 7.8 9.1 10.9 14.2 1.7 2.9 3.9 5.7 5.4 8.7s3.8 5.4 5.6 8.1c2.6 4 5.8 7.5 7.9 11.9 1.4 2.5 3.2 4.8 5.3 6.8.5.4.8.9 1.1 1.5.9 2.3 2.9 3.8 4.1 5.8 1 1.6 2.7 2.6 3.6 4.3.4.8 1.3 1.9.5 2.4-.9.7-1.6-.6-2.1-1.3-1.9-2.8-4.1-5.3-6.5-7.5-.2-2.2-2.9-2.9-3.3-5.2-.2-1.1-1.9-1.8-2.5-3.1-1.2-2.2-3.1-4-4-6.5-.3-.7-1-1-1.4-1.5-1.2-1.6-3.1-2.8-3.8-5-.3-.8-1.7-1.2-1.7-2.5-1.9-1.4-2.5-3.7-4.1-5.4-.3-.3-.6-.7-.6-1 .4-2.1-1.3-2.8-2.4-3.9-.5-.4-.8-.9-1.1-1.4-1.1-2-2.4-4-3.8-5.8-1.3-2-2.7-4-4.4-5.8-1.4-1.6-2.9-3-4.6-4.2-1.7-1.2-2.9-3-4.5-4.4-2.1-1.7-4.6-2.8-7.3-3.5-2.6-.7-5 .6-6.7 3.2-2.1 3.1-3.1 6.9-2.7 10.6.2 2.1.7 4.1 1.3 6.1 1.7 5.8 5.1 10.7 8.4 15.6 1.6 2.3 3.2 4.8 5.8 6.3 1.3.8 2.2 1.7 2.6 2.8zm407.7 40.7c-1.5-.7-1.7-.6-1.7.8-.1 2.1-.8 4-1.2 6-.2.8-.2 1.5-.2 2.3.3 2.3.4 2.4-.7 4-.4.6-.6 1.3-.4 2 .4 1.4-.1 2.6-.3 3.8-.1.6-.2 1.3-1.2 1-.2 0-.4.1-.4.2v.2c.5 1.9-1.5 3.6-.6 5.6.1.1-.2.4-.3.6-1.4 1.7-1.9 3.8-2.5 5.9-.4 1.4-.6 3.2-2.2 4.2-.7.4-.4 1.2-.2 1.8.4 1 .3 2.1-.2 3-.7 1.8-1.4 3.7-1.9 5.6-1.3 3.4-2.3 7-2.9 10.6 0 .5-.2.9-.4 1.3-1.8 2.5-2.5 5.6-3.5 8.5-.8 2.2-1.3 4.4-2.3 6.6-1.4 3.1-2.7 6.3-4 9.4-.2.4-.4.9 0 1.3.8 1 .5 1.3-.7 1.3-.5 0-.5.4-.6.8-.4 2.7-2.7 4.7-5.5 4.7-1.1-.1-1.8-.4-1.8-1.6-.1-1.3-.5-2.6-1.2-3.7-1.8-3.6-2.5-7.5-3.8-11.3-.4-1-.4-2.2.1-3.2.5-.9-.8-1.7.1-2.5 0 0-.1-.3-.2-.3-1.8-.2-1.5-1.8-1.8-2.8-1-3.1-1.7-6.3-2.5-9.5-.2-1.1-.6-2.1-1.2-3l-.3-.6c-.6-3.6-2.5-6.9-3.1-10.5-.1-.9-.2-1.7.7-2.2 1.2-.6 2.1-.2 2.3 1.3.4 2.4.9 4.7 1.6 7.1 1.7 6.4 3 12.9 5.2 19.2 1.1 3.1 1.7 6.3 2.7 9.5 1.1 3.6 2.4 7.2 4 10.7 1.4-2 2.8-3.7 3.8-5.5s1.7-3.7 2.6-5.5c2.5-4.9 3.7-10.2 5.5-15.3.5-1.4 1.2-2.7 1.7-4.1.9-2.4 1.5-4.9 2.5-7.3 1.1-2.8 1.5-5.8 2.4-8.7.1-.5.3-.9.6-1.3.6-.7.9-1.7.8-2.6 0-.8.2-1.6.5-2.3 1.5-4.2 2.7-8.4 3.6-12.8.2-1.5.7-3 1.4-4.4.1-.1.2-.3.2-.4 0-3.5 2.3-6.5 2.1-10.2.1-1.5.6-2.9 1.3-4.2.7-1.8 1.2-3.7 1.5-5.6.7-3.8 2.2-7.5 3.4-11.2 1.1-3.3 2.5-6.6 3.4-10 .6-2 .7-4.2 1.4-6.1.3-.8.6-1.3 1.4-1.2s1.1.6 1.1 1.3c.2 1.4-.1 2.7-.8 3.9-1.2 1.9-1.5 4.3-2.5 6.4s-.9 4.3-2.4 6c-.1.1-.2.2-.2.4.5 2.5-1 4.5-1.6 6.7-.2.8-1 1.6 0 2.4.2.2.2.3 0 .3-2.3.5-.5 2.1-.6 3.2zm-38 77.5c-.2-.5-.4-.9-.7-1.6-.2.8 0 1.3.7 1.6zm-5.4-18.6c.3-.5.2-1.2-.3-1.5l-.1-.1c0 .6.1 1.2.4 1.6zm191.8-191.5c-.3-.6-.6-.6-1-.1-1.3 1.4-1.7 3.3-2.7 4.9-.8 1.3-1.5 2.7-2.1 4.2-.2.4-.6.7-1.1.8.4-2 1.1-3.9 2.1-5.6 2.9-5.6 5.9-11.2 6.8-17.6.4-2.6 1.5-5.1 1.3-7.8-.2-2.5-.6-4.8-2.5-6.6-1.6-1.2-3.7-1.4-5.4-.5-.7.5-1.4.9-2.3 1.2-.7.2-1.3.6-1.7 1.2-4 4-7.3 8.6-9.8 13.6-.6 1.2-1.1 2.5-1.4 3.9-.3 1.2-1.3 2.2-2 3.5-.5.9-.9 1.7-1.3 2.6-1.8 4.9-4 9.7-6.1 14.5-1 2.4-2.1 4.9-3 7.3-1.2 3.2-2.8 6.1-5.6 8.1l-1.1.8c-.3.3-.8.3-1.1.1-.3-.3-.4-.7-.3-1.1.2-1.2.7-2.2 1.4-3.2 2.1-3.4 3.8-6.9 5.3-10.6 1-2.3 2-4.6 3.2-6.8 2.2-4.2 3.7-8.6 5.7-12.8 1.2-2.6 2.5-5.2 3.7-7.8 1.4-2.8 3-5.4 4.9-7.9 2.4-3.1 5.1-5.9 8.2-8.3 2.2-1.7 4.9-2.6 7.6-2.4 2.2.1 4.3 1.4 5.1 3.5 1.5 2.9 2.7 6 2.1 9.4-.8 4.7-1.9 9.4-3.2 14-.9 1.9-1.7 4.3-3.7 5.5zm.1-1.6c.4-.5 1-.8.6-1.6-.6.2-.9.8-.7 1.4.1.1.1.2.1.2zm-667 48.9c.1-.7.2-1.6.2-2.5.2-2.1 1.6-3.2 3.2-4 2.2-1 4.8-.8 6.8.5s4.2 2.3 6.2 3.7c3 2 5.7 4.4 8.1 7.1 2.5 3 5.7 5.4 7.8 8.7 2.4 3.8 6.1 6.5 9 9.9s6 6.8 9.1 10.2c3.6 4 6.6 8.5 9.8 12.9 2.6 3.4 5.1 6.9 7.6 10.4.8 1 1.7 1.9 2.7 2.6.4.3.7.6 1 .9.4.5.4 1.2 0 1.7s-1 .2-1.5 0c-.5-.3-.9-.6-1.3-1-1.9-2.1-3.7-4.4-5.6-6.6-3.3-4-6.2-8.3-9.2-12.6-1.4-2.2-3.1-4.2-5.1-6-2.5-2.1-4.5-4.7-6.8-7.1-1.7-1.7-3.4-3.4-5.1-5.2-1.9-1.9-3.7-3.8-5.4-5.9-1.5-1.9-3.2-3.7-4.9-5.3-1.5-1.4-2.9-3-4-4.8-3.1-4.6-7.5-7.4-12.4-9.6-.6-.2-1.1-.4-1.7-.8-.5-.4-1.1-.6-1.7-.7-2.8-.5-4.1.6-3.7 3.4.5 2.9 1.5 5.7 2.9 8.3.4.8.8 1.7 1.1 2.6.2.7 0 1.4-.8 1.4-1.1-.1-2.4-.1-3.1-1.3-1.9-3.3-3.1-7-3.2-10.9zm14.2 27c-1.3 1.7-1.3 1.7-2.8.9-1.5-.8-2.9-1.9-4.1-3.1-2-2-4.1-4.1-6.2-6-.8-.6-1.5-1.4-2.1-2.2-1.4-2-3.8-3-6.2-2.7-.7.1-1.3.7-1.4 1.4-.2.8-.2 1.7-.1 2.6.8 4.5 2.5 8.9 4.9 12.8.4.6.7 1.2 1 1.8.4 1.1 1.2 2 2.3 2.6 1 .5 1.9.9 1.3 2.5-.2.5.5 1.7 1.1 2.2 1.7 1.6 2.4 3.8 3.9 5.5.7.9 1.4 1.9 2.1 2.8.2.2.3.4.5.5 1.2.3-.5 2 1 2.1s1.4 1.5 2.2 2.2 1.2 1.7 1.9 2.3c2.4 2.2 4.5 4.7 7 6.8 2.3 2.1 4.5 4.2 6.6 6.5 2.2 2.3 4.6 4.5 7 6.5 1.3 1.3 2.5 2.7 3.6 4.3.5.6 0 1-.7 1-2.1 0-4.1-.8-5.6-2.4-3.3-3.5-6.8-6.8-10.3-10.2-1.4-1.3-2.3-3.1-3.8-4.4-3.6-3-5.8-7-8.8-10.5-1.7-1.9-3.2-4-4.3-6.3-.2-.5-.6-.6-1-.9-.6-.4-1.1-.9-1.4-1.5-1.2-2.8-3.8-4.7-4.9-7.5-.8-2-2.7-3.5-3-5.8-.1-1-1.1-1.5-1.6-2.3-1.7-3-2.3-6.3-3.5-9.4-.3-1.3-.4-2.6-.2-4 .3-3.5 3.6-4.6 6.4-3.9 2.2.7 4.3 1.9 5.9 3.6 4.3 4 8.8 8 13.3 12.2zm167 52.7c-.8 2.4-2.5 3-4.8 2.8-6.2-.4-12.5-.1-18.6 1.1-4.7.8-9.3 2-14 2.5-4.4.5-8.8 1.3-13.2 1.7-3.2.2-6.5.6-9.7 1.1-3.5.5-7.1.9-10.7 1-4.9.3-9.8.7-14.8.6-4 0-7.9-.5-11.8-1.6-.4-.1-.7-.3-1-.5-.5-.4-.6-1.1-.3-1.7.2-.6.7-.7 1.3-.6 3 .5 6.1.5 9.1.7 2.8.3 5.5 0 8.3.4 1.2.2 2.3-.3 3.5-.3h11.6c.7.1 1.4-.1 2-.4.3-.2.7-.3 1.1-.3 2.8.3 5.6-.2 8.1-1.3 1.4-.6 3.1-.6 4.6-.8 5.5-.8 11-1.2 16.4-2.4 2.2-.6 4.4-.7 6.6-.2.5.1.5-.2.7-.4.2-.3.6-.5 1-.4 2.6.6 4.9 0 7.3-.9 1.1-.4 2.7-.1 4-.2 2.4 0 4.8.1 7.2.2 1.6 0 3.2.4 4.8-.3.4-.3.8-.2 1.3.2zm258.5-105.9c.1 1.6-.9 2.7-1.7 4s-2.1 1.5-3.5 1.7c-2 .4-3.9-.1-5.8-.1-.5 0-.9-.2-1.3-.5-1.5-1.2-2.8-2.6-3.9-4.2-1.5-2.1-1-5 1.1-6.5.2-.1.3-.2.5-.3.3-.2.7-.4 1-.6 1.8-2 1.8-1.9 4.4-1.6 1 .1 2.1 0 3 .6 2.1 1.4 4.4 2.6 5.7 5 .3.8.5 1.7.5 2.5zm-370 60.5c-.8.5-1.9.2-2.4-.6-.1-.2-.2-.5-.2-.8-.3-1-.9-1.9-1.6-2.7-2-3.1-4.4-6-6.4-9-1.6-2.3-3.5-4.4-5.7-6.2-1.7-1.5-3.1-3.3-5-4.5-.6-.5-1.3-.9-2-1.3-1.9-1-3.3-.1-3.1 2 .1 1 .3 2 .8 2.9.4.9.3 1.5-.6 1.9s-2.1.2-2.4-.7c-.9-1.9-1.5-3.9-1.8-6-.2-1.8.3-2.8 1.9-3.3 2.2-.7 4.4-1 6.5.4 2 1.3 3.8 2.7 5.5 4.3 3.5 3.5 6.7 7.2 9.4 11.3 2.6 4.1 4.9 8.2 7.1 12.3zM862 497c0 .7-.6 1.3-1.3 1.3-.1 0-.3 0-.4-.1-1.3-.6-2.6-.9-4-1.1-.9-.1-1.9.3-2.5.9-2.1 1.8-3.9 3.8-5.5 6-1.1 1.5-2.5 2.5-3.6 4-1.1 1.4-2.1 2.9-2.9 4.5-.6.8-1.2 1.6-1.9 2.3-1 1.4-1.8 2.9-2.5 4.4-.5 1.1-1.5 1-2.4 1.1s-1.2-1.1-.8-2c.9-2.2 2.1-4.2 3.6-6 1.1-1.2 2.1-2.5 3-3.9 2.2-3.8 5.4-6.8 8.2-10.1.8-.9 1.7-1.8 2.5-2.8 1.6-2.1 6.6-2.9 8.9-1.5 1 .7.7 2.3 1.6 3zm-368.5 61.7c-1.3.1-2.5-.2-3.6-.9-2.6-1.8-2.4-4.2-1-6.6.8-1.4 2.1-1.5 3.6-.7 1 .7 2.1 1.1 3.3 1.2 1.6-.1 2.6 1.6 2.6 3.5 0 1.5-1 2.8-2.5 3.1-.8.3-1.6.4-2.4.4zM560 553c-2.7.1-5-2.1-5.1-4.8 0-.5 0-1 .2-1.5.6-2.1 3.4-3 5.3-1.6.9.6 1.7 1.3 2.6 1.9 1.1.6 1.7 1.8 1.5 3-.2 1.3-1.1 2.3-2.4 2.6-.7.2-1.4.6-2.1.4zm249.5 50.9c1 1 1.1 1.7.2 2.9s-1.3 3-2 4.7c-1.2-1.2-.3-2.4 0-3.1.6-1.6.4-3.4 1.2-4.8.8-1.5 1.5-3 1.8-4.7.7-3 1.7-6 2.3-9.1.4-1.8 1.3-3.5 1.7-5.4.4 1 .4 2.2-.1 3.2-.4 1-.7 2.1-.8 3.1-.2 1.2-.1 2.3-1 3.4-.7.8-.4 2.1-.5 3.1-.1 1.9-.5 3.7-1.1 5.5-.4 1-.4 1-1.7 1.2zm-9.5 31.5c-1.8-1.4-1.5-1.3-.8-3.2.3-.9 2.1-1.1 1.3-2.5-.1-.2 1-.3 1.5 0 .3.2.9.5.5.8-1.7 1.4-.9 3.5-1.7 5.1-.5 1-.8 2.1-2.4 2.3.6-.9-.4-2.4 1.6-2.5zM194.7 759.3c-1.3-1-2.6-2.2-3.7-3.5-.7-1.1-1.7-1.9-3-2.2.8-.6 1.4-.9 1.8-.4 1.8 1.8 3.6 3.7 5.4 5.6l-.5.5z"/><path class="st2" d="M837.9 585.2h1.8c.3 0 .5.3.5.6v.1c-.3 1-.7 1.9-1.1 2.8-.3.3-.7.4-1.1.1l-.1-.1c-.5-.9-1.5.6-1.7-.5-.2-1.3 1-.5 1.5-.8 1.1-.6.6-1.4.2-2.2zM421.7 798c-1.6 2.7-3.4 5.3-5.4 7.7-.6-.5-.3-.7-.1-1l4.2-6.1c.3-.4.8-.6 1.3-.6zm-300-121.4c-.5.4-.9.4-1.1.1-.8-1.3-1.8-2.5-3-3.5-.2-.1-.3-.4-.2-.7l.1-.1c.2-.3.6-.3.8-.1.5.7 1.6.8 1.7 2 .1.8 1.1 1.5 1.7 2.3zm519.7-330.7c-.9 1.5-.7 3.8-3 4.4.4-1.9 1.5-3.5 3-4.4zm203.8 214.2c.2.6.3 1.3.3 1.9-.1 1.4-.8 1.7-2 1-.3-.2-.9-.2-.8-.7.1-.7.6-.5 1-.4.7.2.5-.4.6-.7l.9-1.1zM611.5 785.4c.5.5.5.8.4 1.1-.6 1.7-1.2 3.3-1.8 4.9-.1.4-.3.5-.6.2-.2-.1-.3-.3-.2-.5v-.1c1.2-1.5 1.4-3.5 2.2-5.6zm3.6-8.4c-.5 1.1-.8 2.3-.8 3.5-1.4-.7-.6-2-.8-2.8-.1-.6.8-1 1.6-.7zm-9.4 22c.6-1.2 1.4-2.3 2.4-3.2-.3.9-.5 1.8-.9 2.7-.1.5-.6.8-1.1.7-.1-.1-.3-.1-.4-.2zM128.1 683.7c1.2-.3 2.5-.1 3.5.7-1.5 1.1-2.4-.3-3.5-.7z"/><path class="st2" d="M128.2 683.7c-1-.7-2.4-1.1-3.2-2.3 1.4 0 2.7.9 3.2 2.3zm-10.8-12.3c-1.7.3-1.7.3-2.2-1.5 1 .1 1.8.7 2.2 1.5zM803 626.7c0 .5-.2.9-.6.9-.4 0-.7-.3-.7-.7 0-.5.4-.8.9-.8h.1c.3 0 .3.4.3.6zM605.7 798.9c.3 1-.1 2-.9 2.6-.6-1.3.4-1.8.9-2.6zm-34-139.7c.8.4 1.5.5 1.4 1.4 0 .1-.4.3-.6.3-.8-.2-.8-.8-.8-1.7zm-448.9 19.3c1.3.2 1.2 1.1 1.2 2.3-.4-1-.8-1.6-1.2-2.3zm454.4-46.6c-.3.3-.8.4-1.2.3-.4 0-.6-.3-.6-.7.5-.4 1.3-.3 1.8.4-.1-.1 0 0 0 0zM613 782.6c-.5-.1-.4-.6-.4-.9s.1-.8.6-.8.3.5.3.7 0 .9-.5 1zM548.9 366h-3.8c1.4-.5 2.6 0 3.8 0zM423 795.4c-.3-.7.1-1.5.8-1.7.1.8 0 1.4-.8 1.7zm207.2-219.9l2.1 1.4c-.8-.1-1.6 0-2.1-1.4zM421.7 798c-.1-.3-.2-.6-.2-.9-.1-.4.2-.9.7-.9h.1c.1 0 .3.1.4.2.2.4-.1.7-.4 1s-.6.3-.6.6zm193.4-21c0-.7-.9-1.3-.1-2 1.1.7-.2 1.4.1 2zm-2.2 6.9c-.2.4-.2.9-.6.9s-.3-.4-.4-.7.1-.8.6-.7c.1.1.3.4.4.5zM628.2 574c-.1.3-.2.6-.6.5-.2-.1-.4-.3-.3-.5.1-.2.3-.4.5-.4.2-.1.3.1.4.4zm-204.7-5.2c.2 0 .2.2.2.5s0 .5-.3.5-.3-.3-.3-.5-.1-.5.4-.5zm417.1 14c-.1.2-.2.4-.4.3s-.6-.2-.6-.6.3-.3.5-.3.5.2.5.6zM614.2 727.9c.2 0 .3.2.2.3l-.3.6c-.1-.1-.1-.2-.2-.4.1-.2 0-.4.3-.5zm164.3-143.2c.2.4.2.9-.3 1.1-.1.1-.3.1-.4 0-.2-.6.1-1 .7-1v-.1zm-145 125.2c-.1.1-.2.3-.2.3-.4 0-.5-.2-.5-.5s0-.5.3-.4c.2 0 .4.3.4.6zm183.8-120.1l-.2.3-.3-.3c-.1-.1.1-.2.2-.2s.2.1.3.2zM560 541.1c-.5.1-1 .5-1.5.1-.1-.1-.1-.3-.1-.4.7-.7 1 .3 1.6.3zm22.1 125.4c0-.2-.1-.5-.1-.7 0-.2.2-.4.4-.3h.1c.1 0 .2.3.2.3-.2.3-.4.5-.6.7z"/></svg>