<?xml version="1.0" encoding="utf-8"?>
<!-- Generator: Adobe Illustrator 22.1.0, SVG Export Plug-In . SVG Version: 6.00 Build 0)  -->
<svg version="1.1" id="abstrakt-design-first-issue-1-04"
	 xmlns="http://www.w3.org/2000/svg" xmlns:xlink="http://www.w3.org/1999/xlink" x="0px" y="0px" viewBox="0 0 1000 1000"
	 style="enable-background:new 0 0 1000 1000;" xml:space="preserve">
<style type="text/css">
	.st0{fill:#5d3edc;}
	.st1{fill:#D1D3D4;}
	.st2{fill:#1B1D21;}
	.st3{fill:#ff4a59;}
</style>
<path class="st0" d="M428.7,733.2l29.5,47.8l29.6-21.6v62.7h76.8v-62.8l8.5,24.1l31.5-55.1c0,0-1.4-72.1-11.7-67.5
	s-27.5,32.6-27.5,32.6l-20.9,36.4l-26.6-50.3L428.7,733.2z"/>
<path class="st1" d="M534.4,380c-122.7-6.3-226.8,41.7-233,116s45.7,141.4,210.5,153.1c11.2,0.8,22.3,1.1,33.1,0.9
	c-1.9-7.1-5.3-14-12.8-14.5c-8.6-0.6-17.3,2.4-25.9,2.9c-13,0.8-25.9-2.7-36.8-9.8c-12.1-7.8-18.8-20-29.1-29.5
	c-8.8-8-22-17.3-22.6-30.3c-0.1-2.3,1.7-4.1,3.7-4.8c15.6-5.7,28.6-15.9,42.2-25.2c11.2-7.7,20.3-17.6,30.3-26.7
	c8.4-7.6,17.5-15.7,28.5-19.3c9.7-3.2,20.2-3.6,30.3-2.5c23.3,2.5,46.9,11.5,65.3,26c13.2,10.4,21.1,24.8,26.6,40.5
	c2.2,6.2,4.6,14.5,1.4,20.8s-9.8,6.7-15.9,5.5c-9.5,17-20.5,31.6-38.6,40.4c-5,2.3-10.3,4.3-15.6,5.7c-5.1,1.5-8.9,4-9.6,9.5
	c-0.3,3.5-0.3,7,0,10.5c97.6-7.2,173.2-53,178.5-116C751.1,458.8,704.8,388.7,534.4,380z"/>
<ellipse transform="matrix(0.9928 -0.1201 0.1201 0.9928 -34.2853 73.4726)" class="st1" cx="592.2" cy="321.1" rx="73.1" ry="37.8"/>
<path class="st3" d="M830.9,178.2c2.3-0.4,4.4,0.6,6.5,0.1c1.7-0.4,3.4,0.6,5-0.3c0.1-0.1,0.3-0.1,0.5,0c1.7,1.1,3.7,1.3,5.3,2.2
	c1.8,1.1,3.9,1.7,6.1,1.8c3.3,0.1,6.4,0.9,9.3,2.5c0.7,0.4,1.3,0,1.9,0.4c1.2,0.8,2.2,1.7,3,2.8c1.2,1.2,2.6,2.3,4.1,3.1
	c1.6,0.9,3,2.2,4,3.7c2.5,3.5,5.6,6.4,8.2,9.8c0.8,1,1.2,2.4,2.5,2.9c0.1,2.3,1.9,3.7,2.9,5.6c1,1.9,1.9,3.9,2.6,6
	c1.2,3.7,2.8,7.4,2.9,11.4c-0.1,0.6,0.2,1.1,0.6,1.5c0.2,0.1,0.5,0.3,0.5,0.5c0,2.9,2.1,5.1,2.5,7.9c0.4,3.2,0.9,6.4,0.4,9.7
	c-0.4,2.9-0.4,5.9,0.2,8.8c0.3,1.9,0.3,3.9,0.1,5.8c-0.7,6-1.9,12-3.7,17.8c-1.5,5.1-4.6,9.3-6.3,14.2c-0.4,0.9-1,1.8-1.8,2.4
	c-2.2,2.3-3.5,5.1-5.2,7.8c-0.6,0.9-1.3,1.8-2.1,2.5c-2.7,2.4-4.9,5.4-7.4,8c-2.4,2.4-4.7,5-7.9,6.4c-0.9,1.8-3.6,1.7-4.1,4
	c-0.2,1.1-1.7,1.5-2.6,1.8c-2.4,0.6-4.1,2.2-6.2,3.3c-1.7,1-3.4,2.2-5,3.4c-1.1,0.8-1.9,1.9-2.2,3.2c-0.5,2.1-1.3,4.2-2.2,6.1
	c-1.1,1.9-1,4.4-0.6,6.4c0.5,2.6,0.4,5.2,0.9,7.8c0.7,3.7,1.5,7.4,2.4,11.1c1,3.4-0.3,7.1-3.2,9.1c-1,0.7-2.1,1.1-3.3,1.1
	c-2.8,0.3-5.6,0-8.3,0.8c-1,0.3-2.1-0.2-3.2-0.4s-1.3-1.4-1.6-2.1c-0.8-1.4-1.2-2.9-1.2-4.5c0-2-0.9-3.8-1.5-5.6
	c-0.7-2.2-1-4.6-2-6.7c-1.5-3-1.8-6.4-3.2-9.5c-0.6-1.4-1-3-1.1-4.5c0-1.5-0.3-3.1-0.6-4.6c-0.5-1.8-0.6-3.7-0.3-5.6
	c0.1-0.7,0.3-1.4,0.7-1.9c1-1.3,1.3-3,0.8-4.6c-0.6-1.9,0-3.3,2.1-4.4c2.4-1.3,4.5-3,7.1-4c1.3-0.5,2.5-1.3,3.6-2.2
	c2.4-2,4.9-3.8,7.6-5.4c5.5-2.9,9.5-7.5,14.4-11.1c3.8-2.8,6.6-6.6,9.5-10.2s4.5-8.1,6.4-12.5c1.4-3.2,2-6.7,3.3-9.9
	c1.4-3.8,2.4-7.7,2.9-11.7c0.6-3.6,0-7.2-0.2-10.8c-0.3-4.4-1.2-8.8-2.7-12.9c-1-2.8-1.7-5.8-3.9-8.1c-1.2-1.5-2.2-3.2-3-4.9
	c-0.3-0.7-0.8-1.4-1.3-1.9c-2.1-1.7-3.9-3.8-6.3-5.2c-1.9-1.1-4.1-1.6-5.8-3.2c-0.6-0.5-1.5-0.1-2-0.4c-1.2-0.6-2.3-1.4-3.8-1
	c-0.3,0.1-0.6-0.1-0.7-0.5c0,0,0,0,0-0.1c0-0.5-0.2-0.9-0.6-0.4c-1,1.2-2,0.7-2.8,0c-0.6-0.5-1-0.6-1.5-0.1
	c-0.8,0.7-1.7,0.4-2.6,0.3c-1.6-0.1-3.2-0.7-4.7,0.6c-0.4,0.3-1,0.3-1.5,0.5c-4.3,1.6-8.1,4.1-11.4,7.3c-1.4,1.1-2.7,2.4-3.9,3.7
	c-2.1,2.7-3.5,5.9-5.5,8.7c-2,2.8-3.1,6.1-3.2,9.6c-0.4,2.8-0.5,5.7-0.5,8.6c0.3,3.3,0.3,6.7,0.8,10c0.4,2.6,1,5.2,1.7,7.8
	c0.2,0.8,1.5,1,1,2.1c-0.3,0.9,0.1,1.9,0.9,2.4c0.5,0.4-0.6,1.1-0.1,1.7c0.5,0.8,0.9,1.6,1.3,2.4c1,1.5,0.8,2.4-0.4,3.8
	c-1.8,2.1-3.5,4.2-6.3,5c-3.5,0.9-7,1.8-10.6,1.1c-3.4-0.7-6.7-1.9-8.6-5.3c-0.4-1.1-1.2-2-2.3-2.5c-0.3-0.1-0.5-0.4-0.6-0.6
	c-0.3-1.9-2.1-3-2.8-4.8c-0.4-0.7-0.7-1.5-0.9-2.4c-0.1-0.4-0.1-1-0.4-1.1c-1.7-0.7-1-2.4-1.5-3.4c-1-1.9-1-3.6-1.1-5.6
	c0-2.3-0.4-4.6-1.3-6.8c-0.1-0.5-0.1-0.9,0-1.4c0.1-5.5,1.1-11,1.4-16.5c0.1-2,0.6-3.9,0.9-5.9c0.3-2.2,0.8-4.3,1.3-6.4
	c0.9-4.1,2.3-8.1,4.1-11.8c1.1-2.1,2.8-3.9,3.5-6.3c0.1-0.3,0.4-0.5,0.6-0.7c2.1-1.8,4-3.7,5.8-5.8c1.5-1.6,2.5-3.6,4-5.2
	c1.7-1.9,3.7-3.6,5.8-5c1.5-0.9,2.7-2.3,4.3-3.2s3.8-1.4,5.1-3c0.1-0.1,0.3-0.2,0.4-0.2c2.7-0.1,4.9-1.7,7.6-2
	c1.5-0.2,2.9-0.6,4.2-1.2C826.6,178.3,828.8,178,830.9,178.2z"/>
<path class="st2" d="M548.9,386c2,0.4,4,0.5,6,0.6c1.3-0.1,1.1,1.1,1.7,1.4s1-1.1,2-0.4c2,1.2,3.6,1.3,6.3,1c0.7-0.2,1.5,0,2,0.5
	c0.5,0.9,1.5,1.2,2.4,0.7c0,0,0.1-0.1,0.1-0.1c0.7-0.4,0.1,1.1,1,0.9c0.4-0.1,0.9-0.6,1.5-0.1c1.6,1.3,3.6,1.2,5.5,1.8
	c0.5,0.2,1.1,0.2,1.6-0.1c0.4-0.2,0.6-0.2,1,0.1c2.5,1.8,5.6,2.2,8.5,2.8c0.4,0.1,0.8,0.2,1.2,0.4c0.7,0.5,1.6,0.6,2.5,0.4
	c0.7-0.3,1.6,0,2,0.6c1,1,2.5,1,3.8,1.4c1.7,0.5,3.3,1.5,5.2,1c1.1,1.6,3.5-0.4,4.4,1.7c1.4-0.9,2.2,0.6,3.3,0.8
	c0.8,0.2,1.6-0.8,2.3,0.2c0.2,0.3,1.5-0.5,1,0.8c0,0.2,0.4,0.2,0.6,0.1c1.4-0.6,2.8,0.1,4.2,0.2c0.4,0,1,0.1,1,0.8s0.3,0.7,0.7,0.3
	c0.6-0.5,1.5-0.5,2,0.1c0.3,1.1,1.6,0.3,1.9,1.2c0.2,0.4,0.7,0.3,1,0s0.3-0.5,0.7-0.6c1-0.1,0.1,1.2,0.9,1.2c0.5,0,0.6-1.3,1.3-0.2
	c1,1.4,1.1,1.3,2.7,0.5c0.1-0.1,1.2-0.8,0.8,0.5c-0.1,0.3,0,0.7,0.3,0.8c0.2,0.1,0.5,0.1,0.7-0.1c0.6-0.5,1.5-0.4,2,0.2c0,0,0,0,0,0
	c0.9,0.9,2.1,1.3,3.4,1.2c0.3,0,0.8,0,0.9,0.1c0.7,1.4,2,0.9,3,1.1c2,0.5,3.9,1.2,5.8,2c0.4,0.2,0.8,0.4,1.3,0.5
	c1.5,0,2.9,0,3.6,1.7c0.2,0.6,1.2,0.7,1.9,0.7c2,0.2,3.5,1.4,5.1,2.2c2.5,1.4,5.1,2.5,7.6,3.9c2.1,1.2,4.2,2.4,6.2,3.6
	c2.3,1.3,4.6,2.8,7.1,4c3.1,1.5,5.8,3.6,8.7,5.3c2.3,1.4,4.7,3,6.9,4.6c1.2,0.9,2.2,2.2,3.8,2.4c0.4,0.1,0.7,0.3,1,0.6
	c2.1,2.1,4.4,4,6.9,5.6c1.2,0.8,2.3,1.8,3.3,2.8c3.8,3.7,7.6,7.4,11.3,11.3c4,4.3,7.5,9.1,10.2,14.3c3.2,6,6,12.2,8.4,18.5
	c1.6,4.5,2.9,9,3.9,13.7c1.3,5.3,0.4,10.5,0.3,15.8c0,3.9-0.5,7.8-1.4,11.6c-0.5,2.2-1.5,4.4-2.2,6.5c-0.6,1.8-1.7,3.4-2.1,5.3
	c-0.2,1.2-0.7,2.3-1.5,3.1c-0.8,0.7-0.3,1.7-0.8,2.5c-1.3,2.2-3.3,4.1-3.8,6.8c-0.2,1-1.3,1.3-1.7,2.2c-1,2.1-2.4,3.9-3.6,5.9
	c-1.7,2.8-3.9,5.2-5.4,8.2c-0.1,0.2-0.2,0.4-0.4,0.6c-4.2,3.3-7.2,7.7-11.2,11.2c-0.6,0.7-1.4,1.3-2.2,1.8c-1.2,0.7-2.3,1.6-3.1,2.8
	c-0.6,0.8-1.5,1.3-2.5,1.5c-1.5,0.1-2.7,1.1-3.2,2.5c-0.5,1.1-1.7,1-2.6,1.3c-0.7,0.2-1.4,0.5-2,0.9c-1.7,1.1-3.5,2-5.4,2.6
	c-2.8,1.2-6,1.6-8.4,3.6c-0.3,0.3-0.6,0.4-1,0.5c-2.5,0.3-4.8,1.2-6.8,2.7c-0.4,0.3-0.8,0.5-1.3,0.5c-2.3-0.2-4.4,0.8-6.5,1.4
	c-1.4,0.3-2.9,0.4-4.3,0.4c-1.8,0-3.4,0.9-5.2,1.3c-1.5,0.3-2.9,0.4-4.4,0.4c-2.1,0-4.1,0.1-6.2,0.2c-0.5,0-1.1-0.1-1.6-0.2
	c-2.7-0.6-5.6-0.5-8.3,0.3c-1.7,0.5-3.2-0.2-4.8-0.5c-1-0.3-2.1-0.4-3.2-0.3c-1.5,0.2-2.9-0.2-4.2-1c-0.8-0.5-1.2-0.5-1.7,0.3
	c-1.7,2.4-3.9,4.3-6.3,5.8c-1.6,0.9-3,2-4.4,3.2c-0.7,0.7-1.8,1.6-3.1,0.8c-0.3-0.2-0.5-0.1-0.8,0.2c-1.3,1.8-3.2,3.2-5.3,3.8
	c-2.6,0.9-5.1,2-7.6,3.2c-1.2,0.7-2.6,1-4,1c-1.2-0.1-2.7-0.6-3.2,1.3c-0.4,0.6-1.1,0.9-1.8,0.8c-1.5-0.4-3.1-0.1-4.4,0.9
	c-1.2,0.7-2.7,0.5-3.7-0.4c-0.8-0.6-2-0.4-2.6,0.4c-0.1,0.1-0.2,0.3-0.3,0.5c-0.3,0.8-0.8,1.1-1.6,0.8c-1.2-0.4-1.4,0.4-1.4,1.2
	c0,0.9,0.1,1.7,0.3,2.5c0.8,4.6,1.3,9.2,1.9,13.9c0.2,0.8,0.4,1.5,0.7,2.2c0.8,2.2,0.2,4-1.8,4.8c-1,0.4-2.2-0.1-2.6-1.1
	c-0.1-0.2-0.1-0.3-0.1-0.5c-0.1-0.4-0.1-0.8-0.1-1.2c0.6-3.5-0.5-7-0.7-10.5c-0.2-4.1-0.8-8.2-0.7-12.4c0-1.7,0.7-2.4,2.4-2.4
	c6.3,0,12.3-1.8,18.3-3.3c0.9-0.3,1.8-0.6,2.6-1c3.8-1.6,7.6-3.2,11.4-4.7c3.6-1.5,7-3.6,10-6c1.3-1.1,2.7-2.1,4.1-3.1
	c1-0.7,1.7-1.6,2.2-2.7c1.8-2.7,3.2-5.7,4.3-8.8c1.4-4.9,2.1-9.9,2.1-15c0.2-1.1,0.2-2.2,0.2-3.2c-0.2-1.5,0.8-2.2,1.8-3
	s1.9-0.8,2.7,0.2c1.6,2,3.7,2.5,6.2,2.8c3.2,0.4,6.4-0.3,9.1-2c1.6-0.9,2.7-2.3,3.3-4c1.3-3.2,1.6-6.7,1.1-10.1
	c-0.3-1.7-0.2-3.6-0.8-5.3c-1.2-3.3-2.7-6.2-6.1-7.8c-2-1-4.1-0.9-6.2-0.9c-2.2-0.2-4.4,0.2-6.4,1.2c-2.4,1.3-4.3,2.9-5,5.6
	c-0.2,0.9-0.6,1.7-1.8,1.4c-1-0.3-1.5-1.2-1.3-2.2c0-0.1,0-0.2,0.1-0.2c1.4-3.3,3-6.2,6.6-8.1c4-2.1,8.1-2,12.2-1.4
	c5.4,0.8,8.3,4.6,10.5,9.1c1.8,3.7,1.9,7.6,1.7,11.6c-0.1,1.8-0.3,3.6-0.5,5.4c-0.1,0.9-0.3,1.7-0.7,2.5c-2.7,5.2-8.1,8.4-13.9,8.2
	c-2.7,0-5.8,0.4-8.3-1.6c-0.6-0.5-1,0.1-1,0.7c-0.3,2.4-0.5,4.8-0.5,7.2c0,1.9-0.4,3.9-1.2,5.7c-0.5,1.6-0.9,3.3-1.2,5
	c-0.5,2.2-1.6,4.1-3.1,5.7c0.9,0.8,2.1,1.1,3.2,0.8c0.5-0.1,1.1,0,1.6,0.1c1.8,0.4,3.5,0.6,5.3,0.7c2.2,0.1,4.5,0.1,6.8,0
	c3.2-0.1,6.4,0,9.6-0.1c3.8-0.2,7.6-0.6,11.4-1.3c2.8-0.5,5.5-1.2,8.3-1.6c3.5-0.6,7-1.7,10.2-3.3c3.7-1.6,7.5-3.2,11-5.1
	c6.5-3.4,13.2-6.8,18.7-11.9c3.2-2.8,6.1-6.1,8.6-9.6c0.8-1.2,1.8-2.1,2.7-3.2c2.6-3.5,5-7.2,7.1-11c2.3-4,4.7-8.1,6.8-12.2
	c2.2-4.3,4-8.8,5.5-13.4c0.6-2.3,1-4.6,1.1-6.9c0.3-4.5,1-9,1-13.6c0-4.7-0.7-9.4-1.9-13.9c-1.5-6.1-4.2-11.8-6.8-17.4
	c-2.4-5.5-5.3-10.8-8.7-15.8c-1.3-1.8-2.8-3.5-4.4-5.1c-2.5-2.8-5.2-5.4-8-7.9c-0.7-0.6-1.2-1.6-1.9-2.4c-2.2-2.3-5-4-7.4-6.1
	c-3.5-3-7.2-5.7-11.1-8.2c-5.2-3.4-10.4-6.9-15.8-9.9c-6.5-3.6-13.1-7.1-19.6-10.7c-2.7-1.5-5.5-2.6-8.4-3.4c-2.4-0.6-4.5-2-6.9-2.7
	c-4.7-1.3-9.3-3.2-14-4.5c-2.6-0.7-5.3-1.5-7.9-2.2c-2.4-0.7-4.9-1.2-7.4-1.8s-4.8-1.1-7.2-1.5c-1.2-0.1-2.3-0.5-3.3-1.1
	c-0.6-0.5-1.4-0.8-2.1-0.9c-4.2-0.7-8.2-2.3-12.3-3.4c-2.5-0.6-4.8-1.8-7.2-2.4c-1.1-0.5-2.4-0.7-3.6-0.7c-1.5,0.3-3.1-0.1-4.3-1.1
	c-2.2,0.5-3.8-1.6-6.1-1.2c-1.7,0.3-3.4-0.1-4.7-1.2c-0.8-0.6-1.9-0.7-2.9-0.3c-0.7,0.2-1.2,0.3-1.5-0.4c-0.1-0.2-0.5-0.3-0.8-0.3
	c-2.3-0.1-4.5-0.4-6.7-0.8c-0.5-0.1-1.1-0.1-1.6,0.1c-0.7,0.4-1.6,0.4-2.2-0.2c-0.2-0.2-0.7-0.3-0.9-0.2c-2.4,1.8-4.8-1-7.1,0.1
	c-1.5-1-3.3-0.9-4.9-1.2c-4.2-0.9-8.5-0.7-12.8-1.4c-2-0.3-4-0.8-6-0.2c-0.8,0.2-1.7,0.1-2.4-0.4c-1.1-1-2.5,0.4-3.5-0.3
	c-1.2-0.8-2.2-0.6-3.5-0.1c-0.9,0.4-2.1,0.3-2.9-0.3c-0.2-0.2-0.4-0.3-0.6-0.4c-1.3-0.4-2.7,0.5-3.8,0.1c-1.2-0.6-2.5-0.7-3.7-0.4
	c-1.5,0.4-3.1,0.4-4.7,0c-2.2-0.3-4.3-0.4-6.5-0.4c-1.1,0-2.2-0.4-3.4-0.5c-1.8-0.2-3.4,0.5-5.2,0.4c-0.7,0-1.3-0.5-2-0.4
	c-1.7,0.1-3.4-0.6-5.2,0.3c-1.1,0.6-2.7,0.2-3.9,0s-2.3,0.2-3.5,0c-0.6-0.1-1.4,0.6-2.2-0.1c-0.3-0.2-0.6-0.2-0.9-0.1
	c-1.8,0.5-3.6,0.2-5.4,0.5c-0.8,0.1-1.5,0.3-2.2,0.6c-0.3,0.2-0.5,0.5-1,0.2c-0.9-0.5-1.8-0.8-2.2,0.7c-0.1,0.3-0.5,0.3-0.8,0.3
	c-0.7,0.1-1.4,0.1-2.1,0c-1.5-0.1-2.9-0.6-4.2,0.4c-0.4,0.2-0.8,0.2-1.1,0.1c-4.2-0.9-8,0.7-12,1.3c-0.8,0.1-1,0.8-1.4,1
	c-1.1,0.5-2.4,1-3.7,0.3c-0.6-0.3-1.3-0.2-1.7,0.3c-0.6,1-1.9,0.3-2,0.6c-0.6,1.4-1.4,0.4-2.1,0.4c-0.4,0-1-0.3-1,0.5
	c0,0.2,0,0.4-0.2,0.4c-0.8-0.1-1.7-0.7-2.4,0.2s-1.4,0.7-2.3,0.3c-0.4-0.2-0.9,0.1-1.4,0.5c-0.9,0.9-2.2,1.3-3.4,0.9
	c-0.2-0.1-0.5,0-0.7-0.1c-1.2-0.5-1.3,1.8-3,1c-0.9-0.5-2.2,0.4-3,1.4c-0.2,0.2-0.5,0.4-0.8,0.4c-4.4,0.4-4.3,0.5-7.6,2.5
	c-1.9,1.1-3.9,1.9-6,2.6c-0.9,0.3-1.8,0.2-2.4,1.2c-0.2,0.4-0.6,0.4-1,0.2c-0.2-0.1-0.5-0.3-0.6-0.1c-1.7,2.2-5,2-6.6,4.4
	c-0.2,0.3-0.6,0.5-1,0.5c-0.6,0.1-1.2,0.4-1.6,0.9c-1.2,1.7-3.2,2.2-4.8,3.3c-2.3,1.7-5,2.8-6.9,5.1c-0.8,1-2.7,1.1-3.4,2.1
	c-0.7,1.1-1.6,2.1-2.7,2.8c-1.5,0.8-2.8,2-3.7,3.4c-0.9,1.5-2.7,2-3.8,3.4c-1.6,2-3.5,3.8-5.2,5.6c-0.9,0.9-2.1,1.4-2.6,2.6
	s-1.6,1.8-2.4,2.7c-0.9,1.1-2.1,2.2-3.1,3.4c-2.5,2.7-4.5,5.8-7,8.4c-1.8,1.9-3,4.2-4.6,6.1c-1.3,1.5-2.1,3.5-3.2,5.1
	c-4.5,6.6-5.9,14.3-7.8,21.8c-0.6,2.5-0.9,5.1-1.1,7.6c-0.7,7.3-1,14.6-1.1,22c0,4.9,0.5,9.8,1.4,14.6c0.8,4.4,1.6,8.7,2.5,13.1
	c0.5,2.4,1.5,4.7,2.2,7.1c1.3,4.3,2,8.8,3.7,13.1c0.9,2.6,2.2,5,3.7,7.3c1.2,1.7,1.9,3.7,2.9,5.5c2.4,4.3,5.5,8.3,9,11.8
	c2.4,2.2,5,4.1,7.5,6.2c1.4,1.2,3,2.2,4.6,3.1c1.1,0.5,2.2,1.2,3.2,2c1.1,0.8,2.4,1.4,3.7,1.8c1,0.3,1.8,0.8,2.6,1.5
	c1.9,1.9,4.3,2.8,6.6,4c2.9,1.4,5.9,2.6,9,3.6c1.6,0.6,3.3,0.9,5,1.4c2,0.5,4,0.7,5.9,1.2c2.5,0.5,5,0.9,7.6,1
	c3.6,0.2,7.2,0.6,10.7,0.9c1.3,0,2.6-0.1,3.9-0.2c3.1-0.2,6.2,0,9.4-0.3c4.2-0.3,8.3-0.4,12.5-0.8c3.5-0.3,7.1-0.6,10.7-0.8
	c1.1-0.1,2.3,0.3,3.5,0.3c0.2,0,0.3,0,0.5,0c1.2,0.1,2.2-0.7,3.5-0.4s1.2,2,2.7,2c-2.9,2-6.4,3.1-9.9,3.2c-0.8,0-1.7-0.1-2.5-0.2
	c-3.6-0.3-7.3-0.1-10.9,0.5c-1.6,0.2-3.1,0.3-4.7,0.2c-6-0.2-12,0.8-18,0.3c-4.4-0.4-8.8-0.4-13.2-0.8c-4.1-0.4-8.1-1-12.2-1.4
	c-1.5-0.3-3-0.7-4.4-1.3c-3.9-1-7.7-2.6-11.3-4.5c-1.1-0.7-2.2-1.4-3.2-2.2c-3.7-3.1-8-5.2-12-7.7c-6.2-3.7-11.8-8.2-16.6-13.5
	c-1.9-2.3-3.6-4.7-5-7.3c-1.9-3.1-3.7-6.3-5.3-9.6c-2.1-4.5-3.8-9.3-4.8-14.2c-0.9-3.7-2.2-7.3-3.2-11s-1.5-7.8-2.2-11.7
	c-0.4-2.2-0.6-4.5-1.1-6.7c-0.3-1.8-0.5-3.6-0.5-5.4c0-8.5,0-17,0.8-25.6c0.6-6.9,2.3-13.5,4-20.1c1.2-4.6,3.6-8.8,6.1-12.9
	c2.5-4.1,5.3-8.1,8.5-11.8c3.9-4.6,7.8-9.2,12-13.5c2.9-3,5.6-6,8.5-9c4.7-4.9,9.9-9.3,15.5-13.2c5.3-3.6,10.5-7.3,16-10.6
	c3.7-2.3,7.8-4,11.7-5.9c2-1,4.1-0.9,6-1.6c0.7-0.3,1.5-0.1,1.8-1c0.2-0.5,0.6-0.2,1-0.2c1.3,0,2.7,0,3.6-1.3c0.2-0.3,0.7-0.4,1-0.1
	c0,0,0,0,0,0c0.3,0.2,0.8,0.2,1.1-0.1c1.2-1.2,2.8-1,4.3-1.1c0.3,0,0.8-0.1,0.9-0.3c0.6-1.8,2.2-1.2,3.4-1.4
	c3.4-0.6,6.9-0.5,10.2-1.7c1.4-0.4,2.7-0.6,4.1-0.8c0.9-0.2,2.3-0.2,2.4-0.6c0.4-1.7,1.1-0.3,1.6-0.3c0.9,0,1.7-0.2,2.5-0.5
	c0.8-0.2,1.7-0.3,2.5-0.4c4.6-0.8,9.3-1,14-1.6c4.3-0.6,8.5-0.9,12.8-1.2c5-0.3,10-0.3,15-0.1l15.9,0.5c2.9,0.1,5.9,0.2,8.8,0.4
	c0.8,0.1,1.6,0,2.3-0.2c0.6-0.3,1.4-0.2,1.9,0.3c1.1,0.7,2.6,0.8,3.8,0.1c0.7-0.4,1.1,0,1.6-0.2c1.1-0.4,1.3,1.1,2.1,1
	c0.9-0.1,1.5-0.6,2.3-0.5c0.2,0,0.4,0,0.5,0.1c0.2,0.3-0.5,0.7-0.1,0.7c1.7,0,3.5,1,5,0.4c1-0.4,2.1-0.4,3.1-0.2
	c0,0.8-0.8,0.1-1,0.6c0,0.2,0.1,0.2,0.3,0.2c1.6-0.1,3.3,0.4,4.9-0.1c1,1.1,2.5,0.3,3.6,0.8c1.5,0.7,3.2-0.2,4.6,0.8
	c0.1,0.1,0.6,0,0.6-0.1c0.4-1.1,1.1-0.7,1.6-0.3c1.1,1,2.4,0.8,3.7,1c2.2,0.2,4.3,0.4,6.5,0.5C547.6,386.9,548.4,386.6,548.9,386
	L548.9,386z M305.5,491.3c0.2-0.6,0.2-1.3,0-2C305.3,490,305.3,490.7,305.5,491.3z"/>
<path class="st2" d="M316.6,733.8c1.5,1.3,2.5,2.3,3.8,2.9c2.5,1.2,4.8,2.9,6.7,5c2.6,2.7,5.6,4.8,8.4,7.1s5.6,5.2,8.5,7.7
	c1.3,1.2,2.7,2.3,4.1,3.4c4.3,2.9,7.9,6.6,11.7,10c4.8,4.4,9.9,8.3,15,12.3c3.7,2.9,7.5,5.6,11.3,8.3c3.2,2.3,6.5,4.6,9.8,6.8
	c0.7,0.6,1.5,0.9,2.3,1c0.6-0.1,1.1,0.2,1.5,0.6c0.9,1.6,2.4,1.4,3.7,1.2c2.3-0.4,4.5-1.2,6.4-2.5c3.5-2.4,6.1-5.6,9-8.6
	c1.9-2,4-4,6-5.9c3.1-2.9,6.8-5.3,9.1-9c0.3-0.5,0.8-1,1.4-1.2c1.5-0.8,2.9-1.9,4-3.2c4.2-4.4,8.7-8.4,13.5-12.1
	c1.1-0.8,2.1-1.8,3.2-2.7c0.5-0.4,1.1-0.7,1.7-0.1c0.5,0.4,0.6,1.2,0.2,1.7c-0.2,0.4-0.5,0.8-0.8,1.1c-1.6,1.4-3.1,3.1-5,4.2
	c-0.4,0.2-0.8,0.5-1.1,0.8c-4,4.3-8.5,8-12.7,12c-0.8,0.8-1.5,1.5-2.3,2.3c-2.4,2.7-5.2,4.8-7.8,7.3c-2.4,2.3-4.7,4.8-6.8,7.4
	c-2.4,3.1-5.1,6.1-8,8.8c-1.5,1.3-3.1,2.3-4.9,3c-0.9,0.4-1.8,1-2.7,1.3c-2.1,0.6-4.2,1.6-6.5,0.6c-0.6-0.3-1.3-0.5-2-0.6
	c-0.6-0.2-1.3-0.4-1.4-1.1c-0.3-1.5-1.5-2.4-2.5-3.3c-3.3-2.9-6.7-5.6-10.2-8.2c-2.7-2-5.3-4.1-8-6.1s-4.8-4.3-7.4-6.1
	c-3.9-2.7-7.1-6.3-11.1-8.9c-1.5-1.1-2.8-2.4-4-3.8c-1.7-1.8-3.7-3.3-5.8-4.6c-1.6-1.1-3.1-2.4-4.5-3.7c-2.3-2.1-4.5-4.3-6.9-6.3
	c-3.1-2.6-6-5.6-9.2-8.1c-3-2.4-5.9-5-9.3-6.8c-1.5-0.7-2.9-1.6-4.2-2.7c-0.4-0.3-1-0.4-1.6-0.3c-1.7,0.1-3.4,0.2-5.1,0.5
	c-4.6,0.6-9.3,0.5-13.8,1.8c-2.5,0.7-5.1,1.3-7.7,2c-2.3,0.5-4.6,1-6.9,1.2c-4.2,0.6-8.2,1.8-12.3,2.8c-3.9,0.9-7.8,1.5-11.6,2.5
	c-5.3,1.4-10.8,1.6-16.1,2.8c-0.8,0.2-1.5,0.4-2.2,0.6s-1.3,0.5-1.8-0.4c-0.1-0.2-0.4-0.3-0.7-0.1c-0.1,0-0.1,0.1-0.1,0.1
	c-0.7,1.1-1.4,0.5-2.4,0.4c-1.3-0.1-2.5,0.3-3.6,1c-0.9,0.6-2,0.9-3.1,0.8c-2.1-0.2-4.2,0-6.3,0.5c-3.5,1-7.1,1-10.6,1.6
	c-2.4,0.5-4.8,0.6-7.2,0.2c-0.2,0-0.3,0-0.5,0c-2.9,0.6-5.4-1.2-8.1-1.5c-0.5,0-0.8-0.5-1.2-0.8c-1.2-1-2.3-2.2-4-2.2
	c-0.3,0-0.6-0.2-0.8-0.5c-0.8-1.8-2.7-2.2-3.9-3.6c-0.9-0.9-2.1-1.5-3.3-1.9c-0.8-0.3-1.5-0.8-1.9-1.6c-1.4-2.5-3.2-4.7-5.2-6.8
	c-1.9-1.8-3.6-3.9-5.4-5.8c-2.1-2.2-4.2-4.4-6.3-6.6c-0.7-0.7-1.3-1.5-1.8-2.5c-0.6-1.5-1.3-3-3.1-3.7c-0.3-0.1-0.5-0.5-0.8-0.9
	c-3.8-5.3-7.9-10.5-11.5-15.9c-0.9-1.3-2.4-2.3-3.1-3.8c-1.5-3-3.5-5.6-4.8-8.7c-1.1-2.5-2.3-4.9-3.3-7.5c-1.7-4.6-2.9-9.3-2.6-14.3
	c0-0.2-0.1-0.5,0-0.7c1.4-1.9,1.1-4.4,2-6.5c0.4-1,1.3-1.8,2.3-2c1.9-0.7,4-0.5,5.8,0.6c3.4,2.1,6.7,4.1,9.4,7.2
	c1.3,1.5,3,2.8,4.3,4.2c2.7,2.8,5.2,5.8,7.4,9c0.6,0.9,1.3,1.7,2.1,2.5c1.7,1.5,3.1,3.3,4.4,5.2c0.9,1.6,2,3,3.3,4.2
	c2,1.9,3.3,4.3,5.1,6.3c2.5,3,4.7,6.1,6.7,9.5c1.7,2.8,3.3,5.7,5,8.5c0.5,0.7,0.7,1.6,0.5,2.4c-0.1,0.6-0.7,1.1-1.3,1.2
	c-0.6,0.1-1.1-0.2-1.4-0.7c-2-3.4-4.7-6.4-6.4-10c-1.3-2.5-2.9-4.7-4.8-6.7c-3.9-4.4-7.1-9.3-10.8-13.8c-4.5-5.5-8.8-11.2-13.7-16.3
	c-2.8-3-5.9-5.7-9.2-8.2c-0.5-0.4-1-0.7-1.6-0.8c-2.8-0.9-4.2,0.2-4.8,2.8c-1,3.8-0.9,7.8,0.3,11.6c0.1,0.2,0,0.6,0.1,0.7
	c1.5,0.8,0.8,2.2,1,3.3c0,0.2-0.1,0.4,0,0.5c1.5,1.7,1.4,4.2,3,5.8c0.6,0.6,0.2,1.7,1,2.3c0.7,0.6,1.1,1.3,1.1,2.2
	c0.1,1.1,0.9,2.1,1.9,2.5c1,0.3,1,1.3,1.6,1.9c2.3,2.3,3.7,5.2,5.9,7.7c1.7,1.9,3.2,3.9,4.6,6c1.3,1.8,2.3,3.8,3.2,5.8
	c0.5,1.3,1.1,2.6,2.6,3.1c0.5,0.2,0.8,0.7,1.1,1.2c1.8,2.9,4,5.5,6.5,7.8c1.7,1.5,3.2,3.2,4.3,5.1c0.8,1.4,1.9,2.5,3.3,3.3
	c2.1,1.3,3.5,3.2,5.3,4.7c1.7,1.3,2.7,3.5,5,4c0.9,1.7,3,2.1,4.2,3.6c0.5,0.6,1.1,1.1,1.9,1.3c1.5,0.3,3,0.5,4.2,1.7
	c0.1,0,0.1,0.1,0.2,0.1c2.6-1,5,0.8,7.6,0.4c1.9-0.3,4,0.2,6-0.1c5.6-0.8,11.3-1.3,16.9-2.2s11.3-2.2,17-3.3
	c0.2-0.1,0.4-0.1,0.7-0.2c4.9,0.3,9.5-1.7,14.3-2.2c2.2-0.4,4.4-0.9,6.6-1.5c4.6-1.1,9.2-2.2,14-2.9c3.3-0.5,6.5-1.2,9.6-2.1
	c2.5-0.8,5.1-0.9,7.5-1.7c3.1-1,6.4-0.3,9.5-0.9c2.9-0.6,6-0.2,8.8-1c1.4-0.4,2.7,0.5,4.1,0.3c0.7-0.1,0.9,0.7,0.5,1.2
	C317.8,733.1,317.2,733.5,316.6,733.8z"/>
<path class="st2" d="M789.2,586.4c-1.2-0.1-1.6-0.8-1.1-1.8c1-2.5,2.3-5,3.8-7.3c0.4-0.6,0.7-1.9,2.1-1.3c0.3-0.4,0.5-0.9,0.6-1.4
	c-0.1-2.2,1.3-3.7,2.2-5.5c0.3-0.5,0.8-0.8,1.4-0.8c0.6-0.1,1-0.2,0.7-1c-0.2-0.5,0.1-0.9,0.7-0.9c0.7-0.1,1.3-0.6,1.5-1.3
	c0.5-2.2,2.3-4,4.5-4.4c0.4-0.1,0.7-0.4,0.8-0.8c0.3-0.8,1-1.4,1.9-1.5c0.5-0.1,1-0.5,1.3-1c1-1.7,2.9-2.7,4.8-2.5
	c1.1-0.1,2.1-0.5,3.1-1c1.7-0.7,2.9-0.1,4.2,1.1c2.7,2.5,3.3,5.7,3.3,9.1c0,3.1-0.3,6.2-0.8,9.3c-0.1,0.7-0.1,1.4-0.1,2.1
	c0,5-0.8,9.9-2.3,14.7c-0.9,2.5-1.5,5.1-2.5,7.7c-1.8,4.7-3.2,9.5-4.7,14.3c-0.9,3-2.1,6-2.6,9.1c-0.3,1.4-0.8,2.8-1.5,4.1
	c-0.4,1-0.7,2.1-0.9,3.2c-0.3,1.3-0.8,2.6-1.3,3.9c-0.7,2.5-2.4,4.5-2.8,7.1c-0.4,1.8-1,3.4-2,5c-1.7,2.9-2.7,6.1-4.1,9
	c-1.3,2.6-2.6,5.2-4,7.7s-3.8,4.5-5,7.3c-0.2,0.3-0.4,0.5-0.7,0.6c-2.9,1.7-5.4,4-8.9,4.4c-0.8,1.2-2.4,0.6-3.5,1.4
	s-2.4,0.2-3.6,0.5c-2,0.5-3.9,1.1-5.8,1.8c-2.2,0.9-4.4,1.8-6.8,1.8c-2.1,0-4.1,0.9-6.3,0.6c-0.3,0-0.6,0-0.9,0.2
	c-2.3,1.5-4.9,1.5-7.5,1.6c-0.4,0-0.8,0-1.1,0.2c-1,0.8-2.4,1-3.5,0.5c-0.7-0.2-1.2,0.2-1.8,0.3c-3,0.7-5.9,1.5-8.8,2.2
	c-0.9,0.2-1.9,0.2-2.8,0c-4.7-0.3-9.5,0.2-14,1.5c-2.1,0.5-4.2,1.5-6.5,0.9c-1.1-0.2-2.2-0.1-3.2,0.3c-2.8,0.7-5.8,0.1-8.6,1
	c-0.7,0.2-1.4,0.2-2.1,0c-3.4-0.4-6.7,0.5-10,0.6c-3.2,0-6.3,0.3-9.4,0.6c-2.3,0.1-4.5,0.4-6.8,0.9c-1.3,0.3-2.7,0.2-4,0.4
	c-0.9,0.1-1.7-0.3-2.3-1c-0.4-0.4-0.8-0.9-0.5-1.5c0.2-0.5,0.8-0.8,1.4-0.7c3,0.6,5.9,0.1,8.8-0.2c4.3-0.5,8.7-0.6,13-1.2
	c2.5-0.3,5-0.5,7.5-0.4c3-0.2,6-0.5,9-0.9c2.3-0.3,4.7-0.3,7-0.4c3.6-0.2,7-1.3,10.6-1.7c2.7-0.4,5.4-0.7,8.1-0.8
	c5.8,0,11.5-0.8,17.1-2.4c2.3-0.6,4.6-1,6.9-1.3c1.2-0.1,2.3-0.3,3.4-0.7c3.3-1.1,6.7-1.5,10-2.2c3.7-0.9,7.5-1.5,11-3
	c2-0.8,4.2-1.1,6.1-2.1c2.4-1.3,4.5-3.2,6-5.4c0.5-0.8,1.1-1.5,1.8-2.2c0.9-0.9,1.6-1.9,2.1-3.1c1.1-2.4,2.7-4.5,4-6.8
	c1.6-3.2,3.1-6.5,4.3-9.8c1.4-3.2,2.7-6.5,4.1-9.7c0.7-1.1,1.1-2.4,1.1-3.8c0-0.2,0-0.5,0.1-0.7c2.8-3.3,3.4-7.6,5-11.4
	c1.8-4.1,3.1-8.3,3.8-12.7c0.2-1.7,1.6-3.2,2.1-4.9c0.7-2.5,1.7-5,2.4-7.5c0.4-1.1,0.8-2.2,1.1-3.3c0.8-5.2,1.3-10.5,1.5-15.8
	c0.1-0.9,0.3-1.8,0.8-2.6c0.7-1.5,1-3.1,0.7-4.7c-0.2-0.9-0.2-1.9,0-2.8c0.2-0.8,0.1-1.5-0.2-2.3c-0.5-1.8-1.2-3.8-3-4.1
	c-2.5-0.4-5.1-0.3-6.9,2.1c-0.1,0.2-0.3,0.5-0.5,0.5c-2.5,0-3.8,2.1-5.5,3.3c-1.2,1-2.2,2.1-3.1,3.4c-1.9,2.3-3.6,4.7-5,7.3
	c-0.9,1.6-2.2,3.1-3.2,4.8c-0.6,1-1.3,1.8-1.3,3.1c-0.1,0.6-0.4,1.2-0.8,1.6c-1.1,1.3-2,2.8-2.5,4.4c-0.4,1.5-1.1,3-2,4.3
	c-0.5,0.7-0.8,1.6-0.7,2.4c0.1,1.2-0.3,2.3-0.9,3.3c-0.7,1.3-1.5,2.5-2.4,3.7c-1,1.3-1.3,2.8-2.1,4.2c-2.1,3.7-3.9,7.6-5.8,11.4
	c-0.8,1.8-1.3,3.7-2.2,5.4c-1.8,3.5-2.5,7.4-4.3,10.8c-0.8,1.5-0.9,3.3-2.4,4.4c-0.6,0.5-1.1,1.2-2,0.5c-0.7-0.5-1-1.5-0.5-2.2
	c0.7-1.8,1.7-3.5,2.3-5.3c1.3-3.5,3.2-6.7,4.7-10.1c1.9-4.4,3.9-8.8,6.2-13c0.5-1,0.7-2.2,1.8-2.9c0.2-0.1,0.2-0.5,0.3-0.6
	c0.8-0.9,0.5-2.2,1-3.3s1.6-1.2,2-2.3c0.3-0.6,0.5-1.2,0.6-1.9c-0.1-1.5,0.1-2.8,1.6-3.5c0.3-0.1,0.4-0.4,0.3-0.7c0,0,0,0,0-0.1
	c-0.7-1.8,0.8-3,1.2-4.5c0-0.2,0.3-0.5,0.5-0.3c1.1,0.8,1.2-0.7,1.8-0.8c0.1-0.2,0.1-0.4,0.2-0.6c0-0.4,0.8-0.5,0.4-1.1
	c-0.1-0.1-0.2-0.1-0.4-0.1c-0.7,0.2-0.6,0.8-0.5,1.3C788.8,585.9,789,586.2,789.2,586.4z"/>
<path class="st2" d="M601.2,760.7c0.8-2.5,1.2-5.1,1.5-7.8c0.3-3.1,1.5-6,2.2-9.1c0.8-3.4,1.8-6.8,2.6-10.2
	c1.4-6.8,3.2-13.5,5.4-20.1c2.1-6,3.8-12.2,5.7-18.3c2.2-6.9,4.6-13.8,7-20.6c1-2.8,2.1-5.5,3.1-8.3c0.7-1.8,1.1-3.8,3.1-4.8
	c0.5-0.3,0.8-1,1.1-1.5c1.7-2.8,4.5-4.8,7.7-5.5c6.4-1.4,12.9-2.3,19.4-2.7c5.8-0.5,11.6-1.4,17.4-2.4c3.8-0.7,7.7-1,11.6-1.3
	c3-0.2,6.1-0.6,9.1-0.9s5.9-0.7,8.8-1.2c2.2-0.4,4.5-0.3,6.8-0.7c3.6-0.6,7.2-1.3,10.9-1.6c5-0.5,9.9-1.8,15-2.3
	c5.6-0.6,11.2-1.2,16.8-1.7c0.5,0,1.1,0,1.4-0.2c2.2-1.8,4.1-0.2,6.1,0.3c0.3,0.1,0.5,0.4,0.5,0.7c0,0.4-0.3,0.5-0.6,0.6
	c-1.5,0.3-2.9,1-4.6,1c-2.8,0-5.6,0.2-8.4,0.4c-4.3,0.4-8.5,1-12.8,1.3c-1.8,0.2-3.5,0.7-5.3,0.9c-6.9,1.1-13.9,2-20.8,2.9
	c-5.4,0.7-10.8,1.7-16.2,2.5c-1.8,0.3-3.7,0.5-5.6,0.6c-4.5,0.3-8.8,1-13.2,1.7c-4.7,0.8-9.4,1.3-14.1,2.3c-2.8,0.5-5.6,0.8-8.4,0.8
	c-3.1,0.2-6.1,1.1-9.2,1.7c-1.6,0.2-3.2,0.7-4.7,1.4c-1.5,0.8-2.9,1.8-4,3.1c-2,2.5-4.4,4.8-5.7,7.8c-0.2,0.6-0.4,1.3-0.4,2
	c-0.6,2.6-1.5,5.2-2.9,7.5c-0.6,1.2-1.1,2.5-1.5,3.8c-0.7,2.5-1.8,4.9-2.2,7.5c-0.2,0.5-0.4,1.1-0.7,1.5c-0.6,1.2-1,2.6-1.2,4
	c0,1.6-0.5,3.2-1.4,4.6c-0.5,0.7-0.1,2-0.8,2.7c-1.6,1.7-1.7,4-2.4,6c-0.1,0.2-0.2,0.4-0.2,0.7c0.3,2.9-0.9,5.6-1.7,8.3
	c-1.4,4.7-2.4,9.5-3.4,14.3c-0.8,3.7-2.3,7.1-3.2,10.8c-0.1,0.6-0.5,1.2,0.2,1.6c0.2,0.1,0.3,0.8-0.1,0.7c-1.6-0.3-1.5,1.1-1.5,1.8
	c-0.2,2.8-0.8,5.5-1.8,8.1c-0.8,2.2-1.8,4.4-2.9,6.5c-1.7,0.6-1,1.9-1,3c0,0.3,0.1,0.6,0,0.9c0,0.7-0.5,1.4-1.2,1.5
	c-0.7,0-1.4-0.5-1.5-1.2c-0.2-0.6-0.2-1.2-0.2-1.9c0.4-3.3-0.5-6.5-0.7-9.8c-0.2-3.8-1-7.4-1-11.2c-0.1-1.7-0.3-3.4-0.6-5.1
	c-0.9-5.6-1.1-11.2-1.7-16.8c-0.4-4-0.9-8.1-0.9-12.1c-0.1-5.8,0-11.7-0.2-17.5c-0.2-4.1-0.5-8.2-0.7-12.4c-0.1-1.8,0-3.6-0.1-5.4
	c0-2.9-0.5-5.7-1.4-8.4c-0.6-2-2.5-3.3-4.6-3.1c-1.1,0-1.2-0.6-1.5-1.1s0.2-1.2,0.7-1.6c2.2-1.3,5.1-0.9,6.9,0.9
	c1.9,2.2,3.1,5,3.3,7.9c0.3,5.1,0.4,10.1,0.3,15.2c0,2.1,0.4,4.2,0.4,6.2c0.1,6.2,0,12.5,0,18.7c0,3,0.4,5.9,0.4,8.9
	c0,5.5,0.4,10.9,1,16.4c0.6,5.5,0.9,11,1.8,16.5C600.8,753.9,600.9,757.3,601.2,760.7z"/>
<path class="st2" d="M438.9,582.4c-0.1,1-1.2,2,0.2,2.9c0.5,0.3-0.4,1.3,0,2c0.2,0.4,0.2,0.9,0.4,1.3c0.1,0.1,0.9-0.8,0.8,0.3
	c-0.1,0.4-0.4,0.9-0.4,1.3c0.1,0.5,0.2,0.9,0.4,1.3c0.2,0.4,0.3,0.9,0.4,1.3c0.1,0.5,0.4,1,0.6,1.5c0.2,0.4,0.2,0.9,0.3,1.4
	s0.4,0.8,0.6,1.3c1.2,3.6,3.3,6.7,5.2,9.9c2.3,3.7,4.9,7.1,7.9,10.3c4.9,5.6,10.2,10.8,17,14c5.3,2.7,10.9,4.5,16.8,5.6
	c2.5,0.4,4.9,0.8,7.4,1c4.5,0.5,8.9-0.2,13.3-0.5s8.7-1.2,13-1.6c3.5-0.3,6.8-1.5,10.3-2.1c2.1-0.3,4.1-0.9,6.1-1.4
	c1.2-0.2,2.2-0.8,3-1.7c0.3-0.4,0.7-0.7,1.2-0.5c0.7,0.2,0.6,0.9,0.6,1.4c0,1.8-0.7,2.5-2.7,2.8c-3.8,0.5-7.5,1.5-11.2,2.4
	c-0.6,0.1-1.1,0.5-1.5,1c-0.9,1.1-1.4,1.1-3,0.5c-0.3-0.1-0.6-0.1-0.9-0.1c-2.7,0.7-5.6,0.1-8.2,1.7c-1.2,0.6-2.5,0.9-3.8,1
	c-6.5,0.8-13,1.6-19.6,0.9c-2.5-0.3-4.9-0.8-7.4-1.4c-5.4-1.3-10.6-3.1-15.5-5.6c-3.8-1.9-7.5-4.2-10.8-6.9c-1-0.8-1.6-1.9-2.5-2.8
	c-5.1-4.5-9-10.1-13-15.6c-0.4-0.6-0.7-1.2-0.9-1.9c-1.2-3.2-2.6-6.4-3.9-9.5c-1.5-3.7-2.3-7.6-2.3-11.6c-3.4,3.8-7.8,3.5-12,3.7
	c-1.5,0.1-2.4-1.4-3.4-2.3c-0.7-0.6-1.4-1.2-2.2-1.7c-1.5-0.9-2.7-2.1-3.5-3.6c-2.4-4.1-2.7-8.2-1.6-12.8c0.7-2.4,1.5-4.7,2.5-7
	c0.3-0.9,0.9-1.7,1.7-2.2c2.2-1.4,4.4-3.2,6.9-3.9c2-0.5,4-0.5,6,0c1.9,0.2,3.8,0.6,5.7,1.1c0.9,0.3,1.9,0.1,2.7-0.6
	c0.7-0.5,1.5-0.9,2.1-1.5c3.8-3.2,7.9-6.2,10.5-10.6c0.5-0.8,1.2-1.4,1.9-2.1c2-2.2,3.9-4.6,5.6-7c1.9-2.6,3.6-5.3,5.5-7.8
	c2.8-3.9,4.7-8.3,6.6-12.6c1.7-3.9,3.5-7.8,5.2-11.8c0.6-1.6,2.4-2.2,3-3.9c0.2-0.5,0.6-0.2,0.9,0.1c0.2,0.4,0.2,0.9,0,1.4
	c-0.6,1.4-1.2,2.9-1.9,4.2c-1.4,2.7-2.9,5.3-3.2,8.4c-0.2,0.7-0.5,1.3-0.8,1.9c-1.4,3.2-2.6,6.3-4.1,9.4c-1,2.1-2.7,3.8-3.9,5.8
	c-2.6,4.5-6,8.5-9.3,12.5c-2,2.3-3.8,4.7-5.4,7.3c-1.3,2.1-3,4-5,5.5c-2.3,1.8-4.7,3.5-7,5.3c-0.8,0.8-2.1,0.9-3,0.4
	c-1.5-0.9-3.4-1.3-5.1-1c-0.8,0.2-1.2-0.6-2-0.5c-2.8,0.3-5.6,0.6-8,2.6c-2,1.7-3.3,3.9-3.9,6.4c-0.2,0.4-0.3,0.9-0.2,1.4
	c0.5,2.4,0.3,5,1.1,7.4c0.1,0.3,0.2,0.6,0.3,0.9c2.5,3.5,5.7,5.8,10.1,6c0.3,0,0.6-0.1,0.9-0.2c2-1.2,4.6-1,6.6-2.2
	C437.2,582.4,438.1,582.3,438.9,582.4z"/>
<path class="st3" d="M826,408.5c0.2-5.8,2-10.3,6-13.8c1.6-1.3,3.3-2.4,5.1-3.5c1.1-0.7,1.9-1.9,3.4-2.2c2.2-0.4,4.3-0.7,6.4,0.1
	c0.6,0.2,1.2,0.3,1.8,0.4c4.5,0.6,7.9,2.6,9.4,7.2c0.5,1.4,1.4,2.7,1.7,4.2c0.6,3.7,1.6,7.5,0.3,11.1c-1.2,3.4-2.3,7-5.8,9.2
	c-2.6,1.5-5.5,2.5-8.4,2.9c-2.1,0.5-4.3,0.4-6.5-0.1c-4.3-1.2-8.2-3.2-10.8-6.8C827,414.7,825.4,411.5,826,408.5z"/>
<path class="st2" d="M644,336.2c-0.4-1.1,0.8-1.3,0.5-2.1c-1.3,0.7-1.9,1.1-1.6,1.9c0.4,0.9-0.1,1.3-0.6,1.8
	c-3.7,4.2-8.1,7.9-12.8,10.9c-4.2,2.6-8.6,4.7-13.2,6.3c-5.8,2.2-11.7,4.3-17.5,6.5c-2.7,0.8-5.4,1.4-8.2,1.8
	c-7.4,1.4-15,1.3-22.4,0.8c-4.5-0.3-9.2-0.3-13.6-1.5c-1.5-0.3-3.1-0.4-4.6-0.4c-3.5-0.5-7-1.3-10.5-2.3c-4.8-1.3-9.3-3.3-13.5-5.8
	c-3.1-2-5.8-4.4-8.2-7.2c-0.9-1-1.8-2-2.7-3.1c-2.1-3-2.5-6.2-2.6-9.7c0-1.6,0.5-3.2,1.3-4.6c1.5-3,3.9-5.3,5.7-8
	c0.2-0.4,0.6-0.8,1-1c3.7-2,7.4-3.9,11.1-5.9c0.6-0.3,1.3-0.6,2-0.8c6.3-2.4,12.8-4.4,19.4-5.9c3.2-0.8,6.5-1.3,9.9-1.6
	c3.3-0.2,6.7-0.1,10-0.3c3.1-0.2,6.2-0.2,9.3-0.6c1.9-0.2,3.9-0.1,5.8-0.2c5-0.2,10-0.7,15-0.5c0.3,0,0.6,0,0.9,0
	c3.4-0.7,6.8-0.2,10.2,0.2c3.9,0.6,7.9,0.1,11.8,1c4.1-0.8,7.8,0.9,11.7,1.6c4.1,0.8,7.7,3,10.2,6.4c0.2,0.2,0.4,0.5,0.4,0.8
	c0.8,3.4,1.5,6.9,0.4,10.4c-0.6,1.8-1.1,3.7-1.4,5.6C646.9,332.7,645.5,334.4,644,336.2z M646.2,320.6c0-2.9-0.2-3.4-1.1-4.9
	c-1.8-3.1-4.9-4.5-8-5.6c-4-1.4-8.3-1.9-12.5-2.8c-0.4-0.1-0.8-0.1-1.1,0c-1.1,0.7-2.1,0.2-3.1-0.1c-0.8-0.2-1.5-0.2-2.3-0.1
	c-2.5,0.3-5.1,0.2-7.5-0.3c-2.9-0.5-5.9-1.1-8.8-0.2c-2,0.6-3.9,1.2-5.9,0.2c-0.2-0.1-0.5-0.1-0.7,0c-1.7,0.6-3.5-0.6-5.2,0.4
	c-2.1-0.7-4.2-0.1-6.4,0c-2.9,0-5.8,0.3-8.8,0.4c-0.6,0-1.2,0.2-1.8,0.4c-1.6,0.7-3.4,0.7-5,0.2c-1.1-0.3-2.3-0.4-3.5-0.2
	c-0.7,0.1-1.3,0.2-1.9,0.4c-2.1,0.6-4.4-0.1-6.3,1.3c-0.3,0.2-0.7,0.3-1.1,0.2c-1.9-0.2-3.9,0.1-5.6,1.1c-1.3,0.6-2.8,1-4.3,1.1
	c-1.5,0.1-2.7,0.8-4.1,1c-1.1,0.1-2.1,0.6-3,1.2c-1.9,1.6-4.1,2.5-6.6,2.7c-2.8,0.5-5.5,1.8-7.6,3.8c-1.7,1.5-3.3,3.3-4.7,5.2
	c-3.1,4-5.3,8.1-2.8,13.5c2.1,4.3,5.1,7.9,9,10.7c3.1,2.4,6.9,3.8,10.5,5.4c4.6,2,9.6,2.9,14.5,3.8c4,0.9,8,1.2,12.1,1
	c0.4,0,0.8,0,1.2,0.1c3.6,0.3,7.2,1.2,10.9,0.5c0.2,0,0.5,0,0.7,0c2.9,0,5.9,0.4,8.8-0.1c2.7-0.4,5.5-0.4,8.1-1.1
	c5.7-1.5,11.4-3.3,16.9-5.5c4.4-1.7,8.8-3.6,13-5.7c2.1-1,4.2-2.3,6.1-3.7c1.5-1,2.8-2.3,4.3-3.1c3.7-2.1,6.5-5.1,9.3-8.1
	c1.7-1.5,2.7-3.7,2.8-6c0-0.4,0-0.8,0.2-1.1C646.2,324.6,646,322.4,646.2,320.6L646.2,320.6z M615.9,353.5c-1.8-0.8-2.2,0.7-3.3,1.3
	C613.8,354.8,614.9,354.3,615.9,353.5L615.9,353.5z M604.3,357.8c-0.8,0.1-1.8-0.6-2.3,0.5C603,359.1,603.5,358.3,604.3,357.8
	L604.3,357.8z M620.6,351.8c-0.6-0.3-1.2-0.4-1.6,0.3c-0.1,0.1-0.1,0.3,0.1,0.4c0.6,0.2,1-0.1,1.4-0.5
	C620.5,351.9,620.5,351.8,620.6,351.8L620.6,351.8z M598,360c0.1-0.1,0.1-0.3-0.1-0.3c-0.5-0.2-0.8,0.1-1.2,0.4s0,0.4,0.2,0.4
	C597.3,360.6,597.8,360.4,598,360z"/>
<path class="st2" d="M396.5,789.2c-1.5-0.3-3.6-0.2-5.2-1.9c-1.1-1.2-2.7-1.6-4-2.7c-5-3.9-9.7-8-14.3-12.4
	c-2.3-2.2-4.7-4.2-7.1-6.1c-0.6-0.7-1.2-1.4-1.8-2.1c-1.8-1.7-3.9-3.1-5.6-4.9c-2.4-2.4-5.3-4.2-7.5-6.8c-2-2.1-4.2-3.9-6.6-5.5
	c-2.1-1.5-3.9-3.4-5.1-5.7c-0.4-0.7-1-1.5-0.4-2.3c0.4-0.6,1.7-0.3,2.7,0.6c1.2,1.2,2.1,2.7,3.5,3.8c0.2,0.2,0.4,0.5,0.7,0.6
	c3.6,1.8,6.2,4.9,9.1,7.5s6.2,5.4,9.2,8.2c2.2,2.1,4.3,4.3,6.4,6.6c0.8,1.1,1.9,1.8,3.2,2.3c2.3,0.5,3.5,2.2,4.9,3.7
	s2.5,2.9,4.5,3.6c1,0.5,1.8,1.2,2.5,2.1c1.3,1.4,3,2.5,4.9,3c0.5,0.1,0.9,0.3,1.2,0.6c1.5,1.8,3.7,1.8,5.6,2.5
	c0.8,0.2,1.6,0.2,2.3-0.1c2-0.6,3.9-1.7,5.4-3.2c2.3-2.4,4.7-4.7,6.9-7.3c2.3-2.8,5.2-5.2,7.5-8c2.1-2.4,4.4-4.6,7-6.5
	c1.9-1.3,3.5-2.9,4.8-4.7c0.4-0.6,1-0.7,1.5-1.1c1.1-0.8,2.6-1,3-2.7c0.1-0.4,0.6-0.6,1.1-0.8c1.1-0.3,2.3-0.8,2.2-2.3
	c0-0.1,0-0.2,0.1-0.2c2-1.2,2.7-3.9,5.1-4.5c0.5-0.2,1-0.5,1.3-0.9c1.2-1.3,2.7-2.3,4.2-3.1c1.8-1,3.9-2.4,4.4-4.8
	c0-0.2,0.1-0.5,0.3-0.6c1.9-1.8,3.1-4.2,5.3-5.8c1.3-1.1,2.7-2,4.3-2.6c1-0.3,1-1.6,1.8-2.1c0.1-0.1,0-0.5,0.3-0.6
	c2.9-0.7,3.9-3.6,6.1-5.2c0.9-0.8,2-1.5,3.1-2c1.1-0.4,1.9-1.1,2.5-2.1c2-3.5,5.9-4.7,8.7-7.3c0.9-0.8,2-1.5,2.3-2.9
	c0.1-0.7,0.8-1.1,1.5-1.4c1.1-0.5,2-1.2,3.1-1.7c1.1-0.4,1.9-1.4,2.2-2.5c0.6-1.5,1.9-2.5,3.4-2.9c0.7-0.2,1.4-0.3,2-0.5
	c1.4-0.3,2.5-1.4,2.9-2.8c0.5-1.8,1.9-2.3,3.5-2.3c0.8,0,1.1-0.1,1.3-0.9c0.5-1.5,1.8-2.5,2.5-3.8s1.8-2.3,2-3.9c0.2-1,1-1.7,2-1.7
	c1-0.2,2.1,0.3,2.6,1.2c1.4,2.1,0.8,3.6-1.6,4c-0.6,0-1.2,0.3-1.6,0.7c-1.9,2.4-4,4.5-6.3,6.5c-0.3,0.2-0.6,0.5-0.9,0.8
	c-1.1,1.5-2.6,2.8-4.3,3.5c-1,0.5-2,1.2-2.7,2.1c-1.2,1.4-2.7,2.6-4.3,3.6c-0.8,0.5-1.5,1.1-2.1,1.8c-1.3,1.5-2.9,2.8-4.7,3.9
	c-1.5,0.9-2.8,2-3.9,3.2c-1.5,1.7-3.1,3.3-4.9,4.7c-4,3.2-7.9,6.6-11.7,10c-1.1,1-2.5,1.6-3.7,2.5c-2.6,2-5,4.4-6.9,7.1
	c-0.9,1.1-1.9,2-3,2.9c-3.7,2.9-7.2,6-10.4,9.3c-2.3,2.5-4.9,4.6-7.2,7c-1.7,1.9-3.7,3.5-5.7,5.1c-1.4,1.2-2.7,2.5-4,3.9
	c-3.1,2.9-5.8,6.1-8.6,9.2c-4,4.5-8.4,8.6-12.6,12.8c-1.9,1.7-4,3.2-6.3,4.5C399.5,789.2,398.2,789.3,396.5,789.2z"/>
<path class="st2" d="M501.8,585.4c1.7,0.1,3.4-0.2,5.1-0.7c2.2-0.5,4.4-0.4,6.6-0.9c4.4-1,8.7-2.4,12.9-4c2-0.7,3.7-2.1,5.7-2.8
	c0.7-0.2,0.8-0.9,1.2-1.4c1.4-2.4,3.6-2.7,5.5-0.6c1.2,1.2,2.6,2.2,4.2,3c0.7,0.5,1.6,0.3,2.1-0.3c1.2-1,1.7-2.4,2.5-3.7
	s0.1-2.3-1.1-2.8c-0.5-0.2-1.1-0.3-1.6-0.4c-0.9-0.3-1.1-0.8-0.5-1.6c0.8-1.4,2.6-1.9,4-1.2c0.1,0,0.2,0.1,0.2,0.2
	c1.4,1,2.5,2.4,3.3,3.9c0.7,1.2,0,2.7-0.6,3.8c-1,1.9-2.5,3.6-4.2,5c-1.7,1.4-4.1,1.6-5.9,0.4c-1.2-0.8-2.6-1.2-4-1.1
	c-0.3,0-0.7,0-0.9-0.1c-1.3-1.3-2.5-0.3-3.5,0.4c-1.2,0.7-2.4,1.3-3.7,1.8c-4.3,2.2-9,3-13.5,4.2c-3.9,1.1-7.8,1.5-11.7,2.2
	c-2.8,0.6-5.7,0.1-8.1-1.4c-1.4-0.6-2.2-2.2-1.8-3.7c0.1-1.3,0.6-2.4,1.4-3.4c2.2-2.3,4.6-4.4,7.2-6.3c2.2-1.3,4.7-2.1,7.2-2.4
	c2-0.3,3.7-1.5,5.7-2c1.1-0.3,1.2-1.3,1-2.3c-0.7-3.2-1.2-6.5-2.1-9.6c-1.1-3.8-1.8-7.7-2.9-11.5c-0.7-2.5-1.3-5.1-2.1-7.6
	c-0.5-1.2-1.6-2-2.9-2.1c-2.4-0.3-4.8-0.2-7.1,0.3c-4.6,1.2-9.3,2-14,2.6c-2.6,0.3-5.3,0.8-7.8,1.4c-3.5,0.8-7.2,0.5-10.8,0.5
	c-0.8,0-2.2-0.1-2.2-1.3c0-1.3,1.4-1.2,2.4-1.3c5.7-0.3,11.3-1.1,16.9-2.4c2.5-0.6,5.1-0.4,7.6-1c2.2-0.5,4.3-1.2,6.5-1.8
	c1.8-0.6,3.6-1,5.4-1.3c1.6-0.1,3.1-0.4,4.5-1.2c2.1-1.2,3.8-0.2,4.4,2.4c1,4.4,1.9,8.8,3,13.2c0.7,3.6,1.6,7.1,2.8,10.6
	c0.6,1.8,1.1,3.6,1.4,5.4c0.4,2.3,1.2,4.5,2.4,6.5c0.7,1.2,0.8,2.3,0,3.2s-1.6,2.3-3.7,2.2c-2.9-0.3-5.9-0.1-8.8,0.7
	c-3.2,1-6.3,2.3-8.7,4.7c-0.9,0.9-1.7,2.1-2.1,3.3c-0.2,0.7,0.1,1.5,0.9,1.8c0.2,0.1,0.3,0.1,0.5,0.1c0.4,0,0.8-0.1,1.2-0.1
	C501.2,585.3,501.5,585.3,501.8,585.4z"/>
<path class="st2" d="M819.5,646.2c4-0.6,7.8-2.5,10.7-5.2c3.3-3.1,6.1-6.7,8.4-10.6c2.3-3.5,4-7.4,6-11.1c2.2-3.9,4.1-7.9,5.7-12
	c0.5-1.5,1-3,1.6-4.4c1-2,2.1-4,3.1-6c2.2-4,4-8.1,5.6-12.3c1.1-3.1,2.5-6.1,3.9-9c2-4.2,3.6-8.6,5.5-12.9c1.7-3.9,3.1-7.8,4.3-11.9
	c0.7-2.4,1.5-4.7,2-7.2s1.7-4.5,2.4-6.8c1.9-6.4,3.5-12.9,4.9-19.4c0.7-3.5,1.9-6.9,2-10.4c0.2-3.2,0.1-6.4-0.4-9.6
	c-0.3-1.5-0.9-3-1.8-4.2c-1.1-1.7-2-2-4-1.4c-2,0.7-3.8,1.8-5.3,3.4c-5.2,5.2-10.1,10.6-13.8,17c-1.3,2.3-3.2,4.2-4.1,6.7
	c-0.3,0.9-1.2,1-2.2,0.4c-0.8-0.4-1.2-0.9-0.5-1.9c1-1.5,2.2-2.8,3.2-4.3c1.4-2.5,2.9-4.8,4.7-7c3.5-4.3,6.8-8.9,10.6-12.9
	c1.8-2,3.9-3.8,6.3-5.2c2.1-1.2,4.7-0.6,6,1.5c0,0,0,0,0,0c0.7,1.1,1.1,2.4,2.2,3.2c0.5,0.5,0.8,1.2,0.8,1.9
	c0.8,3.4,1.2,6.9,1.1,10.4c-0.3,3.8-1,7.5-1.9,11.2c-0.4,2.1-0.4,4.2-1.3,6.2c-0.1,0.2-0.1,0.5,0,0.6c1.2,1,0.2,2.1,0,3.1
	c-0.5,4.4-3,8.1-3.9,12.3c-0.2,1.7-0.6,3.4-1.2,5c-1.7,4.3-2.6,8.9-4.2,13.3s-3.8,8.3-5.1,12.7c-0.7,2.2-1.3,4.5-2.7,6.2
	s-0.8,3.8-2.4,5c-0.1,0.1-0.1,0.3-0.2,0.4c-1.3,4.9-3.6,9.4-5.9,13.9c-1.1,2.1-2.3,4.2-3.4,6.2c-1.2,2.2-2.2,4.5-2.9,6.9
	c-0.6,2.5-2.1,4.7-3.2,7s-2.3,4.6-3.4,6.9c-1.3,3-3,6-4.8,8.7c-1.8,2.5-3.5,5.1-5.3,7.7c-0.3,0.4-0.6,0.7-1,1
	c-3,2.2-5.9,4.5-8.9,6.7C824.6,647.6,822.1,647.6,819.5,646.2z"/>
<path class="st2" d="M525.6,492.6c4,0.6,7.8-0.5,11.5-0.8c2.4-0.2,4.8-0.2,7.3-0.3c4.3-0.1,8.5-0.4,12.8-1c2.8-0.4,5.7-0.6,8.6-0.9
	c0.5,0,0.9,0,1.4-0.1c3.7-1.1,7.5-1.1,11.2-2.2c2.5-0.7,5-1,7.5-1.7c4-1.1,7.9-2.5,11.6-4.2c5.5-2.5,11-5.2,16.4-7.9
	c6.2-3.1,12.2-6.7,18.3-9.9c1.8-0.9,3.7-1.8,5.7-2.5c-1,1.8-2.9,2.4-4.5,3.3c-1.2,0.7-2.2,2-3.9,2.1c-1.2,2-3.5,2.6-5.2,4.1
	c-2.8,2.5-6.1,4-9.3,5.7c-5.8,3.1-11.8,6.1-17.9,8.8c-7.1,3.1-14.6,5.4-22.3,6.7c-5.3,0.9-10.6,1.6-16,1.9c-1.6,0.1-3.1,0.3-4.6,0.7
	c-1.1,0.2-2.2,0.3-3.3,0.3c-1.7,0-3.5,0.4-5.1,0.3c-4.9-0.3-9.7,1-14.7,0.6c-2.2-0.2-4.5-0.4-6.7-0.8c-1-0.2-2,0.1-2.7,0.8
	c-2.9,3-6.2,5.6-9.1,8.6c-1.7,1.8-3.7,3.3-5.5,4.9c-3,2.6-6.1,5.1-9.4,7.4c-1.7,1.2-3.4,2.3-5.1,3.6c-0.2,0.1-0.5,0.3-0.5,0.4
	c-0.6,2.1-2.6,2.8-4.2,3.8c-5.2,3.1-10.8,5.6-16.5,7.5c-0.4,0.2-0.7,0.3-1.1,0.4c-1,0-1.8-0.6-2.2-1.5c-0.2-1,0.7-1,1.2-1.4
	c2.1-1.4,4.7-1.4,7-2.4c4.7-2.2,9.3-4.7,13.8-7.4c3.6-2.1,6.9-4.5,10.4-6.7c1.5-1.2,3-2.5,4.3-3.9c1.1-1,2.2-2,3.3-3
	c7.1-6.6,14.4-13.2,20.8-20.6c3.4-3.9,6.9-7.7,10.3-11.5c1.2-1.5,2.4-3.1,3.4-4.7c1.6-2.3,3.2-4.6,4.8-6.9c0.6-0.9,0.9-2,1.5-2.9
	c0.3-0.5,0.7-0.9,1.3-0.7s0.6,0.9,0.4,1.4c-0.7,2.2-1.9,4.2-3.6,5.8c-1.4,1.2-2.6,2.8-3.4,4.5c-0.6,1.3-2.1,2.2-1.7,3.9
	c0,0.2-0.3,0.5-0.4,0.3c-0.9-1-0.9,0.1-1.2,0.5c-1,1-1.6,2.4-2.6,3.4c-1.6,1.7-3,3.5-4.5,5.3c-2.1,2.5-4.6,4.7-6.8,7.1
	C526,491.3,525.7,491.9,525.6,492.6z"/>
<path class="st2" d="M801.8,660.1c-0.3-0.5-0.2-0.8,0-1c1.7-1.1,3-2.7,4.7-3.9c1.4-1.1,2.6-2.4,3.7-3.8c2.4-2.6,3.9-5.8,5.7-8.8
	c3.9-6.4,7.3-13,10.5-19.8c1.5-3.3,2.8-6.7,4.3-10c1.3-2.8,2.9-5.5,4.1-8.4c1.6-4,3.2-7.9,4.5-12c0.9-2.7,1.2-5.6,2.1-8.3
	c0.8-2.4,2-4.6,2.8-7c1.8-5.9,4.2-11.5,5.9-17.5c1.3-4.7,2.8-9.4,2.9-14.4c0.2-2.1,0.5-4.2,1-6.2c0.5-3,0.8-6,0.9-9.1
	c0-0.5-0.1-0.9-0.2-1.4c-0.5-1.9-1.3-2.4-3.3-2.1c-2.4,0.4-4.6,1.7-6.1,3.6c-1.5,1.6-3.2,3.1-5,4.4c-2.5,1.9-4.7,4.1-6.5,6.7
	c-1,1.5-2.2,2.8-3.5,4.1c-0.9,0.8-1.5,1.9-1.8,3.1c-0.1,0.4-0.2,0.8-0.7,0.8s-0.7-0.3-1-0.6c-0.3-0.4-0.4-0.9-0.2-1.3
	c0.2-0.6,0.4-1.2,0.7-1.8c1.6-3,3.4-5.8,5.5-8.4c1.5-2.1,3.8-3.7,5.8-5.4c0.5-0.4,1-0.8,1.3-1.3c1.9-2.7,4.6-4.4,7.2-6.2
	c0.3-0.2,0.8-0.3,1-0.6c1.7-2.1,3.8-1.7,6-1.4s2.7,2.2,3.4,3.8c0.4,1.1,0.5,2.2,0.5,3.3c0.3,4.6-1.1,9-1.8,13.5
	c-0.2,1,0.3,1.8,0.2,2.7c-1.1,6.6-2.7,13.1-4.7,19.5c-1.1,3-2,6.1-2.7,9.2c-0.1,1-0.4,2-1,2.8c-1.8,2.5-2.1,5.5-3.2,8.2
	c-0.7,1.4-1.3,2.8-1.6,4.3c-0.4,3-2.2,5.6-2.7,8.6c-0.2,1.5-1.3,2.8-1.9,4.3c-1.9,4.8-4.1,9.4-6,14.2c-1.4,3.3-3,6.5-4.8,9.5
	c-0.8,1.5-0.9,3.2-1.8,4.7c-1.1,1.7-2.1,3.5-2.8,5.4c-0.8,2.2-2.7,3.8-3.3,6.1c-0.1,0.3-0.5,0.6-0.7,0.9c-0.7,0.8-1.2,2-2.1,2.4
	c-1.2,0.7-0.6,1.9-1.3,2.6c-0.5,0.5-0.6,1.4-1.4,1.8c-0.3,0.1-0.4,0.5-0.6,0.7c-0.9,0.6-0.2,2-1.3,2.5c-1,0.3-1.9,0.7-2.8,1.2
	c-1.5,1.1-2.8,2.2-4.1,3.5C804.4,658.9,803.2,659.6,801.8,660.1z"/>
<path class="st2" d="M576,667.7c0.3-0.5,0.3-1.3,1.1-1.4c0.4,0,0.8-0.1,0.9-0.5s-0.5-0.3-0.6-0.5c0-0.1,0.1-0.4,0.1-0.4
	c2.5-0.2,2.2-2.4,3-3.9c0.7-1.3,1.5-2.5,2.3-3.8c0.8-1.1,0.7-2.7,1.7-3.7c0.1-0.1,0.1-0.3,0.1-0.5c0-1.1,1.8-0.7,1.6-2.1
	c-0.2-1.1,0.9-1.9,1.4-2.9s1.2-1.7,1.6-2.6s1.3-1.5,1.7-2.5c0.7-1,2-1.5,3.2-1.2c0.9,0.5,1.2,1.6,0.7,2.5c-0.2,0.4-0.6,0.7-1,0.8
	c-0.8,0.4-1.5,1.1-1.9,1.9c-2.2,3.7-4.3,7.6-6.9,11.1c-4.1,5.7-7.2,12-10.5,18.2c-1.4,2.5-3,5-4.5,7.4c-1.9,3-3.5,6.3-4.8,9.6
	c-1.7,4.8-3.3,9.6-5.8,14c-2.2,3.9-3.9,8.1-6,12.1c-1.7,2.9-3,6-4.1,9.2c-0.5,1.6-1.1,3.1-1.8,4.5c-1.5-0.5-2.7-1.8-3.2-3.3
	c-1.5-3.6-2.3-7.5-3.4-11.2c-0.4-0.8-0.8-1.7-1.2-2.5c-1.4-3.4-3.1-6.6-4.6-10c-1.4-3.1-2.9-6.1-4.5-9c-2.9-5.1-5.3-10.4-8.8-15.2
	c-1.9-2.6-3.4-5.4-5.1-8.1c-0.4-0.7-1-1.4-1.6-2c-1.6-1.4-2.3-3.3-3.6-4.8c-0.7-0.9-1-2-0.8-3.1c0.2-1,0.9-1.2,1.7-0.5
	c2.7,2.3,4.6,5.3,6.8,7.9c2.7,3.1,4.3,6.8,6.8,10c2.7,3.3,4.1,7.3,6.2,11c4.1,7.3,7.4,15,10.9,22.5c1.4,3.3,2.4,6.8,3,10.3
	c1,0.2,1-0.8,1.2-1.1c2-3.8,4.3-7.4,6-11.3c0.4-0.9,0.9-1.8,1.5-2.6c1.5-1.8,2.5-3.9,3-6.2c0-0.2,0.1-0.3,0.2-0.4
	c2-2.2,1.9-5.2,3.4-7.6c0.1-0.1,0.2-0.2,0.3-0.3c0.5-0.1,0.6,0.6,1.2,0.8c0.5-1.7,1.1-3.4,1.9-5c-1.2,0.3-1.3,1.1-1.7,1.6
	s0.2,1.6-0.7,2.1c0-1.8,0.5-3.5,1.4-5.1c0.3-0.5,1-0.8,1.1-1.5c0-0.4,0.3-0.6,0.7-0.4s-0.2,0.7,0.1,1.2c0.8-1.2,1.5-2.4,2.3-3.6
	c0.5-0.7,0.2-0.9-0.6-0.8c-0.1,0-0.4-0.2-0.3-0.3c0.2-0.7,0.5-1.4,0.9-2.1c0.3-0.6,0.7-1.5,1.7-0.5c0.2-0.1,0.4-0.2,0.5-0.3
	c0.3-0.3,0.1-0.5-0.2-0.7s-0.7-0.6-0.5-0.9c0.8-1.3,0.6-3.2,2.6-3.8c1-0.3,1.7-1.3,1.6-2.3c0.1-2.3,1.3-4.4,2.5-6.4
	c1.2,0.3-0.2,1.3,0.4,1.8c0.4-0.7,1-1.3,0.9-2.3L576,667.7z"/>
<path class="st2" d="M602.1,525.9l1,0.1c-0.6,1.8-2.3,1.8-3.8,2c-0.7,0-1.4,0.2-1.9,0.7c-0.5,0.6-1.3,0.9-2.1,0.7
	c-0.2-0.1-0.5-0.1-0.7,0.1c-1,1.2-2.4,1.9-3.9,1.9c-1.4,0.1-2.6,1.7-4,2.3c-5.9,2.4-11.7,5-18,6.2c-0.9,0.2-1.9,0.5-2.7,0
	s-1.3,1.1-2,0.2c0.4-0.2,0.6-0.6,0.2-0.8c-0.6-0.3-1.2-0.2-1.8,0.1c0.5,0.5,1.3,0.1,1.7,0.8c-0.7,0-1,1.1-1.9,0.4
	c-0.3-0.2-0.8,0-1,0.5s-0.8,0.2-1.2,0.1l0,0c-0.5-1.4,1-0.8,1.4-1.3c-0.2-0.4-0.7-0.2-1-0.5c-1.5-1.2-1.4-2.7,0.4-3.5
	c1.6-0.8,3.3-1.3,5.1-1.6c2.9-0.3,5.8-1.2,8.5-2.4c6.9-3.2,13.5-7.2,20.2-10.9c5.2-3,10.5-5.8,15.5-9.2c6.8-4.6,14.1-8.4,21.1-12.6
	c5.7-3.4,11.5-6.5,17.3-9.7c1-0.5,2.3-0.1,2.8,1c0.1,0.2,0.1,0.3,0.2,0.5c0.1,0.9-0.7,1.1-1.4,1.4c-1,0.4-2.1,0.3-3.1,0.7
	c-0.8,0.4-1.6,0.8-2.4,1.2c-4.5,2.3-8.7,5-13.1,7.5c0.1-0.2,0.1-0.4,0.2-0.6c0.2-0.3,0.4-0.5,0.1-0.8c-0.5-0.4-0.6,0.2-0.8,0.4
	c-0.1,0.2-0.2,0.4-0.2,0.6c-1.2,0.1-1.2,0.1-1.8,1.6c-0.1,0.2-0.4,0.3-0.4,0.4c-0.2,1.4-1.7-1.9-1.7,0.5c0,1.1-1.7,0.9-2.2,1.7
	c-0.3-1,1.3-0.8,1-1.7c-0.6-0.4-1,0.2-1.5,0.3c-0.4,0-0.7,0.4-0.7,0.8c0,0.1,0,0.1,0,0.2c0.2,0.5,0.7,0.4,1.2,0.4
	c-0.3,0.2-0.5,0.4-0.7,0.6c-0.9,1-2.5-0.1-3.4,1.5c-0.6,1.2-2.3,1.7-3.7,2.3s-2.2,1.7-3.5,2.3c-1.2,0.6-2.4,1.4-3.6,2.2
	c-1.6,1.2-3.8,1.5-4.8,3.5c-2.3,0.3-4,2-5.9,3c-5.4,2.8-10.5,6.2-15.7,9.3c-1.7,1-3.5,1.6-5.3,3.5c2-0.4,4-1,5.9-2
	c2.3-1.2,4.6-2.3,7-3.2c3.2-1.3,6.4-2.4,9.5-3.7c3.9-1.7,7.9-3,11.9-4.2c2.9-0.9,5.8-1.9,8.7-2.8c1.6-0.5,3.1-1,4.7-1.3
	c1.5-0.3,3-0.8,4.5-1.4c0.7-0.4,1.5-0.6,2.3-0.5c0.9,0.1,1.6,0.6,1.9,1.5c0.2,0.7-0.7,0.9-1.2,1.2c-0.9,0.6-1.8,1.2-3,0.5
	c-0.2-0.1-0.6,0-0.9,0.1c-1.8,0.6-3.6,1-5.5,1.3c-1.3,0.2-2.4,1.1-3.8,1.3c-1.5,0.2-2.8,1.5-4.5,1.4c-1.6-0.1-2.8,1.3-4.3,1.4
	c-0.9,0.1-1.5,0.7-2.4,0.9c-0.6,0.1-0.9,0.5-1.3-0.3c-0.1-0.2-0.7-0.2-0.8,0.1c-0.4,1.9-1.8,1.2-2.9,1.2
	C603.3,525.4,602.6,525,602.1,525.9c-0.7-0.2-1.5,0.1-1.9,0.8C601,526.8,601.7,526.5,602.1,525.9z M619.5,519.9
	c-0.8,0.1-1.6,0.3-2.3,0.7C618.1,520.9,619,520.6,619.5,519.9L619.5,519.9z"/>
<path class="st2" d="M222.5,676.6c-0.5,0.1-1.1,0.3-1.6,0.5c-0.9,0.5-1.9,0.1-2.8,0.3c-1.4,0.3-1.3-1.1-1.9-1.6
	c-1.3-1.2-2.8-2.2-3.8-3.7s-2.5-3-2.9-5c-0.1-0.6-0.4-1.2-0.8-1.7c-2.2-2.2-2.9-5.3-4.6-7.8c-1.4-1.8-1.8-4.1-1.2-6.2
	c0.1-0.2,0.1-0.5,0.1-0.7c-1-1.5-0.7-3.2-1-4.8c-0.3-1.6-0.3-3.3-0.2-4.9c0.3-3.1,1.6-6,3.6-8.4c1.4-1.7,3.4-2.8,5.6-3.2
	c0.5,0,0.9-0.1,1.4-0.2c2.9-1.5,5.3,0,7.6,1.3c1.5,0.9,3,1.9,4.4,3c1.1,0.9,2.1,1.8,3.1,2.8c4.2,4.3,7.8,9.1,10.9,14.2
	c1.7,2.9,3.9,5.7,5.4,8.7s3.8,5.4,5.6,8.1c2.6,4,5.8,7.5,7.9,11.9c1.4,2.5,3.2,4.8,5.3,6.8c0.5,0.4,0.8,0.9,1.1,1.5
	c0.9,2.3,2.9,3.8,4.1,5.8c1,1.6,2.7,2.6,3.6,4.3c0.4,0.8,1.3,1.9,0.5,2.4c-0.9,0.7-1.6-0.6-2.1-1.3c-1.9-2.8-4.1-5.3-6.5-7.5
	c-0.2-2.2-2.9-2.9-3.3-5.2c-0.2-1.1-1.9-1.8-2.5-3.1c-1.2-2.2-3.1-4-4-6.5c-0.3-0.7-1-1-1.4-1.5c-1.2-1.6-3.1-2.8-3.8-5
	c-0.3-0.8-1.7-1.2-1.7-2.5c-1.9-1.4-2.5-3.7-4.1-5.4c-0.3-0.3-0.6-0.7-0.6-1c0.4-2.1-1.3-2.8-2.4-3.9c-0.5-0.4-0.8-0.9-1.1-1.4
	c-1.1-2-2.4-4-3.8-5.8c-1.3-2-2.7-4-4.4-5.8c-1.4-1.6-2.9-3-4.6-4.2c-1.7-1.2-2.9-3-4.5-4.4c-2.1-1.7-4.6-2.8-7.3-3.5
	c-2.6-0.7-5,0.6-6.7,3.2c-2.1,3.1-3.1,6.9-2.7,10.6c0.2,2.1,0.7,4.1,1.3,6.1c1.7,5.8,5.1,10.7,8.4,15.6c1.6,2.3,3.2,4.8,5.8,6.3
	C221.2,674.6,222.1,675.5,222.5,676.6z"/>
<path class="st2" d="M630.2,717.3c-1.5-0.7-1.7-0.6-1.7,0.8c-0.1,2.1-0.8,4-1.2,6c-0.2,0.8-0.2,1.5-0.2,2.3c0.3,2.3,0.4,2.4-0.7,4
	c-0.4,0.6-0.6,1.3-0.4,2c0.4,1.4-0.1,2.6-0.3,3.8c-0.1,0.6-0.2,1.3-1.2,1c-0.2,0-0.4,0.1-0.4,0.2c0,0.1,0,0.1,0,0.2
	c0.5,1.9-1.5,3.6-0.6,5.6c0.1,0.1-0.2,0.4-0.3,0.6c-1.4,1.7-1.9,3.8-2.5,5.9c-0.4,1.4-0.6,3.2-2.2,4.2c-0.7,0.4-0.4,1.2-0.2,1.8
	c0.4,1,0.3,2.1-0.2,3c-0.7,1.8-1.4,3.7-1.9,5.6c-1.3,3.4-2.3,7-2.9,10.6c0,0.5-0.2,0.9-0.4,1.3c-1.8,2.5-2.5,5.6-3.5,8.5
	c-0.8,2.2-1.3,4.4-2.3,6.6c-1.4,3.1-2.7,6.3-4,9.4c-0.2,0.4-0.4,0.9,0,1.3c0.8,1,0.5,1.3-0.7,1.3c-0.5,0-0.5,0.4-0.6,0.8
	c-0.4,2.7-2.7,4.7-5.5,4.7c-1.1-0.1-1.8-0.4-1.8-1.6c-0.1-1.3-0.5-2.6-1.2-3.7c-1.8-3.6-2.5-7.5-3.8-11.3c-0.4-1-0.4-2.2,0.1-3.2
	c0.5-0.9-0.8-1.7,0.1-2.5c0,0-0.1-0.3-0.2-0.3c-1.8-0.2-1.5-1.8-1.8-2.8c-1-3.1-1.7-6.3-2.5-9.5c-0.2-1.1-0.6-2.1-1.2-3
	c-0.1-0.2-0.2-0.4-0.3-0.6c-0.6-3.6-2.5-6.9-3.1-10.5c-0.1-0.9-0.2-1.7,0.7-2.2c1.2-0.6,2.1-0.2,2.3,1.3c0.4,2.4,0.9,4.7,1.6,7.1
	c1.7,6.4,3,12.9,5.2,19.2c1.1,3.1,1.7,6.3,2.7,9.5c1.1,3.6,2.4,7.2,4,10.7c1.4-2,2.8-3.7,3.8-5.5s1.7-3.7,2.6-5.5
	c2.5-4.9,3.7-10.2,5.5-15.3c0.5-1.4,1.2-2.7,1.7-4.1c0.9-2.4,1.5-4.9,2.5-7.3c1.1-2.8,1.5-5.8,2.4-8.7c0.1-0.5,0.3-0.9,0.6-1.3
	c0.6-0.7,0.9-1.7,0.8-2.6c0-0.8,0.2-1.6,0.5-2.3c1.5-4.2,2.7-8.4,3.6-12.8c0.2-1.5,0.7-3,1.4-4.4c0.1-0.1,0.2-0.3,0.2-0.4
	c0-3.5,2.3-6.5,2.1-10.2c0.1-1.5,0.6-2.9,1.3-4.2c0.7-1.8,1.2-3.7,1.5-5.6c0.7-3.8,2.2-7.5,3.4-11.2c1.1-3.3,2.5-6.6,3.4-10
	c0.6-2,0.7-4.2,1.4-6.1c0.3-0.8,0.6-1.3,1.4-1.2s1.1,0.6,1.1,1.3c0.2,1.4-0.1,2.7-0.8,3.9c-1.2,1.9-1.5,4.3-2.5,6.4s-0.9,4.3-2.4,6
	c-0.1,0.1-0.2,0.2-0.2,0.4c0.5,2.5-1,4.5-1.6,6.7c-0.2,0.8-1,1.6,0,2.4c0.2,0.2,0.2,0.3,0,0.3C628.5,714.6,630.3,716.2,630.2,717.3z
	 M592.2,794.8c-0.2-0.5-0.4-0.9-0.7-1.6C591.3,794,591.5,794.5,592.2,794.8L592.2,794.8z M586.8,776.2c0.3-0.5,0.2-1.2-0.3-1.5
	c0,0-0.1-0.1-0.1-0.1C586.4,775.2,586.5,775.8,586.8,776.2L586.8,776.2z"/>
<path class="st2" d="M778.6,584.7c-0.3-0.6-0.6-0.6-1-0.1c-1.3,1.4-1.7,3.3-2.7,4.9c-0.8,1.3-1.5,2.7-2.1,4.2
	c-0.2,0.4-0.6,0.7-1.1,0.8c0.4-2,1.1-3.9,2.1-5.6c2.9-5.6,5.9-11.2,6.8-17.6c0.4-2.6,1.5-5.1,1.3-7.8c-0.2-2.5-0.6-4.8-2.5-6.6
	c-1.6-1.2-3.7-1.4-5.4-0.5c-0.7,0.5-1.4,0.9-2.3,1.2c-0.7,0.2-1.3,0.6-1.7,1.2c-4,4-7.3,8.6-9.8,13.6c-0.6,1.2-1.1,2.5-1.4,3.9
	c-0.3,1.2-1.3,2.2-2,3.5c-0.5,0.9-0.9,1.7-1.3,2.6c-1.8,4.9-4,9.7-6.1,14.5c-1,2.4-2.1,4.9-3,7.3c-1.2,3.2-2.8,6.1-5.6,8.1l-1.1,0.8
	c-0.3,0.3-0.8,0.3-1.1,0.1c-0.3-0.3-0.4-0.7-0.3-1.1c0.2-1.2,0.7-2.2,1.4-3.2c2.1-3.4,3.8-6.9,5.3-10.6c1-2.3,2-4.6,3.2-6.8
	c2.2-4.2,3.7-8.6,5.7-12.8c1.2-2.6,2.5-5.2,3.7-7.8c1.4-2.8,3-5.4,4.9-7.9c2.4-3.1,5.1-5.9,8.2-8.3c2.2-1.7,4.9-2.6,7.6-2.4
	c2.2,0.1,4.3,1.4,5.1,3.5c1.5,2.9,2.7,6,2.1,9.4c-0.8,4.7-1.9,9.4-3.2,14C781.4,581.1,780.6,583.5,778.6,584.7L778.6,584.7z
	 M778.7,583.1c0.4-0.5,1-0.8,0.6-1.6c-0.6,0.2-0.9,0.8-0.7,1.4C778.7,583,778.7,583.1,778.7,583.1z"/>
<path class="st2" d="M111.7,632c0.1-0.7,0.2-1.6,0.2-2.5c0.2-2.1,1.6-3.2,3.2-4c2.2-1,4.8-0.8,6.8,0.5c2,1.3,4.2,2.3,6.2,3.7
	c3,2,5.7,4.4,8.1,7.1c2.5,3,5.7,5.4,7.8,8.7c2.4,3.8,6.1,6.5,9,9.9s6,6.8,9.1,10.2c3.6,4,6.6,8.5,9.8,12.9c2.6,3.4,5.1,6.9,7.6,10.4
	c0.8,1,1.7,1.9,2.7,2.6c0.4,0.3,0.7,0.6,1,0.9c0.4,0.5,0.4,1.2,0,1.7c-0.4,0.5-1,0.2-1.5,0c-0.5-0.3-0.9-0.6-1.3-1
	c-1.9-2.1-3.7-4.4-5.6-6.6c-3.3-4-6.2-8.3-9.2-12.6c-1.4-2.2-3.1-4.2-5.1-6c-2.5-2.1-4.5-4.7-6.8-7.1c-1.7-1.7-3.4-3.4-5.1-5.2
	c-1.9-1.9-3.7-3.8-5.4-5.9c-1.5-1.9-3.2-3.7-4.9-5.3c-1.5-1.4-2.9-3-4-4.8c-3.1-4.6-7.5-7.4-12.4-9.6c-0.6-0.2-1.1-0.4-1.7-0.8
	c-0.5-0.4-1.1-0.6-1.7-0.7c-2.8-0.5-4.1,0.6-3.7,3.4c0.5,2.9,1.5,5.7,2.9,8.3c0.4,0.8,0.8,1.7,1.1,2.6c0.2,0.7,0,1.4-0.8,1.4
	c-1.1-0.1-2.4-0.1-3.1-1.3C113,639.6,111.8,635.9,111.7,632z"/>
<path class="st2" d="M125.9,659c-1.3,1.7-1.3,1.7-2.8,0.9c-1.5-0.8-2.9-1.9-4.1-3.1c-2-2-4.1-4.1-6.2-6c-0.8-0.6-1.5-1.4-2.1-2.2
	c-1.4-2-3.8-3-6.2-2.7c-0.7,0.1-1.3,0.7-1.4,1.4c-0.2,0.8-0.2,1.7-0.1,2.6c0.8,4.5,2.5,8.9,4.9,12.8c0.4,0.6,0.7,1.2,1,1.8
	c0.4,1.1,1.2,2,2.3,2.6c1,0.5,1.9,0.9,1.3,2.5c-0.2,0.5,0.5,1.7,1.1,2.2c1.7,1.6,2.4,3.8,3.9,5.5c0.7,0.9,1.4,1.9,2.1,2.8
	c0.2,0.2,0.3,0.4,0.5,0.5c1.2,0.3-0.5,2,1,2.1s1.4,1.5,2.2,2.2s1.2,1.7,1.9,2.3c2.4,2.2,4.5,4.7,7,6.8c2.3,2.1,4.5,4.2,6.6,6.5
	c2.2,2.3,4.6,4.5,7,6.5c1.3,1.3,2.5,2.7,3.6,4.3c0.5,0.6,0,1-0.7,1c-2.1,0-4.1-0.8-5.6-2.4c-3.3-3.5-6.8-6.8-10.3-10.2
	c-1.4-1.3-2.3-3.1-3.8-4.4c-3.6-3-5.8-7-8.8-10.5c-1.7-1.9-3.2-4-4.3-6.3c-0.2-0.5-0.6-0.6-1-0.9c-0.6-0.4-1.1-0.9-1.4-1.5
	c-1.2-2.8-3.8-4.7-4.9-7.5c-0.8-2-2.7-3.5-3-5.8c-0.1-1-1.1-1.5-1.6-2.3c-1.7-3-2.3-6.3-3.5-9.4c-0.3-1.3-0.4-2.6-0.2-4
	c0.3-3.5,3.6-4.6,6.4-3.9c2.2,0.7,4.3,1.9,5.9,3.6C116.9,650.8,121.4,654.8,125.9,659z"/>
<path class="st2" d="M292.9,711.7c-0.8,2.4-2.5,3-4.8,2.8c-6.2-0.4-12.5-0.1-18.6,1.1c-4.7,0.8-9.3,2-14,2.5
	c-4.4,0.5-8.8,1.3-13.2,1.7c-3.2,0.2-6.5,0.6-9.7,1.1c-3.5,0.5-7.1,0.9-10.7,1c-4.9,0.3-9.8,0.7-14.8,0.6c-4,0-7.9-0.5-11.8-1.6
	c-0.4-0.1-0.7-0.3-1-0.5c-0.5-0.4-0.6-1.1-0.3-1.7c0.2-0.6,0.7-0.7,1.3-0.6c3,0.5,6.1,0.5,9.1,0.7c2.8,0.3,5.5,0,8.3,0.4
	c1.2,0.2,2.3-0.3,3.5-0.3c3.9,0,7.8,0,11.6,0c0.7,0.1,1.4-0.1,2-0.4c0.3-0.2,0.7-0.3,1.1-0.3c2.8,0.3,5.6-0.2,8.1-1.3
	c1.4-0.6,3.1-0.6,4.6-0.8c5.5-0.8,11-1.2,16.4-2.4c2.2-0.6,4.4-0.7,6.6-0.2c0.5,0.1,0.5-0.2,0.7-0.4c0.2-0.3,0.6-0.5,1-0.4
	c2.6,0.6,4.9,0,7.3-0.9c1.1-0.4,2.7-0.1,4-0.2c2.4,0,4.8,0.1,7.2,0.2c1.6,0,3.2,0.4,4.8-0.3C292,711.2,292.4,711.3,292.9,711.7z"/>
<path class="st2" d="M551.4,605.8c0.1,1.6-0.9,2.7-1.7,4s-2.1,1.5-3.5,1.7c-2,0.4-3.9-0.1-5.8-0.1c-0.5,0-0.9-0.2-1.3-0.5
	c-1.5-1.2-2.8-2.6-3.9-4.2c-1.5-2.1-1-5,1.1-6.5c0.2-0.1,0.3-0.2,0.5-0.3c0.3-0.2,0.7-0.4,1-0.6c1.8-2,1.8-1.9,4.4-1.6
	c1,0.1,2.1,0,3,0.6c2.1,1.4,4.4,2.6,5.7,5C551.2,604.1,551.4,605,551.4,605.8z"/>
<path class="st2" d="M181.4,666.3c-0.8,0.5-1.9,0.2-2.4-0.6c-0.1-0.2-0.2-0.5-0.2-0.8c-0.3-1-0.9-1.9-1.6-2.7c-2-3.1-4.4-6-6.4-9
	c-1.6-2.3-3.5-4.4-5.7-6.2c-1.7-1.5-3.1-3.3-5-4.5c-0.6-0.5-1.3-0.9-2-1.3c-1.9-1-3.3-0.1-3.1,2c0.1,1,0.3,2,0.8,2.9
	c0.4,0.9,0.3,1.5-0.6,1.9s-2.1,0.2-2.4-0.7c-0.9-1.9-1.5-3.9-1.8-6c-0.2-1.8,0.3-2.8,1.9-3.3c2.2-0.7,4.4-1,6.5,0.4
	c2,1.3,3.8,2.7,5.5,4.3c3.5,3.5,6.7,7.2,9.4,11.3C176.9,658.1,179.2,662.2,181.4,666.3z"/>
<path class="st2" d="M862,497c0,0.7-0.6,1.3-1.3,1.3c-0.1,0-0.3,0-0.4-0.1c-1.3-0.6-2.6-0.9-4-1.1c-0.9-0.1-1.9,0.3-2.5,0.9
	c-2.1,1.8-3.9,3.8-5.5,6c-1.1,1.5-2.5,2.5-3.6,4c-1.1,1.4-2.1,2.9-2.9,4.5c-0.6,0.8-1.2,1.6-1.9,2.3c-1,1.4-1.8,2.9-2.5,4.4
	c-0.5,1.1-1.5,1-2.4,1.1s-1.2-1.1-0.8-2c0.9-2.2,2.1-4.2,3.6-6c1.1-1.2,2.1-2.5,3-3.9c2.2-3.8,5.4-6.8,8.2-10.1
	c0.8-0.9,1.7-1.8,2.5-2.8c1.6-2.1,6.6-2.9,8.9-1.5C861.4,494.7,861.1,496.3,862,497z"/>
<path class="st2" d="M493.5,558.7c-1.3,0.1-2.5-0.2-3.6-0.9c-2.6-1.8-2.4-4.2-1-6.6c0.8-1.4,2.1-1.5,3.6-0.7c1,0.7,2.1,1.1,3.3,1.2
	c1.6-0.1,2.6,1.6,2.6,3.5c0,1.5-1,2.8-2.5,3.1C495.1,558.6,494.3,558.7,493.5,558.7z"/>
<path class="st2" d="M560,553c-2.7,0.1-5-2.1-5.1-4.8c0-0.5,0-1,0.2-1.5c0.6-2.1,3.4-3,5.3-1.6c0.9,0.6,1.7,1.3,2.6,1.9
	c1.1,0.6,1.7,1.8,1.5,3c-0.2,1.3-1.1,2.3-2.4,2.6C561.4,552.8,560.7,553.2,560,553z"/>
<path class="st2" d="M809.5,603.9c1,1,1.1,1.7,0.2,2.9s-1.3,3-2,4.7c-1.2-1.2-0.3-2.4,0-3.1c0.6-1.6,0.4-3.4,1.2-4.8
	c0.8-1.5,1.5-3,1.8-4.7c0.7-3,1.7-6,2.3-9.1c0.4-1.8,1.3-3.5,1.7-5.4c0.4,1,0.4,2.2-0.1,3.2c-0.4,1-0.7,2.1-0.8,3.1
	c-0.2,1.2-0.1,2.3-1,3.4c-0.7,0.8-0.4,2.1-0.5,3.1c-0.1,1.9-0.5,3.7-1.1,5.5C810.8,603.7,810.8,603.7,809.5,603.9z"/>
<path class="st2" d="M800,635.4c-1.8-1.4-1.5-1.3-0.8-3.2c0.3-0.9,2.1-1.1,1.3-2.5c-0.1-0.2,1-0.3,1.5,0c0.3,0.2,0.9,0.5,0.5,0.8
	c-1.7,1.4-0.9,3.5-1.7,5.1c-0.5,1-0.8,2.1-2.4,2.3C799,637,798,635.5,800,635.4z"/>
<path class="st2" d="M194.7,759.3c-1.3-1-2.6-2.2-3.7-3.5c-0.7-1.1-1.7-1.9-3-2.2c0.8-0.6,1.4-0.9,1.8-0.4c1.8,1.8,3.6,3.7,5.4,5.6
	L194.7,759.3z"/>
<path class="st2" d="M837.9,585.2c0.7,0,1.3,0,1.8,0c0.3,0,0.5,0.3,0.5,0.6c0,0,0,0.1,0,0.1c-0.3,1-0.7,1.9-1.1,2.8
	c-0.3,0.3-0.7,0.4-1.1,0.1c0,0-0.1-0.1-0.1-0.1c-0.5-0.9-1.5,0.6-1.7-0.5c-0.2-1.3,1-0.5,1.5-0.8C838.8,586.8,838.3,586,837.9,585.2
	z"/>
<path class="st2" d="M421.7,798c-1.6,2.7-3.4,5.3-5.4,7.7c-0.6-0.5-0.3-0.7-0.1-1l4.2-6.1C420.7,798.2,421.2,798,421.7,798
	L421.7,798z"/>
<path class="st2" d="M121.7,676.6c-0.5,0.4-0.9,0.4-1.1,0.1c-0.8-1.3-1.8-2.5-3-3.5c-0.2-0.1-0.3-0.4-0.2-0.7c0,0,0.1-0.1,0.1-0.1
	c0.2-0.3,0.6-0.3,0.8-0.1c0.5,0.7,1.6,0.8,1.7,2C120.1,675.1,121.1,675.8,121.7,676.6z"/>
<path class="st2" d="M641.4,345.9c-0.9,1.5-0.7,3.8-3,4.4C638.8,348.4,639.9,346.8,641.4,345.9z"/>
<path class="st2" d="M845.2,560.1c0.2,0.6,0.3,1.3,0.3,1.9c-0.1,1.4-0.8,1.7-2,1c-0.3-0.2-0.9-0.2-0.8-0.7c0.1-0.7,0.6-0.5,1-0.4
	c0.7,0.2,0.5-0.4,0.6-0.7L845.2,560.1z"/>
<path class="st2" d="M611.5,785.4c0.5,0.5,0.5,0.8,0.4,1.1c-0.6,1.7-1.2,3.3-1.8,4.9c-0.1,0.4-0.3,0.5-0.6,0.2
	c-0.2-0.1-0.3-0.3-0.2-0.5c0,0,0,0,0-0.1C610.5,789.5,610.7,787.5,611.5,785.4z"/>
<path class="st2" d="M615.1,777c-0.5,1.1-0.8,2.3-0.8,3.5c-1.4-0.7-0.6-2-0.8-2.8C613.4,777.1,614.3,776.7,615.1,777L615.1,777z"/>
<path class="st2" d="M605.7,799c0.6-1.2,1.4-2.3,2.4-3.2c-0.3,0.9-0.5,1.8-0.9,2.7c-0.1,0.5-0.6,0.8-1.1,0.7
	C606,799.1,605.8,799.1,605.7,799L605.7,799z"/>
<path class="st2" d="M128.1,683.7c1.2-0.3,2.5-0.1,3.5,0.7C130.1,685.5,129.2,684.1,128.1,683.7L128.1,683.7z"/>
<path class="st2" d="M128.2,683.7c-1-0.7-2.4-1.1-3.2-2.3C126.4,681.4,127.7,682.3,128.2,683.7L128.2,683.7z"/>
<path class="st2" d="M117.4,671.4c-1.7,0.3-1.7,0.3-2.2-1.5C116.2,670,117,670.6,117.4,671.4z"/>
<path class="st2" d="M803,626.7c0,0.5-0.2,0.9-0.6,0.9c-0.4,0-0.7-0.3-0.7-0.7c0,0,0,0,0,0c0-0.5,0.4-0.8,0.9-0.8c0,0,0,0,0.1,0
	C803,626.1,803,626.5,803,626.7z"/>
<path class="st2" d="M605.7,798.9c0.3,1-0.1,2-0.9,2.6C604.2,800.2,605.2,799.7,605.7,798.9L605.7,798.9z"/>
<path class="st2" d="M571.7,659.2c0.8,0.4,1.5,0.5,1.4,1.4c0,0.1-0.4,0.3-0.6,0.3C571.7,660.7,571.7,660.1,571.7,659.2z"/>
<path class="st2" d="M122.8,678.5c1.3,0.2,1.2,1.1,1.2,2.3C123.6,679.8,123.2,679.2,122.8,678.5z"/>
<path class="st2" d="M577.2,631.9c-0.3,0.3-0.8,0.4-1.2,0.3c-0.4,0-0.6-0.3-0.6-0.7C575.9,631.1,576.7,631.2,577.2,631.9
	C577.1,631.8,577.2,631.9,577.2,631.9z"/>
<path class="st2" d="M613,782.6c-0.5-0.1-0.4-0.6-0.4-0.9s0.1-0.8,0.6-0.8s0.3,0.5,0.3,0.7S613.5,782.5,613,782.6z"/>
<path class="st2" d="M548.9,366h-3.8C546.5,365.5,547.7,366,548.9,366z"/>
<path class="st2" d="M423,795.4c-0.3-0.7,0.1-1.5,0.8-1.7C423.9,794.5,423.8,795.1,423,795.4z"/>
<path class="st2" d="M630.2,575.5l2.1,1.4C631.5,576.8,630.7,576.9,630.2,575.5z"/>
<path class="st2" d="M421.7,798c-0.1-0.3-0.2-0.6-0.2-0.9c-0.1-0.4,0.2-0.9,0.7-0.9c0,0,0.1,0,0.1,0c0.1,0,0.3,0.1,0.4,0.2
	c0.2,0.4-0.1,0.7-0.4,1S421.7,797.7,421.7,798L421.7,798z"/>
<path class="st2" d="M615.1,777c0-0.7-0.9-1.3-0.1-2C616.1,775.7,614.8,776.4,615.1,777L615.1,777z"/>
<path class="st2" d="M612.9,783.9c-0.2,0.4-0.2,0.9-0.6,0.9s-0.3-0.4-0.4-0.7s0.1-0.8,0.6-0.7C612.6,783.5,612.8,783.8,612.9,783.9z
	"/>
<path class="st2" d="M628.2,574c-0.1,0.3-0.2,0.6-0.6,0.5c-0.2-0.1-0.4-0.3-0.3-0.5c0.1-0.2,0.3-0.4,0.5-0.4
	C628,573.5,628.1,573.7,628.2,574z"/>
<path class="st2" d="M423.5,568.8c0.2,0,0.2,0.2,0.2,0.5s0,0.5-0.3,0.5s-0.3-0.3-0.3-0.5S423,568.8,423.5,568.8z"/>
<path class="st2" d="M840.6,582.8c-0.1,0.2-0.2,0.4-0.4,0.3s-0.6-0.2-0.6-0.6s0.3-0.3,0.5-0.3S840.6,582.4,840.6,582.8z"/>
<path class="st2" d="M614.2,727.9c0.2,0,0.3,0.2,0.2,0.3c-0.1,0.2-0.2,0.4-0.3,0.6c-0.1-0.1-0.1-0.2-0.2-0.4
	C614,728.2,613.9,728,614.2,727.9z"/>
<path class="st2" d="M778.5,584.7c0.2,0.4,0.2,0.9-0.3,1.1c-0.1,0.1-0.3,0.1-0.4,0c-0.2-0.6,0.1-1,0.7-1L778.5,584.7z"/>
<path class="st2" d="M633.5,709.9c-0.1,0.1-0.2,0.3-0.2,0.3c-0.4,0-0.5-0.2-0.5-0.5s0-0.5,0.3-0.4
	C633.3,709.3,633.5,709.6,633.5,709.9z"/>
<path class="st2" d="M817.3,589.8l-0.2,0.3c-0.1-0.1-0.2-0.2-0.3-0.3s0.1-0.2,0.2-0.2S817.2,589.7,817.3,589.8z"/>
<path class="st2" d="M560,541.1c-0.5,0.1-1,0.5-1.5,0.1c-0.1-0.1-0.1-0.3-0.1-0.4C559.1,540.1,559.4,541.1,560,541.1L560,541.1z"/>
<path class="st2" d="M582.1,666.5c0-0.2-0.1-0.5-0.1-0.7c0-0.2,0.2-0.4,0.4-0.3c0,0,0.1,0,0.1,0c0.1,0,0.2,0.3,0.2,0.3
	C582.5,666.1,582.3,666.3,582.1,666.5z"/>
</svg>
