<svg width="30" height="30" xmlns="http://www.w3.org/2000/svg">

 <g>
  <title>background</title>
  <rect fill="none" id="canvas_background" height="402" width="582" y="-1" x="-1"/>
 </g>
 <g>
  <title>Layer 1</title>
  <path id="svg_1" fill="none" stroke="#000000" stroke-linecap="round" stroke-linejoin="round" stroke-miterlimit="10" d="m12.062,20c0.688,0.5 1.688,1 2.938,1s2.25,-0.5 2.938,-1"/>
  <line id="svg_2" fill="none" stroke="#000000" stroke-linecap="round" stroke-linejoin="round" stroke-miterlimit="10" y2="14" y1="12" x2="20" x1="20"/>
  <line id="svg_3" fill="none" stroke="#000000" stroke-linecap="round" stroke-linejoin="round" stroke-miterlimit="10" y2="14" y1="12" x2="10" x1="10"/>
  <path id="svg_4" fill="none" stroke="#000000" stroke-linecap="round" stroke-linejoin="round" stroke-miterlimit="10" d="m15,12l0,4c0,0.552 -0.448,1 -1,1"/>
  <path id="svg_6" fill="none" stroke="#000000" stroke-linecap="round" stroke-linejoin="round" stroke-miterlimit="10" d="m26,9l0,-3c0,-1.105 -0.895,-2 -2,-2l-3,0"/>
  <path stroke="#000000" id="svg_7" fill="none" stroke-linecap="round" stroke-linejoin="round" stroke-miterlimit="10" d="m9.071427,4.071427l-3,0c-1.105,0 -2,0.895 -2,2l0,3"/>
  <path id="svg_8" fill="none" stroke="#000000" stroke-linecap="round" stroke-linejoin="round" stroke-miterlimit="10" d="m21,26l3,0c1.105,0 2,-0.895 2,-2l0,-3"/>
  <path id="svg_9" fill="none" stroke="#000000" stroke-linecap="round" stroke-linejoin="round" stroke-miterlimit="10" d="m4,21l0,3c0,1.105 0.895,2 2,2l3,0"/>
 </g>
</svg>